<svg viewBox="0 0 500 300" fill="none" xmlns="http://www.w3.org/2000/svg">
<g clip-path="url(#clip0_34_508)">
<rect width="500" height="300" rx="50" fill="#EEEEEE"/>
<g opacity="0.7" filter="url(#filter0_f_34_508)">
<path d="M387.819 4.54548C424.81 -6.52257 505.548 -13.7866 505.548 -13.7866L527.611 343.914L-23.5507 369.984L-68.3304 127.15C-68.3304 127.15 -33.05 91.343 6.41438 77.9825C46.436 64.4334 88.2194 71.4965 129.166 61.0725C178.85 48.4244 196.282 26.6471 246.484 16.2437C293.193 6.56398 342.119 18.2193 387.819 4.54548Z" fill="#416788"/>
<path d="M399.875 72.3663C436.865 61.2982 506.46 12.7024 506.46 12.7024L511.636 345.662L-25.0816 368.007L-56.2749 194.971C-56.2749 194.971 -20.9944 159.164 18.47 145.803C58.4916 132.254 100.275 139.317 141.222 128.893C190.905 116.245 208.338 94.4679 258.539 84.0645C305.248 74.3848 354.175 86.0401 399.875 72.3663Z" fill="#46DB5B"/>
<path d="M442.341 134.214C479.332 123.146 507.579 84.6937 507.579 84.6937L537.54 339.259L-3.89503 347.675L-13.8084 256.818C-13.8084 256.818 21.4721 221.011 60.9364 207.651C100.958 194.102 142.741 201.165 183.688 190.741C233.372 178.093 250.804 156.315 301.006 145.912C347.715 136.232 396.641 147.888 442.341 134.214Z" fill="#FFCB47"/>
<path d="M452.412 203.065C489.403 191.997 517.651 153.546 517.651 153.546L533.986 335.814L-3.52718 339.169L-3.73701 325.67C-3.73701 325.67 31.5435 289.863 71.0078 276.503C111.029 262.953 152.813 270.017 193.76 259.593C243.443 246.944 260.876 225.167 311.077 214.764C357.786 205.084 406.713 216.739 452.412 203.065Z" fill="#F15152"/>
</g>
<g filter="url(#filter1_d_34_508)">
<path d="M90.5284 173.909H98.1136L106.125 193.455H106.466L114.477 173.909H122.062V203H116.097V184.065H115.855L108.327 202.858H104.264L96.7358 183.994H96.4943V203H90.5284V173.909ZM127.13 203V173.909H138.607C140.804 173.909 142.679 174.302 144.232 175.088C145.795 175.865 146.983 176.968 147.798 178.398C148.621 179.818 149.033 181.49 149.033 183.412C149.033 185.344 148.617 187.006 147.783 188.398C146.95 189.78 145.743 190.841 144.161 191.58C142.589 192.318 140.686 192.688 138.451 192.688H130.766V187.744H137.457C138.631 187.744 139.606 187.583 140.383 187.261C141.159 186.939 141.737 186.456 142.116 185.812C142.504 185.169 142.698 184.368 142.698 183.412C142.698 182.446 142.504 181.632 142.116 180.969C141.737 180.306 141.155 179.804 140.369 179.463C139.592 179.113 138.612 178.938 137.428 178.938H133.281V203H127.13ZM142.84 189.761L150.07 203H143.281L136.207 189.761H142.84ZM152.272 178.98V173.909H176.164V178.98H167.258V203H161.178V178.98H152.272ZM189.357 203V173.909H200.834C203.031 173.909 204.906 174.302 206.459 175.088C208.021 175.865 209.21 176.968 210.024 178.398C210.848 179.818 211.26 181.49 211.26 183.412C211.26 185.344 210.843 187.006 210.01 188.398C209.177 189.78 207.969 190.841 206.388 191.58C204.816 192.318 202.912 192.688 200.678 192.688H192.993V187.744H199.683C200.857 187.744 201.833 187.583 202.609 187.261C203.386 186.939 203.964 186.456 204.342 185.812C204.731 185.169 204.925 184.368 204.925 183.412C204.925 182.446 204.731 181.632 204.342 180.969C203.964 180.306 203.381 179.804 202.595 179.463C201.819 179.113 200.839 178.938 199.655 178.938H195.507V203H189.357ZM205.067 189.761L212.297 203H205.507L198.433 189.761H205.067ZM221.714 203.412C220.322 203.412 219.082 203.17 217.993 202.688C216.904 202.195 216.042 201.471 215.408 200.514C214.783 199.548 214.47 198.346 214.47 196.906C214.47 195.694 214.693 194.676 215.138 193.852C215.583 193.028 216.189 192.366 216.956 191.864C217.723 191.362 218.594 190.983 219.57 190.727C220.554 190.472 221.587 190.292 222.666 190.188C223.935 190.055 224.958 189.932 225.734 189.818C226.511 189.695 227.074 189.515 227.425 189.278C227.775 189.042 227.95 188.691 227.95 188.227V188.142C227.95 187.242 227.666 186.546 227.098 186.054C226.539 185.562 225.744 185.315 224.712 185.315C223.623 185.315 222.756 185.557 222.112 186.04C221.468 186.513 221.042 187.11 220.834 187.83L215.237 187.375C215.521 186.049 216.08 184.903 216.913 183.938C217.747 182.962 218.821 182.214 220.138 181.693C221.464 181.163 222.998 180.898 224.74 180.898C225.952 180.898 227.112 181.04 228.22 181.324C229.338 181.608 230.327 182.048 231.189 182.645C232.06 183.241 232.747 184.009 233.249 184.946C233.75 185.874 234.001 186.987 234.001 188.284V203H228.263V199.974H228.092C227.742 200.656 227.273 201.258 226.686 201.778C226.099 202.29 225.393 202.692 224.57 202.986C223.746 203.27 222.794 203.412 221.714 203.412ZM223.447 199.236C224.338 199.236 225.124 199.061 225.805 198.71C226.487 198.35 227.022 197.867 227.411 197.261C227.799 196.655 227.993 195.969 227.993 195.202V192.886C227.804 193.009 227.543 193.123 227.212 193.227C226.89 193.322 226.525 193.412 226.118 193.497C225.711 193.573 225.304 193.644 224.896 193.71C224.489 193.767 224.12 193.819 223.788 193.866C223.078 193.971 222.458 194.136 221.928 194.364C221.397 194.591 220.985 194.899 220.692 195.287C220.398 195.666 220.251 196.139 220.251 196.707C220.251 197.531 220.55 198.161 221.146 198.597C221.752 199.023 222.519 199.236 223.447 199.236ZM238.696 211.182V181.182H244.662V184.847H244.932C245.197 184.259 245.58 183.663 246.082 183.057C246.594 182.441 247.257 181.93 248.071 181.523C248.895 181.106 249.918 180.898 251.139 180.898C252.73 180.898 254.198 181.314 255.543 182.148C256.887 182.972 257.962 184.217 258.767 185.884C259.572 187.541 259.974 189.619 259.974 192.119C259.974 194.553 259.581 196.608 258.795 198.284C258.019 199.951 256.958 201.215 255.614 202.077C254.278 202.929 252.782 203.355 251.125 203.355C249.951 203.355 248.952 203.161 248.128 202.773C247.313 202.384 246.646 201.897 246.125 201.31C245.604 200.713 245.206 200.112 244.932 199.506H244.747V211.182H238.696ZM244.619 192.091C244.619 193.388 244.799 194.52 245.159 195.486C245.519 196.452 246.04 197.205 246.722 197.744C247.403 198.275 248.232 198.54 249.207 198.54C250.192 198.54 251.026 198.27 251.707 197.73C252.389 197.181 252.905 196.423 253.256 195.457C253.616 194.482 253.795 193.36 253.795 192.091C253.795 190.831 253.62 189.723 253.27 188.767C252.92 187.811 252.403 187.062 251.722 186.523C251.04 185.983 250.202 185.713 249.207 185.713C248.223 185.713 247.389 185.973 246.707 186.494C246.035 187.015 245.519 187.754 245.159 188.71C244.799 189.667 244.619 190.794 244.619 192.091ZM264.009 203V181.182H270.06V203H264.009ZM267.048 178.369C266.149 178.369 265.377 178.071 264.733 177.474C264.098 176.868 263.781 176.144 263.781 175.301C263.781 174.468 264.098 173.753 264.733 173.156C265.377 172.55 266.149 172.247 267.048 172.247C267.948 172.247 268.715 172.55 269.349 173.156C269.993 173.753 270.315 174.468 270.315 175.301C270.315 176.144 269.993 176.868 269.349 177.474C268.715 178.071 267.948 178.369 267.048 178.369ZM282.947 203.355C281.29 203.355 279.789 202.929 278.444 202.077C277.109 201.215 276.048 199.951 275.262 198.284C274.486 196.608 274.097 194.553 274.097 192.119C274.097 189.619 274.5 187.541 275.305 185.884C276.11 184.217 277.18 182.972 278.515 182.148C279.86 181.314 281.332 180.898 282.933 180.898C284.154 180.898 285.172 181.106 285.987 181.523C286.81 181.93 287.473 182.441 287.975 183.057C288.487 183.663 288.875 184.259 289.14 184.847H289.325V173.909H295.362V203H289.396V199.506H289.14C288.856 200.112 288.453 200.713 287.933 201.31C287.421 201.897 286.754 202.384 285.93 202.773C285.115 203.161 284.121 203.355 282.947 203.355ZM284.864 198.54C285.84 198.54 286.664 198.275 287.336 197.744C288.018 197.205 288.539 196.452 288.898 195.486C289.268 194.52 289.452 193.388 289.452 192.091C289.452 190.794 289.272 189.667 288.913 188.71C288.553 187.754 288.032 187.015 287.35 186.494C286.668 185.973 285.84 185.713 284.864 185.713C283.87 185.713 283.032 185.983 282.35 186.523C281.668 187.062 281.152 187.811 280.802 188.767C280.451 189.723 280.276 190.831 280.276 192.091C280.276 193.36 280.451 194.482 280.802 195.457C281.162 196.423 281.678 197.181 282.35 197.73C283.032 198.27 283.87 198.54 284.864 198.54ZM300.45 203V173.909H311.928C314.125 173.909 316 174.302 317.553 175.088C319.115 175.865 320.304 176.968 321.118 178.398C321.942 179.818 322.354 181.49 322.354 183.412C322.354 185.344 321.937 187.006 321.104 188.398C320.27 189.78 319.063 190.841 317.482 191.58C315.91 192.318 314.006 192.688 311.771 192.688H304.087V187.744H310.777C311.951 187.744 312.927 187.583 313.703 187.261C314.48 186.939 315.057 186.456 315.436 185.812C315.824 185.169 316.018 184.368 316.018 183.412C316.018 182.446 315.824 181.632 315.436 180.969C315.057 180.306 314.475 179.804 313.689 179.463C312.912 179.113 311.932 178.938 310.749 178.938H306.601V203H300.45ZM316.161 189.761L323.391 203H316.601L309.527 189.761H316.161ZM336.093 203.426C333.887 203.426 331.978 202.957 330.369 202.02C328.768 201.073 327.532 199.757 326.661 198.071C325.79 196.376 325.354 194.411 325.354 192.176C325.354 189.922 325.79 187.953 326.661 186.267C327.532 184.572 328.768 183.256 330.369 182.318C331.978 181.371 333.887 180.898 336.093 180.898C338.299 180.898 340.203 181.371 341.803 182.318C343.413 183.256 344.654 184.572 345.525 186.267C346.396 187.953 346.832 189.922 346.832 192.176C346.832 194.411 346.396 196.376 345.525 198.071C344.654 199.757 343.413 201.073 341.803 202.02C340.203 202.957 338.299 203.426 336.093 203.426ZM336.121 198.739C337.125 198.739 337.963 198.455 338.636 197.886C339.308 197.309 339.815 196.523 340.156 195.528C340.506 194.534 340.681 193.402 340.681 192.134C340.681 190.865 340.506 189.733 340.156 188.739C339.815 187.744 339.308 186.958 338.636 186.381C337.963 185.803 337.125 185.514 336.121 185.514C335.108 185.514 334.256 185.803 333.565 186.381C332.883 186.958 332.367 187.744 332.016 188.739C331.675 189.733 331.505 190.865 331.505 192.134C331.505 193.402 331.675 194.534 332.016 195.528C332.367 196.523 332.883 197.309 333.565 197.886C334.256 198.455 335.108 198.739 336.121 198.739ZM364.758 193.71V181.182H370.809V203H364.999V199.037H364.772C364.28 200.315 363.46 201.343 362.315 202.119C361.178 202.896 359.791 203.284 358.153 203.284C356.694 203.284 355.411 202.953 354.303 202.29C353.195 201.627 352.329 200.685 351.704 199.463C351.088 198.241 350.776 196.778 350.766 195.074V181.182H356.817V193.994C356.827 195.282 357.173 196.3 357.854 197.048C358.536 197.796 359.45 198.17 360.596 198.17C361.325 198.17 362.007 198.005 362.641 197.673C363.276 197.332 363.787 196.83 364.175 196.168C364.573 195.505 364.767 194.686 364.758 193.71ZM387.254 181.182V185.727H374.115V181.182H387.254ZM377.098 175.955H383.149V196.295C383.149 196.854 383.234 197.29 383.405 197.602C383.575 197.905 383.812 198.118 384.115 198.241C384.428 198.365 384.787 198.426 385.195 198.426C385.479 198.426 385.763 198.402 386.047 198.355C386.331 198.298 386.549 198.256 386.7 198.227L387.652 202.73C387.349 202.825 386.923 202.934 386.374 203.057C385.824 203.189 385.157 203.27 384.371 203.298C382.912 203.355 381.634 203.161 380.536 202.716C379.446 202.271 378.599 201.58 377.993 200.642C377.387 199.705 377.089 198.521 377.098 197.091V175.955ZM400.905 203.426C398.661 203.426 396.729 202.972 395.109 202.062C393.5 201.144 392.259 199.847 391.388 198.17C390.517 196.485 390.081 194.491 390.081 192.19C390.081 189.946 390.517 187.976 391.388 186.281C392.259 184.586 393.485 183.265 395.067 182.318C396.658 181.371 398.523 180.898 400.663 180.898C402.103 180.898 403.443 181.13 404.683 181.594C405.933 182.048 407.022 182.735 407.95 183.653C408.888 184.572 409.617 185.727 410.138 187.119C410.659 188.502 410.919 190.121 410.919 191.977V193.639H392.496V189.889H405.223C405.223 189.018 405.034 188.246 404.655 187.574C404.276 186.902 403.75 186.376 403.078 185.997C402.415 185.609 401.643 185.415 400.763 185.415C399.844 185.415 399.03 185.628 398.32 186.054C397.619 186.471 397.07 187.034 396.672 187.744C396.274 188.445 396.071 189.226 396.061 190.088V193.653C396.061 194.733 396.26 195.666 396.658 196.452C397.065 197.238 397.638 197.844 398.376 198.27C399.115 198.696 399.991 198.909 401.004 198.909C401.677 198.909 402.292 198.814 402.851 198.625C403.41 198.436 403.888 198.152 404.286 197.773C404.683 197.394 404.986 196.93 405.195 196.381L410.791 196.75C410.507 198.095 409.925 199.269 409.044 200.273C408.173 201.267 407.046 202.044 405.663 202.602C404.29 203.152 402.704 203.426 400.905 203.426Z" fill="white"/>
</g>
<g filter="url(#filter2_d_34_508)">
<path d="M98.4545 247H89.5824V220.818H98.6335C101.233 220.818 103.466 221.342 105.332 222.391C107.207 223.43 108.648 224.926 109.653 226.878C110.659 228.83 111.162 231.165 111.162 233.884C111.162 236.611 110.655 238.955 109.641 240.915C108.635 242.875 107.182 244.379 105.281 245.428C103.389 246.476 101.114 247 98.4545 247ZM94.3253 242.896H98.2244C100.048 242.896 101.57 242.564 102.788 241.899C104.007 241.226 104.923 240.224 105.537 238.895C106.151 237.557 106.457 235.886 106.457 233.884C106.457 231.881 106.151 230.219 105.537 228.898C104.923 227.568 104.016 226.575 102.814 225.919C101.621 225.254 100.138 224.922 98.3651 224.922H94.3253V242.896ZM121.114 247.396C119.87 247.396 118.749 247.175 117.752 246.732C116.763 246.28 115.979 245.615 115.4 244.737C114.829 243.859 114.543 242.777 114.543 241.49C114.543 240.382 114.748 239.466 115.157 238.741C115.566 238.017 116.124 237.438 116.832 237.003C117.539 236.568 118.336 236.24 119.222 236.018C120.117 235.788 121.042 235.622 121.996 235.52C123.147 235.401 124.08 235.294 124.796 235.2C125.512 235.098 126.032 234.945 126.356 234.74C126.688 234.527 126.854 234.199 126.854 233.756V233.679C126.854 232.716 126.569 231.97 125.998 231.442C125.427 230.913 124.604 230.649 123.531 230.649C122.397 230.649 121.498 230.896 120.833 231.391C120.177 231.885 119.734 232.469 119.504 233.142L115.183 232.528C115.523 231.335 116.086 230.338 116.87 229.537C117.654 228.727 118.613 228.122 119.746 227.722C120.88 227.312 122.133 227.108 123.505 227.108C124.451 227.108 125.393 227.219 126.33 227.44C127.268 227.662 128.124 228.028 128.9 228.54C129.675 229.043 130.298 229.729 130.766 230.598C131.244 231.467 131.482 232.554 131.482 233.858V247H127.033V244.303H126.88C126.599 244.848 126.202 245.359 125.691 245.837C125.188 246.305 124.553 246.685 123.786 246.974C123.028 247.256 122.137 247.396 121.114 247.396ZM122.316 243.996C123.245 243.996 124.05 243.812 124.732 243.446C125.414 243.071 125.938 242.577 126.305 241.963C126.68 241.349 126.867 240.68 126.867 239.956V237.642C126.722 237.761 126.475 237.872 126.126 237.974C125.785 238.077 125.401 238.166 124.975 238.243C124.549 238.32 124.127 238.388 123.71 238.447C123.292 238.507 122.93 238.558 122.623 238.601C121.933 238.695 121.315 238.848 120.769 239.061C120.224 239.274 119.793 239.572 119.478 239.956C119.163 240.331 119.005 240.817 119.005 241.413C119.005 242.266 119.316 242.909 119.938 243.344C120.56 243.778 121.353 243.996 122.316 243.996ZM145.941 227.364V230.943H134.653V227.364H145.941ZM137.44 222.659H142.067V241.094C142.067 241.716 142.161 242.193 142.349 242.526C142.545 242.849 142.8 243.071 143.116 243.19C143.431 243.31 143.781 243.369 144.164 243.369C144.454 243.369 144.718 243.348 144.957 243.305C145.204 243.263 145.391 243.224 145.519 243.19L146.299 246.808C146.052 246.893 145.698 246.987 145.238 247.089C144.786 247.192 144.232 247.251 143.576 247.268C142.417 247.303 141.373 247.128 140.444 246.744C139.515 246.352 138.778 245.747 138.232 244.929C137.695 244.111 137.431 243.088 137.44 241.861V222.659ZM155.462 247.396C154.218 247.396 153.097 247.175 152.1 246.732C151.111 246.28 150.327 245.615 149.748 244.737C149.176 243.859 148.891 242.777 148.891 241.49C148.891 240.382 149.096 239.466 149.505 238.741C149.914 238.017 150.472 237.438 151.179 237.003C151.887 236.568 152.684 236.24 153.57 236.018C154.465 235.788 155.39 235.622 156.344 235.52C157.495 235.401 158.428 235.294 159.144 235.2C159.86 235.098 160.38 234.945 160.703 234.74C161.036 234.527 161.202 234.199 161.202 233.756V233.679C161.202 232.716 160.917 231.97 160.346 231.442C159.775 230.913 158.952 230.649 157.878 230.649C156.745 230.649 155.846 230.896 155.181 231.391C154.525 231.885 154.081 232.469 153.851 233.142L149.53 232.528C149.871 231.335 150.434 230.338 151.218 229.537C152.002 228.727 152.961 228.122 154.094 227.722C155.228 227.312 156.48 227.108 157.853 227.108C158.799 227.108 159.74 227.219 160.678 227.44C161.615 227.662 162.472 228.028 163.248 228.54C164.023 229.043 164.645 229.729 165.114 230.598C165.591 231.467 165.83 232.554 165.83 233.858V247H161.381V244.303H161.228C160.946 244.848 160.55 245.359 160.039 245.837C159.536 246.305 158.901 246.685 158.134 246.974C157.375 247.256 156.485 247.396 155.462 247.396ZM156.664 243.996C157.593 243.996 158.398 243.812 159.08 243.446C159.762 243.071 160.286 242.577 160.652 241.963C161.027 241.349 161.215 240.68 161.215 239.956V237.642C161.07 237.761 160.823 237.872 160.473 237.974C160.132 238.077 159.749 238.166 159.323 238.243C158.897 238.32 158.475 238.388 158.057 238.447C157.64 238.507 157.277 238.558 156.971 238.601C156.28 238.695 155.662 238.848 155.117 239.061C154.571 239.274 154.141 239.572 153.826 239.956C153.51 240.331 153.353 240.817 153.353 241.413C153.353 242.266 153.664 242.909 154.286 243.344C154.908 243.778 155.701 243.996 156.664 243.996ZM170.688 247V220.818H175.316V230.611H175.507C175.746 230.134 176.083 229.626 176.517 229.089C176.952 228.544 177.54 228.08 178.282 227.696C179.023 227.304 179.969 227.108 181.12 227.108C182.637 227.108 184.005 227.496 185.223 228.271C186.451 229.038 187.422 230.176 188.138 231.685C188.863 233.185 189.225 235.026 189.225 237.207C189.225 239.364 188.871 241.196 188.164 242.705C187.456 244.213 186.493 245.364 185.275 246.156C184.056 246.949 182.675 247.345 181.132 247.345C180.007 247.345 179.074 247.158 178.333 246.783C177.591 246.408 176.995 245.956 176.543 245.428C176.1 244.891 175.755 244.384 175.507 243.906H175.239V247H170.688ZM175.226 237.182C175.226 238.452 175.405 239.564 175.763 240.518C176.13 241.473 176.654 242.219 177.336 242.756C178.026 243.284 178.861 243.548 179.841 243.548C180.864 243.548 181.721 243.276 182.411 242.73C183.101 242.176 183.621 241.422 183.971 240.467C184.328 239.504 184.507 238.409 184.507 237.182C184.507 235.963 184.333 234.881 183.983 233.935C183.634 232.989 183.114 232.247 182.424 231.71C181.733 231.173 180.873 230.905 179.841 230.905C178.853 230.905 178.013 231.165 177.323 231.685C176.632 232.205 176.108 232.933 175.75 233.871C175.401 234.808 175.226 235.912 175.226 237.182ZM198.81 247.396C197.565 247.396 196.445 247.175 195.447 246.732C194.459 246.28 193.675 245.615 193.095 244.737C192.524 243.859 192.239 242.777 192.239 241.49C192.239 240.382 192.443 239.466 192.852 238.741C193.261 238.017 193.82 237.438 194.527 237.003C195.234 236.568 196.031 236.24 196.918 236.018C197.813 235.788 198.737 235.622 199.692 235.52C200.842 235.401 201.776 235.294 202.491 235.2C203.207 235.098 203.727 234.945 204.051 234.74C204.384 234.527 204.55 234.199 204.55 233.756V233.679C204.55 232.716 204.264 231.97 203.693 231.442C203.122 230.913 202.3 230.649 201.226 230.649C200.092 230.649 199.193 230.896 198.528 231.391C197.872 231.885 197.429 232.469 197.199 233.142L192.878 232.528C193.219 231.335 193.781 230.338 194.565 229.537C195.349 228.727 196.308 228.122 197.442 227.722C198.575 227.312 199.828 227.108 201.2 227.108C202.146 227.108 203.088 227.219 204.026 227.44C204.963 227.662 205.82 228.028 206.595 228.54C207.371 229.043 207.993 229.729 208.462 230.598C208.939 231.467 209.178 232.554 209.178 233.858V247H204.729V244.303H204.575C204.294 244.848 203.898 245.359 203.386 245.837C202.884 246.305 202.249 246.685 201.482 246.974C200.723 247.256 199.832 247.396 198.81 247.396ZM200.011 243.996C200.94 243.996 201.746 243.812 202.428 243.446C203.109 243.071 203.634 242.577 204 241.963C204.375 241.349 204.562 240.68 204.562 239.956V237.642C204.418 237.761 204.17 237.872 203.821 237.974C203.48 238.077 203.097 238.166 202.67 238.243C202.244 238.32 201.822 238.388 201.405 238.447C200.987 238.507 200.625 238.558 200.318 238.601C199.628 238.695 199.01 238.848 198.464 239.061C197.919 239.274 197.489 239.572 197.173 239.956C196.858 240.331 196.7 240.817 196.7 241.413C196.7 242.266 197.011 242.909 197.634 243.344C198.256 243.778 199.048 243.996 200.011 243.996ZM229.351 232.554L225.132 233.014C225.013 232.588 224.804 232.188 224.506 231.812C224.216 231.438 223.824 231.135 223.33 230.905C222.835 230.675 222.23 230.56 221.514 230.56C220.551 230.56 219.741 230.768 219.085 231.186C218.438 231.604 218.118 232.145 218.126 232.81C218.118 233.381 218.327 233.845 218.753 234.203C219.188 234.561 219.903 234.855 220.901 235.085L224.25 235.801C226.108 236.202 227.489 236.837 228.392 237.706C229.304 238.575 229.764 239.713 229.773 241.119C229.764 242.355 229.402 243.446 228.686 244.392C227.979 245.33 226.994 246.062 225.733 246.591C224.472 247.119 223.023 247.384 221.386 247.384C218.983 247.384 217.048 246.881 215.582 245.875C214.116 244.861 213.243 243.45 212.962 241.643L217.474 241.209C217.679 242.095 218.114 242.764 218.778 243.216C219.443 243.668 220.308 243.893 221.374 243.893C222.473 243.893 223.355 243.668 224.02 243.216C224.693 242.764 225.03 242.206 225.03 241.541C225.03 240.979 224.813 240.514 224.378 240.148C223.952 239.781 223.287 239.5 222.384 239.304L219.034 238.601C217.151 238.209 215.757 237.548 214.854 236.619C213.95 235.682 213.503 234.497 213.511 233.065C213.503 231.855 213.831 230.807 214.496 229.92C215.169 229.026 216.102 228.335 217.295 227.849C218.497 227.355 219.882 227.108 221.45 227.108C223.751 227.108 225.563 227.598 226.884 228.578C228.213 229.558 229.036 230.884 229.351 232.554ZM242.282 247.384C240.313 247.384 238.613 246.974 237.181 246.156C235.758 245.33 234.663 244.162 233.896 242.653C233.129 241.136 232.745 239.351 232.745 237.297C232.745 235.277 233.129 233.504 233.896 231.979C234.671 230.445 235.754 229.251 237.143 228.399C238.532 227.538 240.164 227.108 242.039 227.108C243.249 227.108 244.391 227.304 245.465 227.696C246.548 228.08 247.502 228.676 248.329 229.486C249.164 230.295 249.82 231.327 250.298 232.58C250.775 233.824 251.013 235.307 251.013 237.028V238.447H234.918V235.328H246.577C246.569 234.442 246.377 233.653 246.002 232.963C245.627 232.264 245.103 231.714 244.43 231.314C243.765 230.913 242.989 230.713 242.103 230.713C241.157 230.713 240.326 230.943 239.61 231.403C238.894 231.855 238.336 232.452 237.935 233.193C237.543 233.926 237.343 234.732 237.335 235.609V238.332C237.335 239.474 237.543 240.455 237.961 241.273C238.379 242.082 238.962 242.705 239.712 243.139C240.462 243.565 241.34 243.778 242.346 243.778C243.019 243.778 243.629 243.685 244.174 243.497C244.719 243.301 245.192 243.016 245.593 242.641C245.994 242.266 246.296 241.801 246.501 241.247L250.822 241.733C250.549 242.875 250.029 243.872 249.262 244.724C248.504 245.568 247.532 246.224 246.347 246.693C245.163 247.153 243.808 247.384 242.282 247.384ZM268.806 220.818V247H264.063V220.818H268.806ZM273.737 247V227.364H278.161V230.7H278.391C278.8 229.575 279.477 228.697 280.423 228.067C281.369 227.428 282.499 227.108 283.811 227.108C285.141 227.108 286.261 227.432 287.173 228.08C288.094 228.719 288.741 229.592 289.116 230.7H289.321C289.756 229.609 290.489 228.74 291.52 228.092C292.56 227.436 293.791 227.108 295.214 227.108C297.021 227.108 298.496 227.679 299.638 228.821C300.78 229.963 301.351 231.629 301.351 233.82V247H296.71V234.536C296.71 233.317 296.386 232.426 295.739 231.864C295.091 231.293 294.298 231.007 293.361 231.007C292.244 231.007 291.371 231.357 290.74 232.055C290.118 232.746 289.807 233.645 289.807 234.753V247H285.268V234.344C285.268 233.33 284.962 232.52 284.348 231.915C283.743 231.31 282.95 231.007 281.97 231.007C281.305 231.007 280.7 231.178 280.155 231.518C279.609 231.851 279.175 232.324 278.851 232.938C278.527 233.543 278.365 234.25 278.365 235.06V247H273.737ZM306.046 254.364V227.364H310.597V230.611H310.865C311.104 230.134 311.441 229.626 311.875 229.089C312.31 228.544 312.898 228.08 313.64 227.696C314.381 227.304 315.327 227.108 316.478 227.108C317.995 227.108 319.363 227.496 320.581 228.271C321.809 229.038 322.78 230.176 323.496 231.685C324.221 233.185 324.583 235.026 324.583 237.207C324.583 239.364 324.229 241.196 323.522 242.705C322.814 244.213 321.851 245.364 320.632 246.156C319.414 246.949 318.033 247.345 316.49 247.345C315.365 247.345 314.432 247.158 313.691 246.783C312.949 246.408 312.353 245.956 311.901 245.428C311.458 244.891 311.113 244.384 310.865 243.906H310.674V254.364H306.046ZM310.584 237.182C310.584 238.452 310.763 239.564 311.121 240.518C311.488 241.473 312.012 242.219 312.694 242.756C313.384 243.284 314.219 243.548 315.199 243.548C316.222 243.548 317.078 243.276 317.769 242.73C318.459 242.176 318.979 241.422 319.328 240.467C319.686 239.504 319.865 238.409 319.865 237.182C319.865 235.963 319.691 234.881 319.341 233.935C318.992 232.989 318.472 232.247 317.782 231.71C317.091 231.173 316.23 230.905 315.199 230.905C314.211 230.905 313.371 231.165 312.681 231.685C311.99 232.205 311.466 232.933 311.108 233.871C310.759 234.808 310.584 235.912 310.584 237.182ZM337.111 247.384C335.194 247.384 333.532 246.962 332.125 246.118C330.719 245.274 329.628 244.094 328.853 242.577C328.086 241.06 327.702 239.287 327.702 237.259C327.702 235.23 328.086 233.453 328.853 231.928C329.628 230.402 330.719 229.217 332.125 228.374C333.532 227.53 335.194 227.108 337.111 227.108C339.029 227.108 340.691 227.53 342.097 228.374C343.503 229.217 344.59 230.402 345.357 231.928C346.132 233.453 346.52 235.23 346.52 237.259C346.52 239.287 346.132 241.06 345.357 242.577C344.59 244.094 343.503 245.274 342.097 246.118C340.691 246.962 339.029 247.384 337.111 247.384ZM337.137 243.676C338.176 243.676 339.046 243.391 339.745 242.82C340.444 242.24 340.963 241.464 341.304 240.493C341.654 239.521 341.828 238.439 341.828 237.246C341.828 236.044 341.654 234.957 341.304 233.986C340.963 233.006 340.444 232.226 339.745 231.646C339.046 231.067 338.176 230.777 337.137 230.777C336.071 230.777 335.185 231.067 334.478 231.646C333.779 232.226 333.255 233.006 332.905 233.986C332.564 234.957 332.394 236.044 332.394 237.246C332.394 238.439 332.564 239.521 332.905 240.493C333.255 241.464 333.779 242.24 334.478 242.82C335.185 243.391 336.071 243.676 337.137 243.676ZM350.448 247V227.364H354.935V230.636H355.14C355.498 229.503 356.112 228.629 356.981 228.016C357.859 227.393 358.86 227.082 359.985 227.082C360.241 227.082 360.526 227.095 360.842 227.121C361.165 227.138 361.434 227.168 361.647 227.21V231.467C361.451 231.399 361.14 231.339 360.714 231.288C360.296 231.229 359.891 231.199 359.499 231.199C358.656 231.199 357.897 231.382 357.224 231.749C356.559 232.107 356.035 232.605 355.651 233.244C355.268 233.884 355.076 234.621 355.076 235.456V247H350.448ZM375.582 227.364V230.943H364.293V227.364H375.582ZM367.08 222.659H371.708V241.094C371.708 241.716 371.802 242.193 371.989 242.526C372.185 242.849 372.441 243.071 372.756 243.19C373.072 243.31 373.421 243.369 373.805 243.369C374.094 243.369 374.359 243.348 374.597 243.305C374.844 243.263 375.032 243.224 375.16 243.19L375.94 246.808C375.692 246.893 375.339 246.987 374.879 247.089C374.427 247.192 373.873 247.251 373.217 247.268C372.058 247.303 371.013 247.128 370.085 246.744C369.156 246.352 368.418 245.747 367.873 244.929C367.336 244.111 367.072 243.088 367.08 241.861V222.659ZM387.934 247.384C385.966 247.384 384.265 246.974 382.833 246.156C381.41 245.33 380.315 244.162 379.548 242.653C378.781 241.136 378.397 239.351 378.397 237.297C378.397 235.277 378.781 233.504 379.548 231.979C380.324 230.445 381.406 229.251 382.795 228.399C384.184 227.538 385.816 227.108 387.691 227.108C388.902 227.108 390.044 227.304 391.118 227.696C392.2 228.08 393.154 228.676 393.981 229.486C394.816 230.295 395.473 231.327 395.95 232.58C396.427 233.824 396.666 235.307 396.666 237.028V238.447H380.571V235.328H392.23C392.221 234.442 392.029 233.653 391.654 232.963C391.279 232.264 390.755 231.714 390.082 231.314C389.417 230.913 388.642 230.713 387.755 230.713C386.809 230.713 385.978 230.943 385.262 231.403C384.547 231.855 383.988 232.452 383.588 233.193C383.196 233.926 382.995 234.732 382.987 235.609V238.332C382.987 239.474 383.196 240.455 383.613 241.273C384.031 242.082 384.615 242.705 385.365 243.139C386.115 243.565 386.993 243.778 387.998 243.778C388.672 243.778 389.281 243.685 389.826 243.497C390.372 243.301 390.845 243.016 391.245 242.641C391.646 242.266 391.949 241.801 392.153 241.247L396.474 241.733C396.201 242.875 395.681 243.872 394.914 244.724C394.156 245.568 393.184 246.224 392 246.693C390.815 247.153 389.46 247.384 387.934 247.384ZM400.581 247V227.364H405.068V230.636H405.273C405.631 229.503 406.244 228.629 407.114 228.016C407.991 227.393 408.993 227.082 410.118 227.082C410.374 227.082 410.659 227.095 410.974 227.121C411.298 227.138 411.567 227.168 411.78 227.21V231.467C411.584 231.399 411.273 231.339 410.847 231.288C410.429 231.229 410.024 231.199 409.632 231.199C408.788 231.199 408.03 231.382 407.357 231.749C406.692 232.107 406.168 232.605 405.784 233.244C405.401 233.884 405.209 234.621 405.209 235.456V247H400.581Z" fill="white"/>
</g>
<g filter="url(#filter3_d_34_508)">
<rect x="233.064" y="89.378" width="60.7527" height="21.5054" rx="5.37634" transform="rotate(-45 233.064 89.378)" fill="#FFCB47"/>
<mask id="mask0_34_508" style="mask-type:alpha" maskUnits="userSpaceOnUse" x="230" y="89" width="72" height="55">
<rect x="230.914" y="89.4301" width="70.9677" height="53.7634" fill="#FFA500"/>
</mask>
<g mask="url(#mask0_34_508)">
<rect x="233.064" y="89.378" width="21.5054" height="75.8064" rx="5.37634" transform="rotate(-45 233.064 89.378)" fill="#46DB5B"/>
</g>
<mask id="mask1_34_508" style="mask-type:alpha" maskUnits="userSpaceOnUse" x="194" y="43" width="68" height="83">
<path d="M243.28 68.4624H235.753H234.409L224.462 71.957V125.72H194.624V44H261.022V51.7957C261.022 53.3448 260.406 54.8304 259.311 55.9258L248.979 66.2578C247.567 67.6694 245.653 68.4624 243.657 68.4624H243.28Z" fill="#D9D9D9" stroke="black" stroke-width="0.537634"/>
</mask>
<g mask="url(#mask1_34_508)">
<rect x="200.269" y="46.9569" width="60.7527" height="21.5054" rx="5.37634" fill="#F15152"/>
<mask id="mask2_34_508" style="mask-type:alpha" maskUnits="userSpaceOnUse" x="162" y="45" width="86" height="87">
<rect x="199.249" y="45.8817" width="68.2654" height="52.6443" transform="rotate(45 199.249 45.8817)" fill="#FFA500"/>
</mask>
<g mask="url(#mask2_34_508)">
<rect x="200.269" y="46.9569" width="21.5054" height="75.8064" rx="5.37634" fill="#416788"/>
</g>
</g>
</g>
</g>
<defs>
<filter id="filter0_f_34_508" x="-74.3821" y="-18.1208" width="615.922" height="392.742" filterUnits="userSpaceOnUse" color-interpolation-filters="sRGB">
<feFlood flood-opacity="0" result="BackgroundImageFix"/>
<feBlend mode="normal" in="SourceGraphic" in2="BackgroundImageFix" result="shape"/>
<feGaussianBlur stdDeviation="2" result="effect1_foregroundBlur_34_508"/>
</filter>
<filter id="filter1_d_34_508" x="85.5284" y="167.247" width="332.391" height="50.9347" filterUnits="userSpaceOnUse" color-interpolation-filters="sRGB">
<feFlood flood-opacity="0" result="BackgroundImageFix"/>
<feColorMatrix in="SourceAlpha" type="matrix" values="0 0 0 0 0 0 0 0 0 0 0 0 0 0 0 0 0 0 127 0" result="hardAlpha"/>
<feOffset dx="1" dy="1"/>
<feGaussianBlur stdDeviation="3"/>
<feComposite in2="hardAlpha" operator="out"/>
<feColorMatrix type="matrix" values="0 0 0 0 0 0 0 0 0 0 0 0 0 0 0 0 0 0 0.25 0"/>
<feBlend mode="normal" in2="BackgroundImageFix" result="effect1_dropShadow_34_508"/>
<feBlend mode="normal" in="SourceGraphic" in2="effect1_dropShadow_34_508" result="shape"/>
</filter>
<filter id="filter2_d_34_508" x="84.5824" y="215.818" width="334.197" height="45.5455" filterUnits="userSpaceOnUse" color-interpolation-filters="sRGB">
<feFlood flood-opacity="0" result="BackgroundImageFix"/>
<feColorMatrix in="SourceAlpha" type="matrix" values="0 0 0 0 0 0 0 0 0 0 0 0 0 0 0 0 0 0 127 0" result="hardAlpha"/>
<feOffset dx="1" dy="1"/>
<feGaussianBlur stdDeviation="3"/>
<feComposite in2="hardAlpha" operator="out"/>
<feColorMatrix type="matrix" values="0 0 0 0 0 0 0 0 0 0 0 0 0 0 0 0 0 0 0.25 0"/>
<feBlend mode="normal" in2="BackgroundImageFix" result="effect1_dropShadow_34_508"/>
<feBlend mode="normal" in="SourceGraphic" in2="effect1_dropShadow_34_508" result="shape"/>
</filter>
<filter id="filter3_d_34_508" x="191.715" y="44" width="112.807" height="105.28" filterUnits="userSpaceOnUse" color-interpolation-filters="sRGB">
<feFlood flood-opacity="0" result="BackgroundImageFix"/>
<feColorMatrix in="SourceAlpha" type="matrix" values="0 0 0 0 0 0 0 0 0 0 0 0 0 0 0 0 0 0 127 0" result="hardAlpha"/>
<feOffset dy="2.64"/>
<feGaussianBlur stdDeviation="1.32"/>
<feComposite in2="hardAlpha" operator="out"/>
<feColorMatrix type="matrix" values="0 0 0 0 0 0 0 0 0 0 0 0 0 0 0 0 0 0 0.25 0"/>
<feBlend mode="normal" in2="BackgroundImageFix" result="effect1_dropShadow_34_508"/>
<feBlend mode="normal" in="SourceGraphic" in2="effect1_dropShadow_34_508" result="shape"/>
</filter>
<clipPath id="clip0_34_508">
<rect width="500" height="300" rx="50" fill="white"/>
</clipPath>
</defs>
</svg>
