<svg viewBox="0 0 201 201" fill="none" xmlns="http://www.w3.org/2000/svg">
<rect x="0.999512" width="33.3333" height="33.3334" rx="8.33333" fill="#416788"/>
<rect x="0.999023" y="66.6667" width="33.3333" height="83.3334" rx="8.33333" fill="#46DB5B"/>
<rect x="0.999023" y="166.667" width="33.3333" height="33.3334" rx="8.33333" fill="#46DB5B"/>
<rect x="50.999" y="-0.00012207" width="100" height="33.3334" rx="8.33333" fill="#416788"/>
<rect x="167.666" y="-0.00012207" width="33.3333" height="100" rx="8.33333" fill="#F15152"/>
<rect x="167.666" y="116.667" width="33.3333" height="33.3334" rx="8.33333" fill="#F15152"/>
<rect x="67.6665" y="166.667" width="133.333" height="33.3334" rx="8.33333" fill="#FFCB47"/>
<rect x="67.6665" y="66.6667" width="66.6667" height="66.6667" rx="8.33333" fill="#C4C4C4"/>
<path d="M4.33252 49.9999H125.999C139.806 49.9999 150.999 61.1928 150.999 74.9999V124.789C150.999 138.596 139.806 149.789 125.999 149.789H75.8271C62.0199 149.789 50.827 160.982 50.827 174.789V196.667" stroke="#333439" stroke-width="8.33333" stroke-linecap="round"/>
</svg>
