<svg id="Navigator" xmlns="http://www.w3.org/2000/svg" viewBox="0 0 167.55 167.55"><defs><style>.cls-1{fill:#46db5b;}.cls-2{fill:#ffcb47;}.cls-3{fill:#f15152;}.cls-4{fill:#416788;}.cls-5{fill:#c4c4c4;}.cls-6{fill:#333439;}</style></defs><path class="cls-1" d="M604.22,2535h22.84v-22.86a4.56,4.56,0,0,0-4.57-4.55H599.65v22.84A4.58,4.58,0,0,0,604.22,2535Z" transform="translate(-599.65 -2367.45)"/><path class="cls-2" d="M654.48,2512.14V2535H762.63a4.57,4.57,0,0,0,4.56-4.57v-22.84H659.05A4.56,4.56,0,0,0,654.48,2512.14Z" transform="translate(-599.65 -2367.45)"/><path class="cls-1" d="M627.06,2475.6v-48.75a4.58,4.58,0,0,0-4.57-4.57H599.65v57.89h22.84A4.57,4.57,0,0,0,627.06,2475.6Z" transform="translate(-599.65 -2367.45)"/><path class="cls-3" d="M744.34,2480.17h22.85v-57.89H744.34a4.57,4.57,0,0,0-4.56,4.57v48.75A4.56,4.56,0,0,0,744.34,2480.17Z" transform="translate(-599.65 -2367.45)"/><path class="cls-4" d="M627.06,2390.29v-22.84H604.22a4.58,4.58,0,0,0-4.57,4.57v22.85h22.84A4.58,4.58,0,0,0,627.06,2390.29Z" transform="translate(-599.65 -2367.45)"/><path class="cls-4" d="M659.05,2394.87h48.74a4.58,4.58,0,0,0,4.57-4.58v-22.84H654.48v22.84A4.58,4.58,0,0,0,659.05,2394.87Z" transform="translate(-599.65 -2367.45)"/><path class="cls-3" d="M744.34,2394.87h22.85V2372a4.57,4.57,0,0,0-4.56-4.57H739.78v22.84A4.58,4.58,0,0,0,744.34,2394.87Z" transform="translate(-599.65 -2367.45)"/><path class="cls-5" d="M707.79,2480.17a4.57,4.57,0,0,0,4.57-4.57v-48.75a4.58,4.58,0,0,0-4.57-4.57H659.05a4.58,4.58,0,0,0-4.57,4.57v48.75a4.57,4.57,0,0,0,4.57,4.57Z" transform="translate(-599.65 -2367.45)"/><path class="cls-6" d="M628.82,2422a1.83,1.83,0,0,0,2.74-2.05l-1.76-6.8h78a13.7,13.7,0,0,1,13.71,13.7v48.75a13.7,13.7,0,0,1-13.71,13.7H659.05a22.85,22.85,0,0,0-22.85,22.84V2535h9.14v-22.86a13.7,13.7,0,0,1,13.71-13.69h48.74a22.87,22.87,0,0,0,22.85-22.85v-48.75A22.86,22.86,0,0,0,707.79,2404h-78l1.77-6.87a1.54,1.54,0,0,0,.06-.43,1.82,1.82,0,0,0-2.81-1.54l-20,13.42Z" transform="translate(-599.65 -2367.45)"/></svg>