<svg viewBox="0 0 500 300" fill="none" xmlns="http://www.w3.org/2000/svg">
<g clip-path="url(#clip0_34_490)">
<rect width="500" height="300" rx="50" fill="#EEEEEE"/>
<g opacity="0.7" filter="url(#filter0_f_34_490)">
<path d="M394.5 315C431.658 325.492 512.5 331.5 512.5 331.5L529 -26.5L-22.5 -44L-63.5 199.5C-63.5 199.5 -27.6672 234.755 12 247.5C52.2274 260.425 93.896 252.714 135 262.5C184.874 274.374 202.643 295.878 253 305.5C299.854 314.453 348.593 302.038 394.5 315Z" fill="#416788"/>
<path d="M405.5 247C442.658 257.492 513 305 513 305V-28L-24 -42L-52.5 131.5C-52.5 131.5 -16.6672 166.755 23 179.5C63.2274 192.425 104.896 184.714 146 194.5C195.874 206.374 213.643 227.878 264 237.5C310.854 246.453 359.593 234.038 405.5 247Z" fill="#46DB5B"/>
<path d="M447 184.5C484.158 194.992 513 233 513 233L539 -22H-2.5L-11 69C-11 69 24.8328 104.255 64.5 117C104.727 129.925 146.396 122.214 187.5 132C237.374 143.874 255.143 165.378 305.5 175C352.354 183.953 401.093 171.538 447 184.5Z" fill="#FFCB47"/>
<path d="M456 115.5C493.158 125.992 522 164 522 164L535.5 -18.5L-2 -13.5V0C-2 0 33.8328 35.2545 73.5 48C113.727 60.9254 155.396 53.2137 196.5 63C246.374 74.8743 264.143 96.3781 314.5 106C361.354 114.953 410.093 102.538 456 115.5Z" fill="#F15152"/>
</g>
<g filter="url(#filter1_d_34_490)">
<path d="M90.5284 173.909H98.1136L106.125 193.455H106.466L114.477 173.909H122.062V203H116.097V184.065H115.855L108.327 202.858H104.264L96.7358 183.994H96.4943V203H90.5284V173.909ZM127.13 203V173.909H138.607C140.804 173.909 142.679 174.302 144.232 175.088C145.795 175.865 146.983 176.968 147.798 178.398C148.621 179.818 149.033 181.49 149.033 183.412C149.033 185.344 148.617 187.006 147.783 188.398C146.95 189.78 145.743 190.841 144.161 191.58C142.589 192.318 140.686 192.688 138.451 192.688H130.766V187.744H137.457C138.631 187.744 139.606 187.583 140.383 187.261C141.159 186.939 141.737 186.456 142.116 185.812C142.504 185.169 142.698 184.368 142.698 183.412C142.698 182.446 142.504 181.632 142.116 180.969C141.737 180.306 141.155 179.804 140.369 179.463C139.592 179.113 138.612 178.938 137.428 178.938H133.281V203H127.13ZM142.84 189.761L150.07 203H143.281L136.207 189.761H142.84ZM152.272 178.98V173.909H176.164V178.98H167.258V203H161.178V178.98H152.272ZM189.357 203V173.909H200.834C203.031 173.909 204.906 174.302 206.459 175.088C208.021 175.865 209.21 176.968 210.024 178.398C210.848 179.818 211.26 181.49 211.26 183.412C211.26 185.344 210.843 187.006 210.01 188.398C209.177 189.78 207.969 190.841 206.388 191.58C204.816 192.318 202.912 192.688 200.678 192.688H192.993V187.744H199.683C200.857 187.744 201.833 187.583 202.609 187.261C203.386 186.939 203.964 186.456 204.342 185.812C204.731 185.169 204.925 184.368 204.925 183.412C204.925 182.446 204.731 181.632 204.342 180.969C203.964 180.306 203.381 179.804 202.595 179.463C201.819 179.113 200.839 178.938 199.655 178.938H195.507V203H189.357ZM205.067 189.761L212.297 203H205.507L198.433 189.761H205.067ZM221.714 203.412C220.322 203.412 219.082 203.17 217.993 202.688C216.904 202.195 216.042 201.471 215.408 200.514C214.783 199.548 214.47 198.346 214.47 196.906C214.47 195.694 214.693 194.676 215.138 193.852C215.583 193.028 216.189 192.366 216.956 191.864C217.723 191.362 218.594 190.983 219.57 190.727C220.554 190.472 221.587 190.292 222.666 190.188C223.935 190.055 224.958 189.932 225.734 189.818C226.511 189.695 227.074 189.515 227.425 189.278C227.775 189.042 227.95 188.691 227.95 188.227V188.142C227.95 187.242 227.666 186.546 227.098 186.054C226.539 185.562 225.744 185.315 224.712 185.315C223.623 185.315 222.756 185.557 222.112 186.04C221.468 186.513 221.042 187.11 220.834 187.83L215.237 187.375C215.521 186.049 216.08 184.903 216.913 183.938C217.747 182.962 218.821 182.214 220.138 181.693C221.464 181.163 222.998 180.898 224.74 180.898C225.952 180.898 227.112 181.04 228.22 181.324C229.338 181.608 230.327 182.048 231.189 182.645C232.06 183.241 232.747 184.009 233.249 184.946C233.75 185.874 234.001 186.987 234.001 188.284V203H228.263V199.974H228.092C227.742 200.656 227.273 201.258 226.686 201.778C226.099 202.29 225.393 202.692 224.57 202.986C223.746 203.27 222.794 203.412 221.714 203.412ZM223.447 199.236C224.338 199.236 225.124 199.061 225.805 198.71C226.487 198.35 227.022 197.867 227.411 197.261C227.799 196.655 227.993 195.969 227.993 195.202V192.886C227.804 193.009 227.543 193.123 227.212 193.227C226.89 193.322 226.525 193.412 226.118 193.497C225.711 193.573 225.304 193.644 224.896 193.71C224.489 193.767 224.12 193.819 223.788 193.866C223.078 193.971 222.458 194.136 221.928 194.364C221.397 194.591 220.985 194.899 220.692 195.287C220.398 195.666 220.251 196.139 220.251 196.707C220.251 197.531 220.55 198.161 221.146 198.597C221.752 199.023 222.519 199.236 223.447 199.236ZM238.696 211.182V181.182H244.662V184.847H244.932C245.197 184.259 245.58 183.663 246.082 183.057C246.594 182.441 247.257 181.93 248.071 181.523C248.895 181.106 249.918 180.898 251.139 180.898C252.73 180.898 254.198 181.314 255.543 182.148C256.887 182.972 257.962 184.217 258.767 185.884C259.572 187.541 259.974 189.619 259.974 192.119C259.974 194.553 259.581 196.608 258.795 198.284C258.019 199.951 256.958 201.215 255.614 202.077C254.278 202.929 252.782 203.355 251.125 203.355C249.951 203.355 248.952 203.161 248.128 202.773C247.313 202.384 246.646 201.897 246.125 201.31C245.604 200.713 245.206 200.112 244.932 199.506H244.747V211.182H238.696ZM244.619 192.091C244.619 193.388 244.799 194.52 245.159 195.486C245.519 196.452 246.04 197.205 246.722 197.744C247.403 198.275 248.232 198.54 249.207 198.54C250.192 198.54 251.026 198.27 251.707 197.73C252.389 197.181 252.905 196.423 253.256 195.457C253.616 194.482 253.795 193.36 253.795 192.091C253.795 190.831 253.62 189.723 253.27 188.767C252.92 187.811 252.403 187.062 251.722 186.523C251.04 185.983 250.202 185.713 249.207 185.713C248.223 185.713 247.389 185.973 246.707 186.494C246.035 187.015 245.519 187.754 245.159 188.71C244.799 189.667 244.619 190.794 244.619 192.091ZM264.009 203V181.182H270.06V203H264.009ZM267.048 178.369C266.149 178.369 265.377 178.071 264.733 177.474C264.098 176.868 263.781 176.144 263.781 175.301C263.781 174.468 264.098 173.753 264.733 173.156C265.377 172.55 266.149 172.247 267.048 172.247C267.948 172.247 268.715 172.55 269.349 173.156C269.993 173.753 270.315 174.468 270.315 175.301C270.315 176.144 269.993 176.868 269.349 177.474C268.715 178.071 267.948 178.369 267.048 178.369ZM282.947 203.355C281.29 203.355 279.789 202.929 278.444 202.077C277.109 201.215 276.048 199.951 275.262 198.284C274.486 196.608 274.097 194.553 274.097 192.119C274.097 189.619 274.5 187.541 275.305 185.884C276.11 184.217 277.18 182.972 278.515 182.148C279.86 181.314 281.332 180.898 282.933 180.898C284.154 180.898 285.172 181.106 285.987 181.523C286.81 181.93 287.473 182.441 287.975 183.057C288.487 183.663 288.875 184.259 289.14 184.847H289.325V173.909H295.362V203H289.396V199.506H289.14C288.856 200.112 288.453 200.713 287.933 201.31C287.421 201.897 286.754 202.384 285.93 202.773C285.115 203.161 284.121 203.355 282.947 203.355ZM284.864 198.54C285.84 198.54 286.664 198.275 287.336 197.744C288.018 197.205 288.539 196.452 288.898 195.486C289.268 194.52 289.452 193.388 289.452 192.091C289.452 190.794 289.272 189.667 288.913 188.71C288.553 187.754 288.032 187.015 287.35 186.494C286.668 185.973 285.84 185.713 284.864 185.713C283.87 185.713 283.032 185.983 282.35 186.523C281.668 187.062 281.152 187.811 280.802 188.767C280.451 189.723 280.276 190.831 280.276 192.091C280.276 193.36 280.451 194.482 280.802 195.457C281.162 196.423 281.678 197.181 282.35 197.73C283.032 198.27 283.87 198.54 284.864 198.54ZM300.45 203V173.909H311.928C314.125 173.909 316 174.302 317.553 175.088C319.115 175.865 320.304 176.968 321.118 178.398C321.942 179.818 322.354 181.49 322.354 183.412C322.354 185.344 321.937 187.006 321.104 188.398C320.27 189.78 319.063 190.841 317.482 191.58C315.91 192.318 314.006 192.688 311.771 192.688H304.087V187.744H310.777C311.951 187.744 312.927 187.583 313.703 187.261C314.48 186.939 315.057 186.456 315.436 185.812C315.824 185.169 316.018 184.368 316.018 183.412C316.018 182.446 315.824 181.632 315.436 180.969C315.057 180.306 314.475 179.804 313.689 179.463C312.912 179.113 311.932 178.938 310.749 178.938H306.601V203H300.45ZM316.161 189.761L323.391 203H316.601L309.527 189.761H316.161ZM336.093 203.426C333.887 203.426 331.978 202.957 330.369 202.02C328.768 201.073 327.532 199.757 326.661 198.071C325.79 196.376 325.354 194.411 325.354 192.176C325.354 189.922 325.79 187.953 326.661 186.267C327.532 184.572 328.768 183.256 330.369 182.318C331.978 181.371 333.887 180.898 336.093 180.898C338.299 180.898 340.203 181.371 341.803 182.318C343.413 183.256 344.654 184.572 345.525 186.267C346.396 187.953 346.832 189.922 346.832 192.176C346.832 194.411 346.396 196.376 345.525 198.071C344.654 199.757 343.413 201.073 341.803 202.02C340.203 202.957 338.299 203.426 336.093 203.426ZM336.121 198.739C337.125 198.739 337.963 198.455 338.636 197.886C339.308 197.309 339.815 196.523 340.156 195.528C340.506 194.534 340.681 193.402 340.681 192.134C340.681 190.865 340.506 189.733 340.156 188.739C339.815 187.744 339.308 186.958 338.636 186.381C337.963 185.803 337.125 185.514 336.121 185.514C335.108 185.514 334.256 185.803 333.565 186.381C332.883 186.958 332.367 187.744 332.016 188.739C331.675 189.733 331.505 190.865 331.505 192.134C331.505 193.402 331.675 194.534 332.016 195.528C332.367 196.523 332.883 197.309 333.565 197.886C334.256 198.455 335.108 198.739 336.121 198.739ZM364.758 193.71V181.182H370.809V203H364.999V199.037H364.772C364.28 200.315 363.46 201.343 362.315 202.119C361.178 202.896 359.791 203.284 358.153 203.284C356.694 203.284 355.411 202.953 354.303 202.29C353.195 201.627 352.329 200.685 351.704 199.463C351.088 198.241 350.776 196.778 350.766 195.074V181.182H356.817V193.994C356.827 195.282 357.173 196.3 357.854 197.048C358.536 197.796 359.45 198.17 360.596 198.17C361.325 198.17 362.007 198.005 362.641 197.673C363.276 197.332 363.787 196.83 364.175 196.168C364.573 195.505 364.767 194.686 364.758 193.71ZM387.254 181.182V185.727H374.115V181.182H387.254ZM377.098 175.955H383.149V196.295C383.149 196.854 383.234 197.29 383.405 197.602C383.575 197.905 383.812 198.118 384.115 198.241C384.428 198.365 384.787 198.426 385.195 198.426C385.479 198.426 385.763 198.402 386.047 198.355C386.331 198.298 386.549 198.256 386.7 198.227L387.652 202.73C387.349 202.825 386.923 202.934 386.374 203.057C385.824 203.189 385.157 203.27 384.371 203.298C382.912 203.355 381.634 203.161 380.536 202.716C379.446 202.271 378.599 201.58 377.993 200.642C377.387 199.705 377.089 198.521 377.098 197.091V175.955ZM400.905 203.426C398.661 203.426 396.729 202.972 395.109 202.062C393.5 201.144 392.259 199.847 391.388 198.17C390.517 196.485 390.081 194.491 390.081 192.19C390.081 189.946 390.517 187.976 391.388 186.281C392.259 184.586 393.485 183.265 395.067 182.318C396.658 181.371 398.523 180.898 400.663 180.898C402.103 180.898 403.443 181.13 404.683 181.594C405.933 182.048 407.022 182.735 407.95 183.653C408.888 184.572 409.617 185.727 410.138 187.119C410.659 188.502 410.919 190.121 410.919 191.977V193.639H392.496V189.889H405.223C405.223 189.018 405.034 188.246 404.655 187.574C404.276 186.902 403.75 186.376 403.078 185.997C402.415 185.609 401.643 185.415 400.763 185.415C399.844 185.415 399.03 185.628 398.32 186.054C397.619 186.471 397.07 187.034 396.672 187.744C396.274 188.445 396.071 189.226 396.061 190.088V193.653C396.061 194.733 396.26 195.666 396.658 196.452C397.065 197.238 397.638 197.844 398.376 198.27C399.115 198.696 399.991 198.909 401.004 198.909C401.677 198.909 402.292 198.814 402.851 198.625C403.41 198.436 403.888 198.152 404.286 197.773C404.683 197.394 404.986 196.93 405.195 196.381L410.791 196.75C410.507 198.095 409.925 199.269 409.044 200.273C408.173 201.267 407.046 202.044 405.663 202.602C404.29 203.152 402.704 203.426 400.905 203.426Z" fill="white"/>
</g>
<g filter="url(#filter2_d_34_490)">
<path d="M136.092 247L128.703 220.818H133.804L138.521 240.058H138.764L143.801 220.818H148.442L153.491 240.071H153.722L158.439 220.818H163.54L156.151 247H151.472L146.23 228.629H146.026L140.771 247H136.092ZM173.313 247.384C171.344 247.384 169.644 246.974 168.212 246.156C166.789 245.33 165.694 244.162 164.927 242.653C164.16 241.136 163.776 239.351 163.776 237.297C163.776 235.277 164.16 233.504 164.927 231.979C165.702 230.445 166.785 229.251 168.174 228.399C169.563 227.538 171.195 227.108 173.07 227.108C174.281 227.108 175.423 227.304 176.496 227.696C177.579 228.08 178.533 228.676 179.36 229.486C180.195 230.295 180.852 231.327 181.329 232.58C181.806 233.824 182.045 235.307 182.045 237.028V238.447H165.95V235.328H177.609C177.6 234.442 177.408 233.653 177.033 232.963C176.658 232.264 176.134 231.714 175.461 231.314C174.796 230.913 174.021 230.713 173.134 230.713C172.188 230.713 171.357 230.943 170.641 231.403C169.925 231.855 169.367 232.452 168.967 233.193C168.575 233.926 168.374 234.732 168.366 235.609V238.332C168.366 239.474 168.575 240.455 168.992 241.273C169.41 242.082 169.994 242.705 170.744 243.139C171.494 243.565 172.371 243.778 173.377 243.778C174.05 243.778 174.66 243.685 175.205 243.497C175.751 243.301 176.224 243.016 176.624 242.641C177.025 242.266 177.327 241.801 177.532 241.247L181.853 241.733C181.58 242.875 181.06 243.872 180.293 244.724C179.535 245.568 178.563 246.224 177.379 246.693C176.194 247.153 174.839 247.384 173.313 247.384ZM186.164 247V220.818H190.792V230.611H190.984C191.223 230.134 191.559 229.626 191.994 229.089C192.429 228.544 193.017 228.08 193.758 227.696C194.5 227.304 195.446 227.108 196.596 227.108C198.113 227.108 199.481 227.496 200.7 228.271C201.927 229.038 202.899 230.176 203.615 231.685C204.339 233.185 204.701 235.026 204.701 237.207C204.701 239.364 204.348 241.196 203.64 242.705C202.933 244.213 201.97 245.364 200.751 246.156C199.532 246.949 198.152 247.345 196.609 247.345C195.484 247.345 194.551 247.158 193.809 246.783C193.068 246.408 192.471 245.956 192.02 245.428C191.576 244.891 191.231 244.384 190.984 243.906H190.716V247H186.164ZM190.703 237.182C190.703 238.452 190.882 239.564 191.24 240.518C191.606 241.473 192.13 242.219 192.812 242.756C193.502 243.284 194.338 243.548 195.318 243.548C196.341 243.548 197.197 243.276 197.887 242.73C198.578 242.176 199.098 241.422 199.447 240.467C199.805 239.504 199.984 238.409 199.984 237.182C199.984 235.963 199.809 234.881 199.46 233.935C199.11 232.989 198.591 232.247 197.9 231.71C197.21 231.173 196.349 230.905 195.318 230.905C194.329 230.905 193.49 231.165 192.799 231.685C192.109 232.205 191.585 232.933 191.227 233.871C190.877 234.808 190.703 235.912 190.703 237.182ZM224.156 232.554L219.937 233.014C219.817 232.588 219.609 232.188 219.31 231.812C219.021 231.438 218.629 231.135 218.134 230.905C217.64 230.675 217.035 230.56 216.319 230.56C215.356 230.56 214.546 230.768 213.89 231.186C213.242 231.604 212.923 232.145 212.931 232.81C212.923 233.381 213.131 233.845 213.558 234.203C213.992 234.561 214.708 234.855 215.705 235.085L219.055 235.801C220.913 236.202 222.293 236.837 223.197 237.706C224.109 238.575 224.569 239.713 224.577 241.119C224.569 242.355 224.207 243.446 223.491 244.392C222.783 245.33 221.799 246.062 220.538 246.591C219.276 247.119 217.827 247.384 216.191 247.384C213.788 247.384 211.853 246.881 210.387 245.875C208.921 244.861 208.048 243.45 207.766 241.643L212.279 241.209C212.484 242.095 212.918 242.764 213.583 243.216C214.248 243.668 215.113 243.893 216.178 243.893C217.278 243.893 218.16 243.668 218.825 243.216C219.498 242.764 219.835 242.206 219.835 241.541C219.835 240.979 219.617 240.514 219.183 240.148C218.756 239.781 218.092 239.5 217.188 239.304L213.839 238.601C211.955 238.209 210.562 237.548 209.658 236.619C208.755 235.682 208.308 234.497 208.316 233.065C208.308 231.855 208.636 230.807 209.3 229.92C209.974 229.026 210.907 228.335 212.1 227.849C213.302 227.355 214.687 227.108 216.255 227.108C218.556 227.108 220.367 227.598 221.688 228.578C223.018 229.558 223.84 230.884 224.156 232.554ZM228.393 247V227.364H233.021V247H228.393ZM230.72 224.577C229.987 224.577 229.357 224.334 228.828 223.848C228.3 223.354 228.036 222.761 228.036 222.071C228.036 221.372 228.3 220.78 228.828 220.294C229.357 219.8 229.987 219.553 230.72 219.553C231.462 219.553 232.092 219.8 232.612 220.294C233.141 220.78 233.405 221.372 233.405 222.071C233.405 222.761 233.141 223.354 232.612 223.848C232.092 224.334 231.462 224.577 230.72 224.577ZM247.586 227.364V230.943H236.297V227.364H247.586ZM239.084 222.659H243.712V241.094C243.712 241.716 243.806 242.193 243.993 242.526C244.189 242.849 244.445 243.071 244.76 243.19C245.076 243.31 245.425 243.369 245.809 243.369C246.098 243.369 246.363 243.348 246.601 243.305C246.848 243.263 247.036 243.224 247.164 243.19L247.944 246.808C247.696 246.893 247.343 246.987 246.882 247.089C246.431 247.192 245.877 247.251 245.221 247.268C244.061 247.303 243.017 247.128 242.088 246.744C241.159 246.352 240.422 245.747 239.877 244.929C239.34 244.111 239.076 243.088 239.084 241.861V222.659ZM259.938 247.384C257.969 247.384 256.269 246.974 254.837 246.156C253.414 245.33 252.319 244.162 251.552 242.653C250.785 241.136 250.401 239.351 250.401 237.297C250.401 235.277 250.785 233.504 251.552 231.979C252.327 230.445 253.41 229.251 254.799 228.399C256.188 227.538 257.82 227.108 259.695 227.108C260.906 227.108 262.048 227.304 263.121 227.696C264.204 228.08 265.158 228.676 265.985 229.486C266.82 230.295 267.477 231.327 267.954 232.58C268.431 233.824 268.67 235.307 268.67 237.028V238.447H252.575V235.328H264.234C264.225 234.442 264.033 233.653 263.658 232.963C263.283 232.264 262.759 231.714 262.086 231.314C261.421 230.913 260.646 230.713 259.759 230.713C258.813 230.713 257.982 230.943 257.266 231.403C256.55 231.855 255.992 232.452 255.592 233.193C255.2 233.926 254.999 234.732 254.991 235.609V238.332C254.991 239.474 255.2 240.455 255.617 241.273C256.035 242.082 256.619 242.705 257.369 243.139C258.119 243.565 258.996 243.778 260.002 243.778C260.675 243.778 261.285 243.685 261.83 243.497C262.376 243.301 262.849 243.016 263.249 242.641C263.65 242.266 263.952 241.801 264.157 241.247L268.478 241.733C268.205 242.875 267.685 243.872 266.918 244.724C266.16 245.568 265.188 246.224 264.004 246.693C262.819 247.153 261.464 247.384 259.938 247.384ZM304.13 229.652H299.348C299.212 228.868 298.961 228.173 298.594 227.568C298.228 226.955 297.772 226.435 297.226 226.009C296.681 225.582 296.059 225.263 295.36 225.05C294.669 224.828 293.924 224.717 293.123 224.717C291.699 224.717 290.438 225.075 289.338 225.791C288.239 226.499 287.378 227.538 286.756 228.911C286.134 230.274 285.823 231.94 285.823 233.909C285.823 235.912 286.134 237.599 286.756 238.972C287.387 240.335 288.248 241.366 289.338 242.065C290.438 242.756 291.695 243.101 293.11 243.101C293.894 243.101 294.627 242.999 295.309 242.794C295.999 242.581 296.617 242.27 297.162 241.861C297.716 241.452 298.181 240.949 298.556 240.352C298.939 239.756 299.203 239.074 299.348 238.307L304.13 238.332C303.951 239.577 303.563 240.744 302.966 241.835C302.378 242.926 301.607 243.889 300.652 244.724C299.698 245.551 298.581 246.199 297.303 246.668C296.025 247.128 294.605 247.358 293.046 247.358C290.745 247.358 288.691 246.825 286.884 245.76C285.077 244.695 283.654 243.156 282.614 241.145C281.574 239.134 281.054 236.722 281.054 233.909C281.054 231.088 281.578 228.676 282.627 226.673C283.675 224.662 285.103 223.124 286.909 222.058C288.716 220.993 290.762 220.46 293.046 220.46C294.503 220.46 295.858 220.665 297.111 221.074C298.364 221.483 299.48 222.084 300.461 222.876C301.441 223.661 302.246 224.624 302.877 225.766C303.516 226.899 303.934 228.195 304.13 229.652ZM316.834 247.384C314.916 247.384 313.254 246.962 311.848 246.118C310.442 245.274 309.351 244.094 308.575 242.577C307.808 241.06 307.425 239.287 307.425 237.259C307.425 235.23 307.808 233.453 308.575 231.928C309.351 230.402 310.442 229.217 311.848 228.374C313.254 227.53 314.916 227.108 316.834 227.108C318.751 227.108 320.413 227.53 321.82 228.374C323.226 229.217 324.313 230.402 325.08 231.928C325.855 233.453 326.243 235.23 326.243 237.259C326.243 239.287 325.855 241.06 325.08 242.577C324.313 244.094 323.226 245.274 321.82 246.118C320.413 246.962 318.751 247.384 316.834 247.384ZM316.859 243.676C317.899 243.676 318.768 243.391 319.467 242.82C320.166 242.24 320.686 241.464 321.027 240.493C321.376 239.521 321.551 238.439 321.551 237.246C321.551 236.044 321.376 234.957 321.027 233.986C320.686 233.006 320.166 232.226 319.467 231.646C318.768 231.067 317.899 230.777 316.859 230.777C315.794 230.777 314.908 231.067 314.2 231.646C313.501 232.226 312.977 233.006 312.628 233.986C312.287 234.957 312.116 236.044 312.116 237.246C312.116 238.439 312.287 239.521 312.628 240.493C312.977 241.464 313.501 242.24 314.2 242.82C314.908 243.391 315.794 243.676 316.859 243.676ZM337.458 247.345C335.915 247.345 334.534 246.949 333.316 246.156C332.097 245.364 331.134 244.213 330.426 242.705C329.719 241.196 329.365 239.364 329.365 237.207C329.365 235.026 329.723 233.185 330.439 231.685C331.164 230.176 332.14 229.038 333.367 228.271C334.594 227.496 335.962 227.108 337.471 227.108C338.621 227.108 339.567 227.304 340.309 227.696C341.05 228.08 341.638 228.544 342.073 229.089C342.507 229.626 342.844 230.134 343.083 230.611H343.275V220.818H347.915V247H343.364V243.906H343.083C342.844 244.384 342.499 244.891 342.047 245.428C341.596 245.956 340.999 246.408 340.257 246.783C339.516 247.158 338.583 247.345 337.458 247.345ZM338.749 243.548C339.729 243.548 340.564 243.284 341.255 242.756C341.945 242.219 342.469 241.473 342.827 240.518C343.185 239.564 343.364 238.452 343.364 237.182C343.364 235.912 343.185 234.808 342.827 233.871C342.478 232.933 341.958 232.205 341.267 231.685C340.586 231.165 339.746 230.905 338.749 230.905C337.718 230.905 336.857 231.173 336.167 231.71C335.476 232.247 334.956 232.989 334.607 233.935C334.257 234.881 334.083 235.963 334.083 237.182C334.083 238.409 334.257 239.504 334.607 240.467C334.965 241.422 335.489 242.176 336.179 242.73C336.878 243.276 337.735 243.548 338.749 243.548ZM361.54 247.384C359.571 247.384 357.871 246.974 356.439 246.156C355.016 245.33 353.92 244.162 353.153 242.653C352.386 241.136 352.003 239.351 352.003 237.297C352.003 235.277 352.386 233.504 353.153 231.979C353.929 230.445 355.011 229.251 356.401 228.399C357.79 227.538 359.422 227.108 361.297 227.108C362.507 227.108 363.649 227.304 364.723 227.696C365.805 228.08 366.76 228.676 367.587 229.486C368.422 230.295 369.078 231.327 369.555 232.58C370.033 233.824 370.271 235.307 370.271 237.028V238.447H354.176V235.328H365.835C365.827 234.442 365.635 233.653 365.26 232.963C364.885 232.264 364.361 231.714 363.688 231.314C363.023 230.913 362.247 230.713 361.361 230.713C360.415 230.713 359.584 230.943 358.868 231.403C358.152 231.855 357.594 232.452 357.193 233.193C356.801 233.926 356.601 234.732 356.592 235.609V238.332C356.592 239.474 356.801 240.455 357.219 241.273C357.636 242.082 358.22 242.705 358.97 243.139C359.72 243.565 360.598 243.778 361.604 243.778C362.277 243.778 362.886 243.685 363.432 243.497C363.977 243.301 364.45 243.016 364.851 242.641C365.251 242.266 365.554 241.801 365.759 241.247L370.08 241.733C369.807 242.875 369.287 243.872 368.52 244.724C367.761 245.568 366.79 246.224 365.605 246.693C364.42 247.153 363.065 247.384 361.54 247.384Z" fill="white"/>
</g>
<g filter="url(#filter3_d_34_490)">
<rect x="233.064" y="89.378" width="60.7527" height="21.5054" rx="5.37634" transform="rotate(-45 233.064 89.378)" fill="#FFCB47"/>
<mask id="mask0_34_490" style="mask-type:alpha" maskUnits="userSpaceOnUse" x="230" y="89" width="72" height="55">
<rect x="230.914" y="89.4301" width="70.9677" height="53.7634" fill="#FFA500"/>
</mask>
<g mask="url(#mask0_34_490)">
<rect x="233.064" y="89.378" width="21.5054" height="75.8064" rx="5.37634" transform="rotate(-45 233.064 89.378)" fill="#46DB5B"/>
</g>
<mask id="mask1_34_490" style="mask-type:alpha" maskUnits="userSpaceOnUse" x="194" y="43" width="68" height="83">
<path d="M243.28 68.4624H235.753H234.409L224.462 71.957V125.72H194.624V44H261.022V51.7957C261.022 53.3448 260.406 54.8304 259.311 55.9258L248.979 66.2578C247.567 67.6694 245.653 68.4624 243.657 68.4624H243.28Z" fill="#D9D9D9" stroke="black" stroke-width="0.537634"/>
</mask>
<g mask="url(#mask1_34_490)">
<rect x="200.269" y="46.9569" width="60.7527" height="21.5054" rx="5.37634" fill="#F15152"/>
<mask id="mask2_34_490" style="mask-type:alpha" maskUnits="userSpaceOnUse" x="162" y="45" width="86" height="87">
<rect x="199.249" y="45.8817" width="68.2654" height="52.6443" transform="rotate(45 199.249 45.8817)" fill="#FFA500"/>
</mask>
<g mask="url(#mask2_34_490)">
<rect x="200.269" y="46.9569" width="21.5054" height="75.8064" rx="5.37634" fill="#416788"/>
</g>
</g>
</g>
</g>
<defs>
<filter id="filter0_f_34_490" x="-67.5" y="-48" width="610.5" height="384" filterUnits="userSpaceOnUse" color-interpolation-filters="sRGB">
<feFlood flood-opacity="0" result="BackgroundImageFix"/>
<feBlend mode="normal" in="SourceGraphic" in2="BackgroundImageFix" result="shape"/>
<feGaussianBlur stdDeviation="2" result="effect1_foregroundBlur_34_490"/>
</filter>
<filter id="filter1_d_34_490" x="85.5284" y="167.247" width="332.391" height="50.9347" filterUnits="userSpaceOnUse" color-interpolation-filters="sRGB">
<feFlood flood-opacity="0" result="BackgroundImageFix"/>
<feColorMatrix in="SourceAlpha" type="matrix" values="0 0 0 0 0 0 0 0 0 0 0 0 0 0 0 0 0 0 127 0" result="hardAlpha"/>
<feOffset dx="1" dy="1"/>
<feGaussianBlur stdDeviation="3"/>
<feComposite in2="hardAlpha" operator="out"/>
<feColorMatrix type="matrix" values="0 0 0 0 0 0 0 0 0 0 0 0 0 0 0 0 0 0 0.25 0"/>
<feBlend mode="normal" in2="BackgroundImageFix" result="effect1_dropShadow_34_490"/>
<feBlend mode="normal" in="SourceGraphic" in2="effect1_dropShadow_34_490" result="shape"/>
</filter>
<filter id="filter2_d_34_490" x="123.703" y="214.553" width="253.568" height="39.831" filterUnits="userSpaceOnUse" color-interpolation-filters="sRGB">
<feFlood flood-opacity="0" result="BackgroundImageFix"/>
<feColorMatrix in="SourceAlpha" type="matrix" values="0 0 0 0 0 0 0 0 0 0 0 0 0 0 0 0 0 0 127 0" result="hardAlpha"/>
<feOffset dx="1" dy="1"/>
<feGaussianBlur stdDeviation="3"/>
<feComposite in2="hardAlpha" operator="out"/>
<feColorMatrix type="matrix" values="0 0 0 0 0 0 0 0 0 0 0 0 0 0 0 0 0 0 0.25 0"/>
<feBlend mode="normal" in2="BackgroundImageFix" result="effect1_dropShadow_34_490"/>
<feBlend mode="normal" in="SourceGraphic" in2="effect1_dropShadow_34_490" result="shape"/>
</filter>
<filter id="filter3_d_34_490" x="191.715" y="44" width="112.807" height="105.28" filterUnits="userSpaceOnUse" color-interpolation-filters="sRGB">
<feFlood flood-opacity="0" result="BackgroundImageFix"/>
<feColorMatrix in="SourceAlpha" type="matrix" values="0 0 0 0 0 0 0 0 0 0 0 0 0 0 0 0 0 0 127 0" result="hardAlpha"/>
<feOffset dy="2.64"/>
<feGaussianBlur stdDeviation="1.32"/>
<feComposite in2="hardAlpha" operator="out"/>
<feColorMatrix type="matrix" values="0 0 0 0 0 0 0 0 0 0 0 0 0 0 0 0 0 0 0.25 0"/>
<feBlend mode="normal" in2="BackgroundImageFix" result="effect1_dropShadow_34_490"/>
<feBlend mode="normal" in="SourceGraphic" in2="effect1_dropShadow_34_490" result="shape"/>
</filter>
<clipPath id="clip0_34_490">
<rect width="500" height="300" rx="50" fill="white"/>
</clipPath>
</defs>
</svg>
