<svg viewBox="0 0 261 200" fill="none" xmlns="http://www.w3.org/2000/svg">
    <path d="M72.2069 99.3643C67.8828 95.1296 67.777 89.5295 72.1328 85.1738L144.174 13.1328C148.453 8.85313 154.189 8.82318 158.513 13.0579L174.369 28.5851C178.693 32.8198 178.722 38.496 174.443 42.7757L125.227 91.9917L196.575 161.864C200.9 166.099 200.929 171.775 196.65 176.055L180.957 191.747C176.678 196.026 170.942 196.056 166.618 191.822L72.2069 99.3643Z" fill="#46DB5B" />
    <path d="M174.443 42.7756L125.227 91.9917L68.9147 92.286C68.9006 89.8215 69.9633 87.3433 72.1328 85.1737L144.174 13.1328C148.453 8.85307 154.189 8.82313 158.513 13.0578L174.369 28.585C178.693 32.8197 178.723 38.4959 174.443 42.7756Z" fill="#FFCB47" />
    <path d="M0 15.0873C0 9.0349 3.92726 5 10.0873 5H111.969C118.021 5 122.056 10.548 122.056 15.0873C122.056 19.6265 121.551 19.6265 119.03 22.1483L96.8376 44.3403C94.3158 46.8621 93.3071 47.3665 89.7766 47.3665L42.3665 47.3665V147.23C42.3665 153.283 38.3316 157.318 32.2792 157.318L10.0873 157.318C4.0349 157.318 0 153.283 0 147.23V15.0873Z" fill="#416788" />
    <path d="M89.7767 47.3665L42.3666 47.3665L2.75391 7.75377C4.50488 6.00102 7.01918 5 10.0874 5H111.969C118.021 5 122.056 10.548 122.056 15.0873C122.056 19.6265 121.552 19.6265 119.03 22.1483L96.8378 44.3403C94.316 46.8621 93.3072 47.3665 89.7767 47.3665Z" fill="#F15152" />
</svg>