<svg viewBox="0 0 500 300" fill="none" xmlns="http://www.w3.org/2000/svg">
<g clip-path="url(#clip0_34_354)">
<rect width="500" height="300" rx="50" fill="white"/>
<g opacity="0.7" filter="url(#filter0_f_34_354)">
<path d="M108 315.5C70.8417 325.992 -10 332 -10 332L-26.5 -26L525 -43.5L566 200C566 200 530.167 235.255 490.5 248C450.273 260.925 408.604 253.214 367.5 263C317.626 274.874 299.857 296.378 249.5 306C202.646 314.953 153.907 302.538 108 315.5Z" fill="#416788"/>
<path d="M97 247.5C59.8417 257.992 -10.5 305.5 -10.5 305.5V-27.5L526.5 -41.5L555 132C555 132 519.167 167.255 479.5 180C439.273 192.925 397.604 185.214 356.5 195C306.626 206.874 288.857 228.378 238.5 238C191.646 246.953 142.907 234.538 97 247.5Z" fill="#46DB5B"/>
<path d="M55.5 185C18.3417 195.492 -10.5 233.5 -10.5 233.5L-36.5 -21.5H505L513.5 69.5C513.5 69.5 477.667 104.755 438 117.5C397.773 130.425 356.104 122.714 315 132.5C265.126 144.374 247.357 165.878 197 175.5C150.146 184.453 101.407 172.038 55.5 185Z" fill="#FFCB47"/>
<path d="M46.5 116C9.34171 126.492 -19.5 164.5 -19.5 164.5L-33 -18L504.5 -13V0.5C504.5 0.5 468.667 35.7545 429 48.5C388.773 61.4254 347.104 53.7137 306 63.5C256.126 75.3743 238.357 96.8781 188 106.5C141.146 115.453 92.4067 103.038 46.5 116Z" fill="#F15152"/>
</g>
<g filter="url(#filter1_d_34_354)">
<path d="M90.5284 173.909H98.1136L106.125 193.455H106.466L114.477 173.909H122.062V203H116.097V184.065H115.855L108.327 202.858H104.264L96.7358 183.994H96.4943V203H90.5284V173.909ZM127.13 203V173.909H138.607C140.804 173.909 142.679 174.302 144.232 175.088C145.795 175.865 146.983 176.968 147.798 178.398C148.621 179.818 149.033 181.49 149.033 183.412C149.033 185.344 148.617 187.006 147.783 188.398C146.95 189.78 145.743 190.841 144.161 191.58C142.589 192.318 140.686 192.688 138.451 192.688H130.766V187.744H137.457C138.631 187.744 139.606 187.583 140.383 187.261C141.159 186.939 141.737 186.456 142.116 185.812C142.504 185.169 142.698 184.368 142.698 183.412C142.698 182.446 142.504 181.632 142.116 180.969C141.737 180.306 141.155 179.804 140.369 179.463C139.592 179.113 138.612 178.938 137.428 178.938H133.281V203H127.13ZM142.84 189.761L150.07 203H143.281L136.207 189.761H142.84ZM152.272 178.98V173.909H176.164V178.98H167.258V203H161.178V178.98H152.272ZM189.357 203V173.909H200.834C203.031 173.909 204.906 174.302 206.459 175.088C208.021 175.865 209.21 176.968 210.024 178.398C210.848 179.818 211.26 181.49 211.26 183.412C211.26 185.344 210.843 187.006 210.01 188.398C209.177 189.78 207.969 190.841 206.388 191.58C204.816 192.318 202.912 192.688 200.678 192.688H192.993V187.744H199.683C200.857 187.744 201.833 187.583 202.609 187.261C203.386 186.939 203.964 186.456 204.342 185.812C204.731 185.169 204.925 184.368 204.925 183.412C204.925 182.446 204.731 181.632 204.342 180.969C203.964 180.306 203.381 179.804 202.595 179.463C201.819 179.113 200.839 178.938 199.655 178.938H195.507V203H189.357ZM205.067 189.761L212.297 203H205.507L198.433 189.761H205.067ZM221.714 203.412C220.322 203.412 219.082 203.17 217.993 202.688C216.904 202.195 216.042 201.471 215.408 200.514C214.783 199.548 214.47 198.346 214.47 196.906C214.47 195.694 214.693 194.676 215.138 193.852C215.583 193.028 216.189 192.366 216.956 191.864C217.723 191.362 218.594 190.983 219.57 190.727C220.554 190.472 221.587 190.292 222.666 190.188C223.935 190.055 224.958 189.932 225.734 189.818C226.511 189.695 227.074 189.515 227.425 189.278C227.775 189.042 227.95 188.691 227.95 188.227V188.142C227.95 187.242 227.666 186.546 227.098 186.054C226.539 185.562 225.744 185.315 224.712 185.315C223.623 185.315 222.756 185.557 222.112 186.04C221.468 186.513 221.042 187.11 220.834 187.83L215.237 187.375C215.521 186.049 216.08 184.903 216.913 183.938C217.747 182.962 218.821 182.214 220.138 181.693C221.464 181.163 222.998 180.898 224.74 180.898C225.952 180.898 227.112 181.04 228.22 181.324C229.338 181.608 230.327 182.048 231.189 182.645C232.06 183.241 232.747 184.009 233.249 184.946C233.75 185.874 234.001 186.987 234.001 188.284V203H228.263V199.974H228.092C227.742 200.656 227.273 201.258 226.686 201.778C226.099 202.29 225.393 202.692 224.57 202.986C223.746 203.27 222.794 203.412 221.714 203.412ZM223.447 199.236C224.338 199.236 225.124 199.061 225.805 198.71C226.487 198.35 227.022 197.867 227.411 197.261C227.799 196.655 227.993 195.969 227.993 195.202V192.886C227.804 193.009 227.543 193.123 227.212 193.227C226.89 193.322 226.525 193.412 226.118 193.497C225.711 193.573 225.304 193.644 224.896 193.71C224.489 193.767 224.12 193.819 223.788 193.866C223.078 193.971 222.458 194.136 221.928 194.364C221.397 194.591 220.985 194.899 220.692 195.287C220.398 195.666 220.251 196.139 220.251 196.707C220.251 197.531 220.55 198.161 221.146 198.597C221.752 199.023 222.519 199.236 223.447 199.236ZM238.696 211.182V181.182H244.662V184.847H244.932C245.197 184.259 245.58 183.663 246.082 183.057C246.594 182.441 247.257 181.93 248.071 181.523C248.895 181.106 249.918 180.898 251.139 180.898C252.73 180.898 254.198 181.314 255.543 182.148C256.887 182.972 257.962 184.217 258.767 185.884C259.572 187.541 259.974 189.619 259.974 192.119C259.974 194.553 259.581 196.608 258.795 198.284C258.019 199.951 256.958 201.215 255.614 202.077C254.278 202.929 252.782 203.355 251.125 203.355C249.951 203.355 248.952 203.161 248.128 202.773C247.313 202.384 246.646 201.897 246.125 201.31C245.604 200.713 245.206 200.112 244.932 199.506H244.747V211.182H238.696ZM244.619 192.091C244.619 193.388 244.799 194.52 245.159 195.486C245.519 196.452 246.04 197.205 246.722 197.744C247.403 198.275 248.232 198.54 249.207 198.54C250.192 198.54 251.026 198.27 251.707 197.73C252.389 197.181 252.905 196.423 253.256 195.457C253.616 194.482 253.795 193.36 253.795 192.091C253.795 190.831 253.62 189.723 253.27 188.767C252.92 187.811 252.403 187.062 251.722 186.523C251.04 185.983 250.202 185.713 249.207 185.713C248.223 185.713 247.389 185.973 246.707 186.494C246.035 187.015 245.519 187.754 245.159 188.71C244.799 189.667 244.619 190.794 244.619 192.091ZM264.009 203V181.182H270.06V203H264.009ZM267.048 178.369C266.149 178.369 265.377 178.071 264.733 177.474C264.098 176.868 263.781 176.144 263.781 175.301C263.781 174.468 264.098 173.753 264.733 173.156C265.377 172.55 266.149 172.247 267.048 172.247C267.948 172.247 268.715 172.55 269.349 173.156C269.993 173.753 270.315 174.468 270.315 175.301C270.315 176.144 269.993 176.868 269.349 177.474C268.715 178.071 267.948 178.369 267.048 178.369ZM282.947 203.355C281.29 203.355 279.789 202.929 278.444 202.077C277.109 201.215 276.048 199.951 275.262 198.284C274.486 196.608 274.097 194.553 274.097 192.119C274.097 189.619 274.5 187.541 275.305 185.884C276.11 184.217 277.18 182.972 278.515 182.148C279.86 181.314 281.332 180.898 282.933 180.898C284.154 180.898 285.172 181.106 285.987 181.523C286.81 181.93 287.473 182.441 287.975 183.057C288.487 183.663 288.875 184.259 289.14 184.847H289.325V173.909H295.362V203H289.396V199.506H289.14C288.856 200.112 288.453 200.713 287.933 201.31C287.421 201.897 286.754 202.384 285.93 202.773C285.115 203.161 284.121 203.355 282.947 203.355ZM284.864 198.54C285.84 198.54 286.664 198.275 287.336 197.744C288.018 197.205 288.539 196.452 288.898 195.486C289.268 194.52 289.452 193.388 289.452 192.091C289.452 190.794 289.272 189.667 288.913 188.71C288.553 187.754 288.032 187.015 287.35 186.494C286.668 185.973 285.84 185.713 284.864 185.713C283.87 185.713 283.032 185.983 282.35 186.523C281.668 187.062 281.152 187.811 280.802 188.767C280.451 189.723 280.276 190.831 280.276 192.091C280.276 193.36 280.451 194.482 280.802 195.457C281.162 196.423 281.678 197.181 282.35 197.73C283.032 198.27 283.87 198.54 284.864 198.54ZM300.45 203V173.909H311.928C314.125 173.909 316 174.302 317.553 175.088C319.115 175.865 320.304 176.968 321.118 178.398C321.942 179.818 322.354 181.49 322.354 183.412C322.354 185.344 321.937 187.006 321.104 188.398C320.27 189.78 319.063 190.841 317.482 191.58C315.91 192.318 314.006 192.688 311.771 192.688H304.087V187.744H310.777C311.951 187.744 312.927 187.583 313.703 187.261C314.48 186.939 315.057 186.456 315.436 185.812C315.824 185.169 316.018 184.368 316.018 183.412C316.018 182.446 315.824 181.632 315.436 180.969C315.057 180.306 314.475 179.804 313.689 179.463C312.912 179.113 311.932 178.938 310.749 178.938H306.601V203H300.45ZM316.161 189.761L323.391 203H316.601L309.527 189.761H316.161ZM336.093 203.426C333.887 203.426 331.978 202.957 330.369 202.02C328.768 201.073 327.532 199.757 326.661 198.071C325.79 196.376 325.354 194.411 325.354 192.176C325.354 189.922 325.79 187.953 326.661 186.267C327.532 184.572 328.768 183.256 330.369 182.318C331.978 181.371 333.887 180.898 336.093 180.898C338.299 180.898 340.203 181.371 341.803 182.318C343.413 183.256 344.654 184.572 345.525 186.267C346.396 187.953 346.832 189.922 346.832 192.176C346.832 194.411 346.396 196.376 345.525 198.071C344.654 199.757 343.413 201.073 341.803 202.02C340.203 202.957 338.299 203.426 336.093 203.426ZM336.121 198.739C337.125 198.739 337.963 198.455 338.636 197.886C339.308 197.309 339.815 196.523 340.156 195.528C340.506 194.534 340.681 193.402 340.681 192.134C340.681 190.865 340.506 189.733 340.156 188.739C339.815 187.744 339.308 186.958 338.636 186.381C337.963 185.803 337.125 185.514 336.121 185.514C335.108 185.514 334.256 185.803 333.565 186.381C332.883 186.958 332.367 187.744 332.016 188.739C331.675 189.733 331.505 190.865 331.505 192.134C331.505 193.402 331.675 194.534 332.016 195.528C332.367 196.523 332.883 197.309 333.565 197.886C334.256 198.455 335.108 198.739 336.121 198.739ZM364.758 193.71V181.182H370.809V203H364.999V199.037H364.772C364.28 200.315 363.46 201.343 362.315 202.119C361.178 202.896 359.791 203.284 358.153 203.284C356.694 203.284 355.411 202.953 354.303 202.29C353.195 201.627 352.329 200.685 351.704 199.463C351.088 198.241 350.776 196.778 350.766 195.074V181.182H356.817V193.994C356.827 195.282 357.173 196.3 357.854 197.048C358.536 197.796 359.45 198.17 360.596 198.17C361.325 198.17 362.007 198.005 362.641 197.673C363.276 197.332 363.787 196.83 364.175 196.168C364.573 195.505 364.767 194.686 364.758 193.71ZM387.254 181.182V185.727H374.115V181.182H387.254ZM377.098 175.955H383.149V196.295C383.149 196.854 383.234 197.29 383.405 197.602C383.575 197.905 383.812 198.118 384.115 198.241C384.428 198.365 384.787 198.426 385.195 198.426C385.479 198.426 385.763 198.402 386.047 198.355C386.331 198.298 386.549 198.256 386.7 198.227L387.652 202.73C387.349 202.825 386.923 202.934 386.374 203.057C385.824 203.189 385.157 203.27 384.371 203.298C382.912 203.355 381.634 203.161 380.536 202.716C379.446 202.271 378.599 201.58 377.993 200.642C377.387 199.705 377.089 198.521 377.098 197.091V175.955ZM400.905 203.426C398.661 203.426 396.729 202.972 395.109 202.062C393.5 201.144 392.259 199.847 391.388 198.17C390.517 196.485 390.081 194.491 390.081 192.19C390.081 189.946 390.517 187.976 391.388 186.281C392.259 184.586 393.485 183.265 395.067 182.318C396.658 181.371 398.523 180.898 400.663 180.898C402.103 180.898 403.443 181.13 404.683 181.594C405.933 182.048 407.022 182.735 407.95 183.653C408.888 184.572 409.617 185.727 410.138 187.119C410.659 188.502 410.919 190.121 410.919 191.977V193.639H392.496V189.889H405.223C405.223 189.018 405.034 188.246 404.655 187.574C404.276 186.902 403.75 186.376 403.078 185.997C402.415 185.609 401.643 185.415 400.763 185.415C399.844 185.415 399.03 185.628 398.32 186.054C397.619 186.471 397.07 187.034 396.672 187.744C396.274 188.445 396.071 189.226 396.061 190.088V193.653C396.061 194.733 396.26 195.666 396.658 196.452C397.065 197.238 397.638 197.844 398.376 198.27C399.115 198.696 399.991 198.909 401.004 198.909C401.677 198.909 402.292 198.814 402.851 198.625C403.41 198.436 403.888 198.152 404.286 197.773C404.683 197.394 404.986 196.93 405.195 196.381L410.791 196.75C410.507 198.095 409.925 199.269 409.044 200.273C408.173 201.267 407.046 202.044 405.663 202.602C404.29 203.152 402.704 203.426 400.905 203.426Z" fill="white"/>
</g>
<g filter="url(#filter2_d_34_354)">
<path d="M123.582 247V220.818H140.355V224.794H128.325V231.902H139.205V235.878H128.325V247H123.582ZM155.757 238.741V227.364H160.385V247H155.897V243.51H155.693C155.25 244.609 154.521 245.509 153.507 246.207C152.501 246.906 151.261 247.256 149.787 247.256C148.5 247.256 147.362 246.97 146.373 246.399C145.393 245.82 144.626 244.98 144.072 243.881C143.518 242.773 143.241 241.435 143.241 239.866V227.364H147.869V239.151C147.869 240.395 148.21 241.384 148.892 242.116C149.574 242.849 150.468 243.216 151.576 243.216C152.258 243.216 152.919 243.05 153.558 242.717C154.197 242.385 154.721 241.891 155.13 241.234C155.548 240.57 155.757 239.739 155.757 238.741ZM169.771 220.818V247H165.143V220.818H169.771ZM179.158 220.818V247H174.53V220.818H179.158ZM193.051 247V220.818H202.869C204.881 220.818 206.568 221.168 207.932 221.866C209.304 222.565 210.339 223.545 211.038 224.807C211.746 226.06 212.099 227.521 212.099 229.192C212.099 230.871 211.741 232.328 211.026 233.564C210.318 234.791 209.274 235.741 207.893 236.415C206.513 237.08 204.817 237.412 202.805 237.412H195.812V233.474H202.166C203.342 233.474 204.305 233.312 205.055 232.989C205.805 232.656 206.359 232.175 206.717 231.544C207.084 230.905 207.267 230.121 207.267 229.192C207.267 228.263 207.084 227.47 206.717 226.814C206.351 226.149 205.793 225.646 205.043 225.305C204.293 224.956 203.325 224.781 202.141 224.781H197.794V247H193.051ZM206.577 235.136L213.058 247H207.766L201.399 235.136H206.577ZM224.673 247.384C222.704 247.384 221.004 246.974 219.572 246.156C218.148 245.33 217.053 244.162 216.286 242.653C215.519 241.136 215.136 239.351 215.136 237.297C215.136 235.277 215.519 233.504 216.286 231.979C217.062 230.445 218.144 229.251 219.533 228.399C220.923 227.538 222.555 227.108 224.43 227.108C225.64 227.108 226.782 227.304 227.856 227.696C228.938 228.08 229.893 228.676 230.719 229.486C231.555 230.295 232.211 231.327 232.688 232.58C233.165 233.824 233.404 235.307 233.404 237.028V238.447H217.309V235.328H228.968C228.96 234.442 228.768 233.653 228.393 232.963C228.018 232.264 227.494 231.714 226.82 231.314C226.156 230.913 225.38 230.713 224.494 230.713C223.548 230.713 222.717 230.943 222.001 231.403C221.285 231.855 220.727 232.452 220.326 233.193C219.934 233.926 219.734 234.732 219.725 235.609V238.332C219.725 239.474 219.934 240.455 220.352 241.273C220.769 242.082 221.353 242.705 222.103 243.139C222.853 243.565 223.731 243.778 224.737 243.778C225.41 243.778 226.019 243.685 226.565 243.497C227.11 243.301 227.583 243.016 227.984 242.641C228.384 242.266 228.687 241.801 228.891 241.247L233.212 241.733C232.94 242.875 232.42 243.872 231.653 244.724C230.894 245.568 229.923 246.224 228.738 246.693C227.553 247.153 226.198 247.384 224.673 247.384ZM237.319 254.364V227.364H241.87V230.611H242.139C242.377 230.134 242.714 229.626 243.149 229.089C243.583 228.544 244.172 228.08 244.913 227.696C245.654 227.304 246.6 227.108 247.751 227.108C249.268 227.108 250.636 227.496 251.855 228.271C253.082 229.038 254.054 230.176 254.77 231.685C255.494 233.185 255.856 235.026 255.856 237.207C255.856 239.364 255.502 241.196 254.795 242.705C254.088 244.213 253.125 245.364 251.906 246.156C250.687 246.949 249.306 247.345 247.764 247.345C246.639 247.345 245.706 247.158 244.964 246.783C244.223 246.408 243.626 245.956 243.174 245.428C242.731 244.891 242.386 244.384 242.139 243.906H241.947V254.364H237.319ZM241.858 237.182C241.858 238.452 242.037 239.564 242.395 240.518C242.761 241.473 243.285 242.219 243.967 242.756C244.657 243.284 245.493 243.548 246.473 243.548C247.495 243.548 248.352 243.276 249.042 242.73C249.733 242.176 250.252 241.422 250.602 240.467C250.96 239.504 251.139 238.409 251.139 237.182C251.139 235.963 250.964 234.881 250.615 233.935C250.265 232.989 249.745 232.247 249.055 231.71C248.365 231.173 247.504 230.905 246.473 230.905C245.484 230.905 244.645 231.165 243.954 231.685C243.264 232.205 242.74 232.933 242.382 233.871C242.032 234.808 241.858 235.912 241.858 237.182ZM268.385 247.384C266.467 247.384 264.805 246.962 263.399 246.118C261.993 245.274 260.902 244.094 260.126 242.577C259.359 241.06 258.975 239.287 258.975 237.259C258.975 235.23 259.359 233.453 260.126 231.928C260.902 230.402 261.993 229.217 263.399 228.374C264.805 227.53 266.467 227.108 268.385 227.108C270.302 227.108 271.964 227.53 273.37 228.374C274.777 229.217 275.863 230.402 276.63 231.928C277.406 233.453 277.794 235.23 277.794 237.259C277.794 239.287 277.406 241.06 276.63 242.577C275.863 244.094 274.777 245.274 273.37 246.118C271.964 246.962 270.302 247.384 268.385 247.384ZM268.41 243.676C269.45 243.676 270.319 243.391 271.018 242.82C271.717 242.24 272.237 241.464 272.578 240.493C272.927 239.521 273.102 238.439 273.102 237.246C273.102 236.044 272.927 234.957 272.578 233.986C272.237 233.006 271.717 232.226 271.018 231.646C270.319 231.067 269.45 230.777 268.41 230.777C267.345 230.777 266.458 231.067 265.751 231.646C265.052 232.226 264.528 233.006 264.179 233.986C263.838 234.957 263.667 236.044 263.667 237.246C263.667 238.439 263.838 239.521 264.179 240.493C264.528 241.464 265.052 242.24 265.751 242.82C266.458 243.391 267.345 243.676 268.41 243.676ZM297.241 232.554L293.023 233.014C292.903 232.588 292.695 232.188 292.396 231.812C292.107 231.438 291.714 231.135 291.22 230.905C290.726 230.675 290.121 230.56 289.405 230.56C288.442 230.56 287.632 230.768 286.976 231.186C286.328 231.604 286.009 232.145 286.017 232.81C286.009 233.381 286.217 233.845 286.643 234.203C287.078 234.561 287.794 234.855 288.791 235.085L292.141 235.801C293.999 236.202 295.379 236.837 296.283 237.706C297.195 238.575 297.655 239.713 297.663 241.119C297.655 242.355 297.293 243.446 296.577 244.392C295.869 245.33 294.885 246.062 293.624 246.591C292.362 247.119 290.913 247.384 289.277 247.384C286.874 247.384 284.939 246.881 283.473 245.875C282.007 244.861 281.134 243.45 280.852 241.643L285.365 241.209C285.57 242.095 286.004 242.764 286.669 243.216C287.334 243.668 288.199 243.893 289.264 243.893C290.364 243.893 291.246 243.668 291.911 243.216C292.584 242.764 292.92 242.206 292.92 241.541C292.92 240.979 292.703 240.514 292.268 240.148C291.842 239.781 291.178 239.5 290.274 239.304L286.925 238.601C285.041 238.209 283.648 237.548 282.744 236.619C281.841 235.682 281.393 234.497 281.402 233.065C281.393 231.855 281.722 230.807 282.386 229.92C283.06 229.026 283.993 228.335 285.186 227.849C286.388 227.355 287.773 227.108 289.341 227.108C291.642 227.108 293.453 227.598 294.774 228.578C296.104 229.558 296.926 230.884 297.241 232.554ZM301.479 247V227.364H306.107V247H301.479ZM303.806 224.577C303.073 224.577 302.442 224.334 301.914 223.848C301.386 223.354 301.121 222.761 301.121 222.071C301.121 221.372 301.386 220.78 301.914 220.294C302.442 219.8 303.073 219.553 303.806 219.553C304.548 219.553 305.178 219.8 305.698 220.294C306.227 220.78 306.491 221.372 306.491 222.071C306.491 222.761 306.227 223.354 305.698 223.848C305.178 224.334 304.548 224.577 303.806 224.577ZM320.672 227.364V230.943H309.383V227.364H320.672ZM312.17 222.659H316.798V241.094C316.798 241.716 316.892 242.193 317.079 242.526C317.275 242.849 317.531 243.071 317.846 243.19C318.162 243.31 318.511 243.369 318.895 243.369C319.184 243.369 319.449 243.348 319.687 243.305C319.934 243.263 320.122 243.224 320.25 243.19L321.029 246.808C320.782 246.893 320.429 246.987 319.968 247.089C319.517 247.192 318.963 247.251 318.306 247.268C317.147 247.303 316.103 247.128 315.174 246.744C314.245 246.352 313.508 245.747 312.963 244.929C312.426 244.111 312.162 243.088 312.17 241.861V222.659ZM332.896 247.384C330.979 247.384 329.317 246.962 327.911 246.118C326.504 245.274 325.413 244.094 324.638 242.577C323.871 241.06 323.487 239.287 323.487 237.259C323.487 235.23 323.871 233.453 324.638 231.928C325.413 230.402 326.504 229.217 327.911 228.374C329.317 227.53 330.979 227.108 332.896 227.108C334.814 227.108 336.476 227.53 337.882 228.374C339.288 229.217 340.375 230.402 341.142 231.928C341.918 233.453 342.305 235.23 342.305 237.259C342.305 239.287 341.918 241.06 341.142 242.577C340.375 244.094 339.288 245.274 337.882 246.118C336.476 246.962 334.814 247.384 332.896 247.384ZM332.922 243.676C333.962 243.676 334.831 243.391 335.53 242.82C336.229 242.24 336.749 241.464 337.089 240.493C337.439 239.521 337.614 238.439 337.614 237.246C337.614 236.044 337.439 234.957 337.089 233.986C336.749 233.006 336.229 232.226 335.53 231.646C334.831 231.067 333.962 230.777 332.922 230.777C331.857 230.777 330.97 231.067 330.263 231.646C329.564 232.226 329.04 233.006 328.69 233.986C328.349 234.957 328.179 236.044 328.179 237.246C328.179 238.439 328.349 239.521 328.69 240.493C329.04 241.464 329.564 242.24 330.263 242.82C330.97 243.391 331.857 243.676 332.922 243.676ZM346.233 247V227.364H350.721V230.636H350.925C351.283 229.503 351.897 228.629 352.766 228.016C353.644 227.393 354.645 227.082 355.77 227.082C356.026 227.082 356.311 227.095 356.627 227.121C356.951 227.138 357.219 227.168 357.432 227.21V231.467C357.236 231.399 356.925 231.339 356.499 231.288C356.081 231.229 355.676 231.199 355.284 231.199C354.441 231.199 353.682 231.382 353.009 231.749C352.344 232.107 351.82 232.605 351.436 233.244C351.053 233.884 350.861 234.621 350.861 235.456V247H346.233ZM363.981 254.364C363.35 254.364 362.766 254.313 362.229 254.21C361.701 254.116 361.279 254.006 360.964 253.878L362.038 250.273C362.711 250.469 363.312 250.563 363.84 250.554C364.369 250.545 364.833 250.379 365.234 250.055C365.643 249.74 365.988 249.212 366.269 248.47L366.665 247.409L359.545 227.364H364.454L368.979 242.193H369.184L373.722 227.364H378.644L370.782 249.378C370.415 250.418 369.93 251.308 369.325 252.05C368.719 252.8 367.978 253.371 367.1 253.763C366.231 254.163 365.191 254.364 363.981 254.364Z" fill="white"/>
</g>
<g filter="url(#filter3_d_34_354)">
<rect x="233.064" y="90.378" width="60.7527" height="21.5054" rx="5.37634" transform="rotate(-45 233.064 90.378)" fill="#FFCB47"/>
<mask id="mask0_34_354" style="mask-type:alpha" maskUnits="userSpaceOnUse" x="230" y="90" width="72" height="55">
<rect x="230.914" y="90.4301" width="70.9677" height="53.7634" fill="#FFA500"/>
</mask>
<g mask="url(#mask0_34_354)">
<rect x="233.064" y="90.378" width="21.5054" height="75.8064" rx="5.37634" transform="rotate(-45 233.064 90.378)" fill="#46DB5B"/>
</g>
<mask id="mask1_34_354" style="mask-type:alpha" maskUnits="userSpaceOnUse" x="194" y="44" width="68" height="83">
<path d="M243.28 69.4624H235.753H234.409L224.462 72.957V126.72H194.624V45H261.022V52.7957C261.022 54.3448 260.406 55.8304 259.311 56.9258L249.245 66.9913C247.663 68.5735 245.517 69.4624 243.28 69.4624Z" fill="#D9D9D9" stroke="black" stroke-width="0.537634"/>
</mask>
<g mask="url(#mask1_34_354)">
<rect x="200.269" y="47.9569" width="60.7527" height="21.5054" rx="5.37634" fill="#F15152"/>
<mask id="mask2_34_354" style="mask-type:alpha" maskUnits="userSpaceOnUse" x="162" y="46" width="86" height="87">
<rect x="199.249" y="46.8816" width="68.2654" height="52.6443" transform="rotate(45 199.249 46.8816)" fill="#FFA500"/>
</mask>
<g mask="url(#mask2_34_354)">
<rect x="200.269" y="47.9569" width="21.5054" height="75.8064" rx="5.37634" fill="#416788"/>
</g>
</g>
</g>
</g>
<defs>
<filter id="filter0_f_34_354" x="-40.5" y="-47.5" width="610.5" height="383.5" filterUnits="userSpaceOnUse" color-interpolation-filters="sRGB">
<feFlood flood-opacity="0" result="BackgroundImageFix"/>
<feBlend mode="normal" in="SourceGraphic" in2="BackgroundImageFix" result="shape"/>
<feGaussianBlur stdDeviation="2" result="effect1_foregroundBlur_34_354"/>
</filter>
<filter id="filter1_d_34_354" x="85.5284" y="167.247" width="332.391" height="50.9347" filterUnits="userSpaceOnUse" color-interpolation-filters="sRGB">
<feFlood flood-opacity="0" result="BackgroundImageFix"/>
<feColorMatrix in="SourceAlpha" type="matrix" values="0 0 0 0 0 0 0 0 0 0 0 0 0 0 0 0 0 0 127 0" result="hardAlpha"/>
<feOffset dx="1" dy="1"/>
<feGaussianBlur stdDeviation="3"/>
<feComposite in2="hardAlpha" operator="out"/>
<feColorMatrix type="matrix" values="0 0 0 0 0 0 0 0 0 0 0 0 0 0 0 0 0 0 0.25 0"/>
<feBlend mode="normal" in2="BackgroundImageFix" result="effect1_dropShadow_34_354"/>
<feBlend mode="normal" in="SourceGraphic" in2="effect1_dropShadow_34_354" result="shape"/>
</filter>
<filter id="filter2_d_34_354" x="118.582" y="214.553" width="267.062" height="46.8111" filterUnits="userSpaceOnUse" color-interpolation-filters="sRGB">
<feFlood flood-opacity="0" result="BackgroundImageFix"/>
<feColorMatrix in="SourceAlpha" type="matrix" values="0 0 0 0 0 0 0 0 0 0 0 0 0 0 0 0 0 0 127 0" result="hardAlpha"/>
<feOffset dx="1" dy="1"/>
<feGaussianBlur stdDeviation="3"/>
<feComposite in2="hardAlpha" operator="out"/>
<feColorMatrix type="matrix" values="0 0 0 0 0 0 0 0 0 0 0 0 0 0 0 0 0 0 0.25 0"/>
<feBlend mode="normal" in2="BackgroundImageFix" result="effect1_dropShadow_34_354"/>
<feBlend mode="normal" in="SourceGraphic" in2="effect1_dropShadow_34_354" result="shape"/>
</filter>
<filter id="filter3_d_34_354" x="190.355" y="45" width="115.527" height="108" filterUnits="userSpaceOnUse" color-interpolation-filters="sRGB">
<feFlood flood-opacity="0" result="BackgroundImageFix"/>
<feColorMatrix in="SourceAlpha" type="matrix" values="0 0 0 0 0 0 0 0 0 0 0 0 0 0 0 0 0 0 127 0" result="hardAlpha"/>
<feOffset dy="4"/>
<feGaussianBlur stdDeviation="2"/>
<feComposite in2="hardAlpha" operator="out"/>
<feColorMatrix type="matrix" values="0 0 0 0 0 0 0 0 0 0 0 0 0 0 0 0 0 0 0.25 0"/>
<feBlend mode="normal" in2="BackgroundImageFix" result="effect1_dropShadow_34_354"/>
<feBlend mode="normal" in="SourceGraphic" in2="effect1_dropShadow_34_354" result="shape"/>
</filter>
<clipPath id="clip0_34_354">
<rect width="500" height="300" rx="50" fill="white"/>
</clipPath>
</defs>
</svg>
