<svg width="500" height="300" viewBox="0 0 500 300" fill="none" xmlns="http://www.w3.org/2000/svg">
<g clip-path="url(#clip0_34_354)">
<rect width="500" height="300" fill="white"/>
<g opacity="0.7" filter="url(#filter0_f_34_354)">
<path d="M108 315.5C70.8417 325.992 -10 332 -10 332L-26.5 -26L525 -43.5L566 200C566 200 530.167 235.255 490.5 248C450.273 260.925 408.604 253.214 367.5 263C317.626 274.874 299.857 296.378 249.5 306C202.646 314.953 153.907 302.538 108 315.5Z" fill="#416788"/>
<path d="M97 247.5C59.8417 257.992 -10.5 305.5 -10.5 305.5V-27.5L526.5 -41.5L555 132C555 132 519.167 167.255 479.5 180C439.273 192.925 397.604 185.214 356.5 195C306.626 206.874 288.857 228.378 238.5 238C191.646 246.953 142.907 234.538 97 247.5Z" fill="#46DB5B"/>
<path d="M55.5 185C18.3417 195.492 -10.5 233.5 -10.5 233.5L-36.5 -21.5H505L513.5 69.5C513.5 69.5 477.667 104.755 438 117.5C397.773 130.425 356.104 122.714 315 132.5C265.126 144.374 247.357 165.878 197 175.5C150.146 184.453 101.407 172.038 55.5 185Z" fill="#FFCB47"/>
<path d="M46.5 116C9.34171 126.492 -19.5 164.5 -19.5 164.5L-33 -18L504.5 -13V0.5C504.5 0.5 468.667 35.7545 429 48.5C388.773 61.4254 347.104 53.7137 306 63.5C256.126 75.3743 238.357 96.8781 188 106.5C141.146 115.453 92.4067 103.038 46.5 116Z" fill="#F15152"/>
</g>
<g filter="url(#filter1_d_34_354)">
<path d="M90.5284 151.909H98.1136L106.125 171.455H106.466L114.477 151.909H122.062V181H116.097V162.065H115.855L108.327 180.858H104.264L96.7358 161.994H96.4943V181H90.5284V151.909ZM127.13 181V151.909H138.607C140.804 151.909 142.679 152.302 144.232 153.088C145.795 153.865 146.983 154.968 147.798 156.398C148.621 157.818 149.033 159.49 149.033 161.412C149.033 163.344 148.617 165.006 147.783 166.398C146.95 167.78 145.743 168.841 144.161 169.58C142.589 170.318 140.686 170.688 138.451 170.688H130.766V165.744H137.457C138.631 165.744 139.606 165.583 140.383 165.261C141.159 164.939 141.737 164.456 142.116 163.812C142.504 163.169 142.698 162.368 142.698 161.412C142.698 160.446 142.504 159.632 142.116 158.969C141.737 158.306 141.155 157.804 140.369 157.463C139.592 157.113 138.612 156.938 137.428 156.938H133.281V181H127.13ZM142.84 167.761L150.07 181H143.281L136.207 167.761H142.84ZM152.272 156.98V151.909H176.164V156.98H167.258V181H161.178V156.98H152.272ZM189.357 181V151.909H200.834C203.031 151.909 204.906 152.302 206.459 153.088C208.021 153.865 209.21 154.968 210.024 156.398C210.848 157.818 211.26 159.49 211.26 161.412C211.26 163.344 210.843 165.006 210.01 166.398C209.177 167.78 207.969 168.841 206.388 169.58C204.816 170.318 202.912 170.688 200.678 170.688H192.993V165.744H199.683C200.857 165.744 201.833 165.583 202.609 165.261C203.386 164.939 203.964 164.456 204.342 163.812C204.731 163.169 204.925 162.368 204.925 161.412C204.925 160.446 204.731 159.632 204.342 158.969C203.964 158.306 203.381 157.804 202.595 157.463C201.819 157.113 200.839 156.938 199.655 156.938H195.507V181H189.357ZM205.067 167.761L212.297 181H205.507L198.433 167.761H205.067ZM221.714 181.412C220.322 181.412 219.082 181.17 217.993 180.688C216.904 180.195 216.042 179.471 215.408 178.514C214.783 177.548 214.47 176.346 214.47 174.906C214.47 173.694 214.693 172.676 215.138 171.852C215.583 171.028 216.189 170.366 216.956 169.864C217.723 169.362 218.594 168.983 219.57 168.727C220.554 168.472 221.587 168.292 222.666 168.188C223.935 168.055 224.958 167.932 225.734 167.818C226.511 167.695 227.074 167.515 227.425 167.278C227.775 167.042 227.95 166.691 227.95 166.227V166.142C227.95 165.242 227.666 164.546 227.098 164.054C226.539 163.562 225.744 163.315 224.712 163.315C223.623 163.315 222.756 163.557 222.112 164.04C221.468 164.513 221.042 165.11 220.834 165.83L215.237 165.375C215.521 164.049 216.08 162.903 216.913 161.938C217.747 160.962 218.821 160.214 220.138 159.693C221.464 159.163 222.998 158.898 224.74 158.898C225.952 158.898 227.112 159.04 228.22 159.324C229.338 159.608 230.327 160.048 231.189 160.645C232.06 161.241 232.747 162.009 233.249 162.946C233.75 163.874 234.001 164.987 234.001 166.284V181H228.263V177.974H228.092C227.742 178.656 227.273 179.258 226.686 179.778C226.099 180.29 225.393 180.692 224.57 180.986C223.746 181.27 222.794 181.412 221.714 181.412ZM223.447 177.236C224.338 177.236 225.124 177.061 225.805 176.71C226.487 176.35 227.022 175.867 227.411 175.261C227.799 174.655 227.993 173.969 227.993 173.202V170.886C227.804 171.009 227.543 171.123 227.212 171.227C226.89 171.322 226.525 171.412 226.118 171.497C225.711 171.573 225.304 171.644 224.896 171.71C224.489 171.767 224.12 171.819 223.788 171.866C223.078 171.971 222.458 172.136 221.928 172.364C221.397 172.591 220.985 172.899 220.692 173.287C220.398 173.666 220.251 174.139 220.251 174.707C220.251 175.531 220.55 176.161 221.146 176.597C221.752 177.023 222.519 177.236 223.447 177.236ZM238.696 189.182V159.182H244.662V162.847H244.932C245.197 162.259 245.58 161.663 246.082 161.057C246.594 160.441 247.257 159.93 248.071 159.523C248.895 159.106 249.918 158.898 251.139 158.898C252.73 158.898 254.198 159.314 255.543 160.148C256.887 160.972 257.962 162.217 258.767 163.884C259.572 165.541 259.974 167.619 259.974 170.119C259.974 172.553 259.581 174.608 258.795 176.284C258.019 177.951 256.958 179.215 255.614 180.077C254.278 180.929 252.782 181.355 251.125 181.355C249.951 181.355 248.952 181.161 248.128 180.773C247.313 180.384 246.646 179.897 246.125 179.31C245.604 178.713 245.206 178.112 244.932 177.506H244.747V189.182H238.696ZM244.619 170.091C244.619 171.388 244.799 172.52 245.159 173.486C245.519 174.452 246.04 175.205 246.722 175.744C247.403 176.275 248.232 176.54 249.207 176.54C250.192 176.54 251.026 176.27 251.707 175.73C252.389 175.181 252.905 174.423 253.256 173.457C253.616 172.482 253.795 171.36 253.795 170.091C253.795 168.831 253.62 167.723 253.27 166.767C252.92 165.811 252.403 165.062 251.722 164.523C251.04 163.983 250.202 163.713 249.207 163.713C248.223 163.713 247.389 163.973 246.707 164.494C246.035 165.015 245.519 165.754 245.159 166.71C244.799 167.667 244.619 168.794 244.619 170.091ZM264.009 181V159.182H270.06V181H264.009ZM267.048 156.369C266.149 156.369 265.377 156.071 264.733 155.474C264.098 154.868 263.781 154.144 263.781 153.301C263.781 152.468 264.098 151.753 264.733 151.156C265.377 150.55 266.149 150.247 267.048 150.247C267.948 150.247 268.715 150.55 269.349 151.156C269.993 151.753 270.315 152.468 270.315 153.301C270.315 154.144 269.993 154.868 269.349 155.474C268.715 156.071 267.948 156.369 267.048 156.369ZM282.947 181.355C281.29 181.355 279.789 180.929 278.444 180.077C277.109 179.215 276.048 177.951 275.262 176.284C274.486 174.608 274.097 172.553 274.097 170.119C274.097 167.619 274.5 165.541 275.305 163.884C276.11 162.217 277.18 160.972 278.515 160.148C279.86 159.314 281.332 158.898 282.933 158.898C284.154 158.898 285.172 159.106 285.987 159.523C286.81 159.93 287.473 160.441 287.975 161.057C288.487 161.663 288.875 162.259 289.14 162.847H289.325V151.909H295.362V181H289.396V177.506H289.14C288.856 178.112 288.453 178.713 287.933 179.31C287.421 179.897 286.754 180.384 285.93 180.773C285.115 181.161 284.121 181.355 282.947 181.355ZM284.864 176.54C285.84 176.54 286.664 176.275 287.336 175.744C288.018 175.205 288.539 174.452 288.898 173.486C289.268 172.52 289.452 171.388 289.452 170.091C289.452 168.794 289.272 167.667 288.913 166.71C288.553 165.754 288.032 165.015 287.35 164.494C286.668 163.973 285.84 163.713 284.864 163.713C283.87 163.713 283.032 163.983 282.35 164.523C281.668 165.062 281.152 165.811 280.802 166.767C280.451 167.723 280.276 168.831 280.276 170.091C280.276 171.36 280.451 172.482 280.802 173.457C281.162 174.423 281.678 175.181 282.35 175.73C283.032 176.27 283.87 176.54 284.864 176.54ZM300.45 181V151.909H311.928C314.125 151.909 316 152.302 317.553 153.088C319.115 153.865 320.304 154.968 321.118 156.398C321.942 157.818 322.354 159.49 322.354 161.412C322.354 163.344 321.937 165.006 321.104 166.398C320.27 167.78 319.063 168.841 317.482 169.58C315.91 170.318 314.006 170.688 311.771 170.688H304.087V165.744H310.777C311.951 165.744 312.927 165.583 313.703 165.261C314.48 164.939 315.057 164.456 315.436 163.812C315.824 163.169 316.018 162.368 316.018 161.412C316.018 160.446 315.824 159.632 315.436 158.969C315.057 158.306 314.475 157.804 313.689 157.463C312.912 157.113 311.932 156.938 310.749 156.938H306.601V181H300.45ZM316.161 167.761L323.391 181H316.601L309.527 167.761H316.161ZM336.093 181.426C333.887 181.426 331.978 180.957 330.369 180.02C328.768 179.073 327.532 177.757 326.661 176.071C325.79 174.376 325.354 172.411 325.354 170.176C325.354 167.922 325.79 165.953 326.661 164.267C327.532 162.572 328.768 161.256 330.369 160.318C331.978 159.371 333.887 158.898 336.093 158.898C338.299 158.898 340.203 159.371 341.803 160.318C343.413 161.256 344.654 162.572 345.525 164.267C346.396 165.953 346.832 167.922 346.832 170.176C346.832 172.411 346.396 174.376 345.525 176.071C344.654 177.757 343.413 179.073 341.803 180.02C340.203 180.957 338.299 181.426 336.093 181.426ZM336.121 176.739C337.125 176.739 337.963 176.455 338.636 175.886C339.308 175.309 339.815 174.523 340.156 173.528C340.506 172.534 340.681 171.402 340.681 170.134C340.681 168.865 340.506 167.733 340.156 166.739C339.815 165.744 339.308 164.958 338.636 164.381C337.963 163.803 337.125 163.514 336.121 163.514C335.108 163.514 334.256 163.803 333.565 164.381C332.883 164.958 332.367 165.744 332.016 166.739C331.675 167.733 331.505 168.865 331.505 170.134C331.505 171.402 331.675 172.534 332.016 173.528C332.367 174.523 332.883 175.309 333.565 175.886C334.256 176.455 335.108 176.739 336.121 176.739ZM364.758 171.71V159.182H370.809V181H364.999V177.037H364.772C364.28 178.315 363.46 179.343 362.315 180.119C361.178 180.896 359.791 181.284 358.153 181.284C356.694 181.284 355.411 180.953 354.303 180.29C353.195 179.627 352.329 178.685 351.704 177.463C351.088 176.241 350.776 174.778 350.766 173.074V159.182H356.817V171.994C356.827 173.282 357.173 174.3 357.854 175.048C358.536 175.796 359.45 176.17 360.596 176.17C361.325 176.17 362.007 176.005 362.641 175.673C363.276 175.332 363.787 174.83 364.175 174.168C364.573 173.505 364.767 172.686 364.758 171.71ZM387.254 159.182V163.727H374.115V159.182H387.254ZM377.098 153.955H383.149V174.295C383.149 174.854 383.234 175.29 383.405 175.602C383.575 175.905 383.812 176.118 384.115 176.241C384.428 176.365 384.787 176.426 385.195 176.426C385.479 176.426 385.763 176.402 386.047 176.355C386.331 176.298 386.549 176.256 386.7 176.227L387.652 180.73C387.349 180.825 386.923 180.934 386.374 181.057C385.824 181.189 385.157 181.27 384.371 181.298C382.912 181.355 381.634 181.161 380.536 180.716C379.446 180.271 378.599 179.58 377.993 178.642C377.387 177.705 377.089 176.521 377.098 175.091V153.955ZM400.905 181.426C398.661 181.426 396.729 180.972 395.109 180.062C393.5 179.144 392.259 177.847 391.388 176.17C390.517 174.485 390.081 172.491 390.081 170.19C390.081 167.946 390.517 165.976 391.388 164.281C392.259 162.586 393.485 161.265 395.067 160.318C396.658 159.371 398.523 158.898 400.663 158.898C402.103 158.898 403.443 159.13 404.683 159.594C405.933 160.048 407.022 160.735 407.95 161.653C408.888 162.572 409.617 163.727 410.138 165.119C410.659 166.502 410.919 168.121 410.919 169.977V171.639H392.496V167.889H405.223C405.223 167.018 405.034 166.246 404.655 165.574C404.276 164.902 403.75 164.376 403.078 163.997C402.415 163.609 401.643 163.415 400.763 163.415C399.844 163.415 399.03 163.628 398.32 164.054C397.619 164.471 397.07 165.034 396.672 165.744C396.274 166.445 396.071 167.226 396.061 168.088V171.653C396.061 172.733 396.26 173.666 396.658 174.452C397.065 175.238 397.638 175.844 398.376 176.27C399.115 176.696 399.991 176.909 401.004 176.909C401.677 176.909 402.292 176.814 402.851 176.625C403.41 176.436 403.888 176.152 404.286 175.773C404.683 175.394 404.986 174.93 405.195 174.381L410.791 174.75C410.507 176.095 409.925 177.269 409.044 178.273C408.173 179.267 407.046 180.044 405.663 180.602C404.29 181.152 402.704 181.426 400.905 181.426Z" fill="white"/>
</g>
<g filter="url(#filter2_d_34_354)">
<path d="M123.582 225V198.818H140.355V202.794H128.325V209.902H139.205V213.878H128.325V225H123.582ZM155.757 216.741V205.364H160.385V225H155.897V221.51H155.693C155.25 222.609 154.521 223.509 153.507 224.207C152.501 224.906 151.261 225.256 149.787 225.256C148.5 225.256 147.362 224.97 146.373 224.399C145.393 223.82 144.626 222.98 144.072 221.881C143.518 220.773 143.241 219.435 143.241 217.866V205.364H147.869V217.151C147.869 218.395 148.21 219.384 148.892 220.116C149.574 220.849 150.468 221.216 151.576 221.216C152.258 221.216 152.919 221.05 153.558 220.717C154.197 220.385 154.721 219.891 155.13 219.234C155.548 218.57 155.757 217.739 155.757 216.741ZM169.771 198.818V225H165.143V198.818H169.771ZM179.158 198.818V225H174.53V198.818H179.158ZM193.051 225V198.818H202.869C204.881 198.818 206.568 199.168 207.932 199.866C209.304 200.565 210.339 201.545 211.038 202.807C211.746 204.06 212.099 205.521 212.099 207.192C212.099 208.871 211.741 210.328 211.026 211.564C210.318 212.791 209.274 213.741 207.893 214.415C206.513 215.08 204.817 215.412 202.805 215.412H195.812V211.474H202.166C203.342 211.474 204.305 211.312 205.055 210.989C205.805 210.656 206.359 210.175 206.717 209.544C207.084 208.905 207.267 208.121 207.267 207.192C207.267 206.263 207.084 205.47 206.717 204.814C206.351 204.149 205.793 203.646 205.043 203.305C204.293 202.956 203.325 202.781 202.141 202.781H197.794V225H193.051ZM206.577 213.136L213.058 225H207.766L201.399 213.136H206.577ZM224.673 225.384C222.704 225.384 221.004 224.974 219.572 224.156C218.148 223.33 217.053 222.162 216.286 220.653C215.519 219.136 215.136 217.351 215.136 215.297C215.136 213.277 215.519 211.504 216.286 209.979C217.062 208.445 218.144 207.251 219.533 206.399C220.923 205.538 222.555 205.108 224.43 205.108C225.64 205.108 226.782 205.304 227.856 205.696C228.938 206.08 229.893 206.676 230.719 207.486C231.555 208.295 232.211 209.327 232.688 210.58C233.165 211.824 233.404 213.307 233.404 215.028V216.447H217.309V213.328H228.968C228.96 212.442 228.768 211.653 228.393 210.963C228.018 210.264 227.494 209.714 226.82 209.314C226.156 208.913 225.38 208.713 224.494 208.713C223.548 208.713 222.717 208.943 222.001 209.403C221.285 209.855 220.727 210.452 220.326 211.193C219.934 211.926 219.734 212.732 219.725 213.609V216.332C219.725 217.474 219.934 218.455 220.352 219.273C220.769 220.082 221.353 220.705 222.103 221.139C222.853 221.565 223.731 221.778 224.737 221.778C225.41 221.778 226.019 221.685 226.565 221.497C227.11 221.301 227.583 221.016 227.984 220.641C228.384 220.266 228.687 219.801 228.891 219.247L233.212 219.733C232.94 220.875 232.42 221.872 231.653 222.724C230.894 223.568 229.923 224.224 228.738 224.693C227.553 225.153 226.198 225.384 224.673 225.384ZM237.319 232.364V205.364H241.87V208.611H242.139C242.377 208.134 242.714 207.626 243.149 207.089C243.583 206.544 244.172 206.08 244.913 205.696C245.654 205.304 246.6 205.108 247.751 205.108C249.268 205.108 250.636 205.496 251.855 206.271C253.082 207.038 254.054 208.176 254.77 209.685C255.494 211.185 255.856 213.026 255.856 215.207C255.856 217.364 255.502 219.196 254.795 220.705C254.088 222.213 253.125 223.364 251.906 224.156C250.687 224.949 249.306 225.345 247.764 225.345C246.639 225.345 245.706 225.158 244.964 224.783C244.223 224.408 243.626 223.956 243.174 223.428C242.731 222.891 242.386 222.384 242.139 221.906H241.947V232.364H237.319ZM241.858 215.182C241.858 216.452 242.037 217.564 242.395 218.518C242.761 219.473 243.285 220.219 243.967 220.756C244.657 221.284 245.493 221.548 246.473 221.548C247.495 221.548 248.352 221.276 249.042 220.73C249.733 220.176 250.252 219.422 250.602 218.467C250.96 217.504 251.139 216.409 251.139 215.182C251.139 213.963 250.964 212.881 250.615 211.935C250.265 210.989 249.745 210.247 249.055 209.71C248.365 209.173 247.504 208.905 246.473 208.905C245.484 208.905 244.645 209.165 243.954 209.685C243.264 210.205 242.74 210.933 242.382 211.871C242.032 212.808 241.858 213.912 241.858 215.182ZM268.385 225.384C266.467 225.384 264.805 224.962 263.399 224.118C261.993 223.274 260.902 222.094 260.126 220.577C259.359 219.06 258.975 217.287 258.975 215.259C258.975 213.23 259.359 211.453 260.126 209.928C260.902 208.402 261.993 207.217 263.399 206.374C264.805 205.53 266.467 205.108 268.385 205.108C270.302 205.108 271.964 205.53 273.37 206.374C274.777 207.217 275.863 208.402 276.63 209.928C277.406 211.453 277.794 213.23 277.794 215.259C277.794 217.287 277.406 219.06 276.63 220.577C275.863 222.094 274.777 223.274 273.37 224.118C271.964 224.962 270.302 225.384 268.385 225.384ZM268.41 221.676C269.45 221.676 270.319 221.391 271.018 220.82C271.717 220.24 272.237 219.464 272.578 218.493C272.927 217.521 273.102 216.439 273.102 215.246C273.102 214.044 272.927 212.957 272.578 211.986C272.237 211.006 271.717 210.226 271.018 209.646C270.319 209.067 269.45 208.777 268.41 208.777C267.345 208.777 266.458 209.067 265.751 209.646C265.052 210.226 264.528 211.006 264.179 211.986C263.838 212.957 263.667 214.044 263.667 215.246C263.667 216.439 263.838 217.521 264.179 218.493C264.528 219.464 265.052 220.24 265.751 220.82C266.458 221.391 267.345 221.676 268.41 221.676ZM297.241 210.554L293.023 211.014C292.903 210.588 292.695 210.188 292.396 209.812C292.107 209.438 291.714 209.135 291.22 208.905C290.726 208.675 290.121 208.56 289.405 208.56C288.442 208.56 287.632 208.768 286.976 209.186C286.328 209.604 286.009 210.145 286.017 210.81C286.009 211.381 286.217 211.845 286.643 212.203C287.078 212.561 287.794 212.855 288.791 213.085L292.141 213.801C293.999 214.202 295.379 214.837 296.283 215.706C297.195 216.575 297.655 217.713 297.663 219.119C297.655 220.355 297.293 221.446 296.577 222.392C295.869 223.33 294.885 224.062 293.624 224.591C292.362 225.119 290.913 225.384 289.277 225.384C286.874 225.384 284.939 224.881 283.473 223.875C282.007 222.861 281.134 221.45 280.852 219.643L285.365 219.209C285.57 220.095 286.004 220.764 286.669 221.216C287.334 221.668 288.199 221.893 289.264 221.893C290.364 221.893 291.246 221.668 291.911 221.216C292.584 220.764 292.92 220.206 292.92 219.541C292.92 218.979 292.703 218.514 292.268 218.148C291.842 217.781 291.178 217.5 290.274 217.304L286.925 216.601C285.041 216.209 283.648 215.548 282.744 214.619C281.841 213.682 281.393 212.497 281.402 211.065C281.393 209.855 281.722 208.807 282.386 207.92C283.06 207.026 283.993 206.335 285.186 205.849C286.388 205.355 287.773 205.108 289.341 205.108C291.642 205.108 293.453 205.598 294.774 206.578C296.104 207.558 296.926 208.884 297.241 210.554ZM301.479 225V205.364H306.107V225H301.479ZM303.806 202.577C303.073 202.577 302.442 202.334 301.914 201.848C301.386 201.354 301.121 200.761 301.121 200.071C301.121 199.372 301.386 198.78 301.914 198.294C302.442 197.8 303.073 197.553 303.806 197.553C304.548 197.553 305.178 197.8 305.698 198.294C306.227 198.78 306.491 199.372 306.491 200.071C306.491 200.761 306.227 201.354 305.698 201.848C305.178 202.334 304.548 202.577 303.806 202.577ZM320.672 205.364V208.943H309.383V205.364H320.672ZM312.17 200.659H316.798V219.094C316.798 219.716 316.892 220.193 317.079 220.526C317.275 220.849 317.531 221.071 317.846 221.19C318.162 221.31 318.511 221.369 318.895 221.369C319.184 221.369 319.449 221.348 319.687 221.305C319.934 221.263 320.122 221.224 320.25 221.19L321.029 224.808C320.782 224.893 320.429 224.987 319.968 225.089C319.517 225.192 318.963 225.251 318.306 225.268C317.147 225.303 316.103 225.128 315.174 224.744C314.245 224.352 313.508 223.747 312.963 222.929C312.426 222.111 312.162 221.088 312.17 219.861V200.659ZM332.896 225.384C330.979 225.384 329.317 224.962 327.911 224.118C326.504 223.274 325.413 222.094 324.638 220.577C323.871 219.06 323.487 217.287 323.487 215.259C323.487 213.23 323.871 211.453 324.638 209.928C325.413 208.402 326.504 207.217 327.911 206.374C329.317 205.53 330.979 205.108 332.896 205.108C334.814 205.108 336.476 205.53 337.882 206.374C339.288 207.217 340.375 208.402 341.142 209.928C341.918 211.453 342.305 213.23 342.305 215.259C342.305 217.287 341.918 219.06 341.142 220.577C340.375 222.094 339.288 223.274 337.882 224.118C336.476 224.962 334.814 225.384 332.896 225.384ZM332.922 221.676C333.962 221.676 334.831 221.391 335.53 220.82C336.229 220.24 336.749 219.464 337.089 218.493C337.439 217.521 337.614 216.439 337.614 215.246C337.614 214.044 337.439 212.957 337.089 211.986C336.749 211.006 336.229 210.226 335.53 209.646C334.831 209.067 333.962 208.777 332.922 208.777C331.857 208.777 330.97 209.067 330.263 209.646C329.564 210.226 329.04 211.006 328.69 211.986C328.349 212.957 328.179 214.044 328.179 215.246C328.179 216.439 328.349 217.521 328.69 218.493C329.04 219.464 329.564 220.24 330.263 220.82C330.97 221.391 331.857 221.676 332.922 221.676ZM346.233 225V205.364H350.721V208.636H350.925C351.283 207.503 351.897 206.629 352.766 206.016C353.644 205.393 354.645 205.082 355.77 205.082C356.026 205.082 356.311 205.095 356.627 205.121C356.951 205.138 357.219 205.168 357.432 205.21V209.467C357.236 209.399 356.925 209.339 356.499 209.288C356.081 209.229 355.676 209.199 355.284 209.199C354.441 209.199 353.682 209.382 353.009 209.749C352.344 210.107 351.82 210.605 351.436 211.244C351.053 211.884 350.861 212.621 350.861 213.456V225H346.233ZM363.981 232.364C363.35 232.364 362.766 232.313 362.229 232.21C361.701 232.116 361.279 232.006 360.964 231.878L362.038 228.273C362.711 228.469 363.312 228.563 363.84 228.554C364.369 228.545 364.833 228.379 365.234 228.055C365.643 227.74 365.988 227.212 366.269 226.47L366.665 225.409L359.545 205.364H364.454L368.979 220.193H369.184L373.722 205.364H378.644L370.782 227.378C370.415 228.418 369.93 229.308 369.325 230.05C368.719 230.8 367.978 231.371 367.1 231.763C366.231 232.163 365.191 232.364 363.981 232.364Z" fill="white"/>
</g>
<g filter="url(#filter3_d_34_354)">
<rect x="233.064" y="68.378" width="60.7527" height="21.5054" rx="5.37634" transform="rotate(-45 233.064 68.378)" fill="#FFCB47"/>
<mask id="mask0_34_354" style="mask-type:alpha" maskUnits="userSpaceOnUse" x="230" y="68" width="72" height="55">
<rect x="230.914" y="68.4301" width="70.9677" height="53.7634" fill="#FFA500"/>
</mask>
<g mask="url(#mask0_34_354)">
<rect x="233.064" y="68.378" width="21.5054" height="75.8064" rx="5.37634" transform="rotate(-45 233.064 68.378)" fill="#46DB5B"/>
</g>
<mask id="mask1_34_354" style="mask-type:alpha" maskUnits="userSpaceOnUse" x="194" y="22" width="68" height="83">
<path d="M243.28 47.4624H235.753H234.409L224.462 50.957V104.72H194.624V23H261.022V30.7957C261.022 32.3448 260.406 33.8304 259.311 34.9258L248.979 45.2578C247.567 46.6694 245.653 47.4624 243.656 47.4624H243.28Z" fill="#D9D9D9" stroke="black" stroke-width="0.537634"/>
</mask>
<g mask="url(#mask1_34_354)">
<rect x="200.269" y="25.9569" width="60.7527" height="21.5054" rx="5.37634" fill="#F15152"/>
<mask id="mask2_34_354" style="mask-type:alpha" maskUnits="userSpaceOnUse" x="162" y="24" width="86" height="87">
<rect x="199.249" y="24.8816" width="68.2654" height="52.6443" transform="rotate(45 199.249 24.8816)" fill="#FFA500"/>
</mask>
<g mask="url(#mask2_34_354)">
<rect x="200.269" y="25.9569" width="21.5054" height="75.8064" rx="5.37634" fill="#416788"/>
</g>
</g>
</g>
</g>
<defs>
<filter id="filter0_f_34_354" x="-40.5" y="-47.5" width="610.5" height="383.5" filterUnits="userSpaceOnUse" color-interpolation-filters="sRGB">
<feFlood flood-opacity="0" result="BackgroundImageFix"/>
<feBlend mode="normal" in="SourceGraphic" in2="BackgroundImageFix" result="shape"/>
<feGaussianBlur stdDeviation="2" result="effect1_foregroundBlur_34_354"/>
</filter>
<filter id="filter1_d_34_354" x="85.5284" y="145.247" width="332.391" height="50.9347" filterUnits="userSpaceOnUse" color-interpolation-filters="sRGB">
<feFlood flood-opacity="0" result="BackgroundImageFix"/>
<feColorMatrix in="SourceAlpha" type="matrix" values="0 0 0 0 0 0 0 0 0 0 0 0 0 0 0 0 0 0 127 0" result="hardAlpha"/>
<feOffset dx="1" dy="1"/>
<feGaussianBlur stdDeviation="3"/>
<feComposite in2="hardAlpha" operator="out"/>
<feColorMatrix type="matrix" values="0 0 0 0 0 0 0 0 0 0 0 0 0 0 0 0 0 0 0.25 0"/>
<feBlend mode="normal" in2="BackgroundImageFix" result="effect1_dropShadow_34_354"/>
<feBlend mode="normal" in="SourceGraphic" in2="effect1_dropShadow_34_354" result="shape"/>
</filter>
<filter id="filter2_d_34_354" x="118.582" y="192.553" width="267.062" height="46.8111" filterUnits="userSpaceOnUse" color-interpolation-filters="sRGB">
<feFlood flood-opacity="0" result="BackgroundImageFix"/>
<feColorMatrix in="SourceAlpha" type="matrix" values="0 0 0 0 0 0 0 0 0 0 0 0 0 0 0 0 0 0 127 0" result="hardAlpha"/>
<feOffset dx="1" dy="1"/>
<feGaussianBlur stdDeviation="3"/>
<feComposite in2="hardAlpha" operator="out"/>
<feColorMatrix type="matrix" values="0 0 0 0 0 0 0 0 0 0 0 0 0 0 0 0 0 0 0.25 0"/>
<feBlend mode="normal" in2="BackgroundImageFix" result="effect1_dropShadow_34_354"/>
<feBlend mode="normal" in="SourceGraphic" in2="effect1_dropShadow_34_354" result="shape"/>
</filter>
<filter id="filter3_d_34_354" x="190.355" y="23" width="115.527" height="108" filterUnits="userSpaceOnUse" color-interpolation-filters="sRGB">
<feFlood flood-opacity="0" result="BackgroundImageFix"/>
<feColorMatrix in="SourceAlpha" type="matrix" values="0 0 0 0 0 0 0 0 0 0 0 0 0 0 0 0 0 0 127 0" result="hardAlpha"/>
<feOffset dy="4"/>
<feGaussianBlur stdDeviation="2"/>
<feComposite in2="hardAlpha" operator="out"/>
<feColorMatrix type="matrix" values="0 0 0 0 0 0 0 0 0 0 0 0 0 0 0 0 0 0 0.25 0"/>
<feBlend mode="normal" in2="BackgroundImageFix" result="effect1_dropShadow_34_354"/>
<feBlend mode="normal" in="SourceGraphic" in2="effect1_dropShadow_34_354" result="shape"/>
</filter>
<clipPath id="clip0_34_354">
<rect width="500" height="300" fill="white"/>
</clipPath>
</defs>
</svg>
