<svg viewBox="0 0 500 300" fill="none" xmlns="http://www.w3.org/2000/svg">
<g clip-path="url(#clip0_34_508)">
<rect width="500" height="300" fill="white"/>
<g opacity="0.7" filter="url(#filter0_f_34_508)">
<path d="M387.819 4.54548C424.81 -6.52257 505.548 -13.7866 505.548 -13.7866L527.611 343.914L-23.5507 369.984L-68.3304 127.15C-68.3304 127.15 -33.05 91.343 6.41438 77.9825C46.436 64.4334 88.2194 71.4965 129.166 61.0725C178.85 48.4244 196.282 26.6471 246.484 16.2437C293.193 6.56398 342.119 18.2193 387.819 4.54548Z" fill="#416788"/>
<path d="M399.875 72.3663C436.865 61.2982 506.46 12.7024 506.46 12.7024L511.636 345.662L-25.0816 368.007L-56.2749 194.971C-56.2749 194.971 -20.9944 159.164 18.47 145.803C58.4916 132.254 100.275 139.317 141.222 128.893C190.905 116.245 208.338 94.4679 258.539 84.0645C305.248 74.3848 354.175 86.0401 399.875 72.3663Z" fill="#46DB5B"/>
<path d="M442.341 134.214C479.332 123.146 507.579 84.6937 507.579 84.6937L537.54 339.259L-3.89503 347.675L-13.8084 256.818C-13.8084 256.818 21.4721 221.011 60.9364 207.651C100.958 194.102 142.741 201.165 183.688 190.741C233.372 178.093 250.804 156.315 301.006 145.912C347.715 136.232 396.641 147.888 442.341 134.214Z" fill="#FFCB47"/>
<path d="M452.412 203.065C489.403 191.997 517.651 153.546 517.651 153.546L533.986 335.814L-3.52718 339.169L-3.73701 325.67C-3.73701 325.67 31.5435 289.863 71.0078 276.503C111.029 262.953 152.813 270.017 193.76 259.593C243.443 246.944 260.876 225.167 311.077 214.764C357.786 205.084 406.713 216.739 452.412 203.065Z" fill="#F15152"/>
</g>
<g filter="url(#filter1_d_34_508)">
<path d="M90.5284 151.909H98.1136L106.125 171.455H106.466L114.477 151.909H122.062V181H116.097V162.065H115.855L108.327 180.858H104.264L96.7358 161.994H96.4943V181H90.5284V151.909ZM127.13 181V151.909H138.607C140.804 151.909 142.679 152.302 144.232 153.088C145.795 153.865 146.983 154.968 147.798 156.398C148.621 157.818 149.033 159.49 149.033 161.412C149.033 163.344 148.617 165.006 147.783 166.398C146.95 167.78 145.743 168.841 144.161 169.58C142.589 170.318 140.686 170.688 138.451 170.688H130.766V165.744H137.457C138.631 165.744 139.606 165.583 140.383 165.261C141.159 164.939 141.737 164.456 142.116 163.812C142.504 163.169 142.698 162.368 142.698 161.412C142.698 160.446 142.504 159.632 142.116 158.969C141.737 158.306 141.155 157.804 140.369 157.463C139.592 157.113 138.612 156.938 137.428 156.938H133.281V181H127.13ZM142.84 167.761L150.07 181H143.281L136.207 167.761H142.84ZM152.272 156.98V151.909H176.164V156.98H167.258V181H161.178V156.98H152.272ZM189.357 181V151.909H200.834C203.031 151.909 204.906 152.302 206.459 153.088C208.021 153.865 209.21 154.968 210.024 156.398C210.848 157.818 211.26 159.49 211.26 161.412C211.26 163.344 210.843 165.006 210.01 166.398C209.177 167.78 207.969 168.841 206.388 169.58C204.816 170.318 202.912 170.688 200.678 170.688H192.993V165.744H199.683C200.857 165.744 201.833 165.583 202.609 165.261C203.386 164.939 203.964 164.456 204.342 163.812C204.731 163.169 204.925 162.368 204.925 161.412C204.925 160.446 204.731 159.632 204.342 158.969C203.964 158.306 203.381 157.804 202.595 157.463C201.819 157.113 200.839 156.938 199.655 156.938H195.507V181H189.357ZM205.067 167.761L212.297 181H205.507L198.433 167.761H205.067ZM221.714 181.412C220.322 181.412 219.082 181.17 217.993 180.688C216.904 180.195 216.042 179.471 215.408 178.514C214.783 177.548 214.47 176.346 214.47 174.906C214.47 173.694 214.693 172.676 215.138 171.852C215.583 171.028 216.189 170.366 216.956 169.864C217.723 169.362 218.594 168.983 219.57 168.727C220.554 168.472 221.587 168.292 222.666 168.188C223.935 168.055 224.958 167.932 225.734 167.818C226.511 167.695 227.074 167.515 227.425 167.278C227.775 167.042 227.95 166.691 227.95 166.227V166.142C227.95 165.242 227.666 164.546 227.098 164.054C226.539 163.562 225.744 163.315 224.712 163.315C223.623 163.315 222.756 163.557 222.112 164.04C221.468 164.513 221.042 165.11 220.834 165.83L215.237 165.375C215.521 164.049 216.08 162.903 216.913 161.938C217.747 160.962 218.821 160.214 220.138 159.693C221.464 159.163 222.998 158.898 224.74 158.898C225.952 158.898 227.112 159.04 228.22 159.324C229.338 159.608 230.327 160.048 231.189 160.645C232.06 161.241 232.747 162.009 233.249 162.946C233.75 163.874 234.001 164.987 234.001 166.284V181H228.263V177.974H228.092C227.742 178.656 227.273 179.258 226.686 179.778C226.099 180.29 225.393 180.692 224.57 180.986C223.746 181.27 222.794 181.412 221.714 181.412ZM223.447 177.236C224.338 177.236 225.124 177.061 225.805 176.71C226.487 176.35 227.022 175.867 227.411 175.261C227.799 174.655 227.993 173.969 227.993 173.202V170.886C227.804 171.009 227.543 171.123 227.212 171.227C226.89 171.322 226.525 171.412 226.118 171.497C225.711 171.573 225.304 171.644 224.896 171.71C224.489 171.767 224.12 171.819 223.788 171.866C223.078 171.971 222.458 172.136 221.928 172.364C221.397 172.591 220.985 172.899 220.692 173.287C220.398 173.666 220.251 174.139 220.251 174.707C220.251 175.531 220.55 176.161 221.146 176.597C221.752 177.023 222.519 177.236 223.447 177.236ZM238.696 189.182V159.182H244.662V162.847H244.932C245.197 162.259 245.58 161.663 246.082 161.057C246.594 160.441 247.257 159.93 248.071 159.523C248.895 159.106 249.918 158.898 251.139 158.898C252.73 158.898 254.198 159.314 255.543 160.148C256.887 160.972 257.962 162.217 258.767 163.884C259.572 165.541 259.974 167.619 259.974 170.119C259.974 172.553 259.581 174.608 258.795 176.284C258.019 177.951 256.958 179.215 255.614 180.077C254.278 180.929 252.782 181.355 251.125 181.355C249.951 181.355 248.952 181.161 248.128 180.773C247.313 180.384 246.646 179.897 246.125 179.31C245.604 178.713 245.206 178.112 244.932 177.506H244.747V189.182H238.696ZM244.619 170.091C244.619 171.388 244.799 172.52 245.159 173.486C245.519 174.452 246.04 175.205 246.722 175.744C247.403 176.275 248.232 176.54 249.207 176.54C250.192 176.54 251.026 176.27 251.707 175.73C252.389 175.181 252.905 174.423 253.256 173.457C253.616 172.482 253.795 171.36 253.795 170.091C253.795 168.831 253.62 167.723 253.27 166.767C252.92 165.811 252.403 165.062 251.722 164.523C251.04 163.983 250.202 163.713 249.207 163.713C248.223 163.713 247.389 163.973 246.707 164.494C246.035 165.015 245.519 165.754 245.159 166.71C244.799 167.667 244.619 168.794 244.619 170.091ZM264.009 181V159.182H270.06V181H264.009ZM267.048 156.369C266.149 156.369 265.377 156.071 264.733 155.474C264.098 154.868 263.781 154.144 263.781 153.301C263.781 152.468 264.098 151.753 264.733 151.156C265.377 150.55 266.149 150.247 267.048 150.247C267.948 150.247 268.715 150.55 269.349 151.156C269.993 151.753 270.315 152.468 270.315 153.301C270.315 154.144 269.993 154.868 269.349 155.474C268.715 156.071 267.948 156.369 267.048 156.369ZM282.947 181.355C281.29 181.355 279.789 180.929 278.444 180.077C277.109 179.215 276.048 177.951 275.262 176.284C274.486 174.608 274.097 172.553 274.097 170.119C274.097 167.619 274.5 165.541 275.305 163.884C276.11 162.217 277.18 160.972 278.515 160.148C279.86 159.314 281.332 158.898 282.933 158.898C284.154 158.898 285.172 159.106 285.987 159.523C286.81 159.93 287.473 160.441 287.975 161.057C288.487 161.663 288.875 162.259 289.14 162.847H289.325V151.909H295.362V181H289.396V177.506H289.14C288.856 178.112 288.453 178.713 287.933 179.31C287.421 179.897 286.754 180.384 285.93 180.773C285.115 181.161 284.121 181.355 282.947 181.355ZM284.864 176.54C285.84 176.54 286.664 176.275 287.336 175.744C288.018 175.205 288.539 174.452 288.898 173.486C289.268 172.52 289.452 171.388 289.452 170.091C289.452 168.794 289.272 167.667 288.913 166.71C288.553 165.754 288.032 165.015 287.35 164.494C286.668 163.973 285.84 163.713 284.864 163.713C283.87 163.713 283.032 163.983 282.35 164.523C281.668 165.062 281.152 165.811 280.802 166.767C280.451 167.723 280.276 168.831 280.276 170.091C280.276 171.36 280.451 172.482 280.802 173.457C281.162 174.423 281.678 175.181 282.35 175.73C283.032 176.27 283.87 176.54 284.864 176.54ZM300.45 181V151.909H311.928C314.125 151.909 316 152.302 317.553 153.088C319.115 153.865 320.304 154.968 321.118 156.398C321.942 157.818 322.354 159.49 322.354 161.412C322.354 163.344 321.937 165.006 321.104 166.398C320.27 167.78 319.063 168.841 317.482 169.58C315.91 170.318 314.006 170.688 311.771 170.688H304.087V165.744H310.777C311.951 165.744 312.927 165.583 313.703 165.261C314.48 164.939 315.057 164.456 315.436 163.812C315.824 163.169 316.018 162.368 316.018 161.412C316.018 160.446 315.824 159.632 315.436 158.969C315.057 158.306 314.475 157.804 313.689 157.463C312.912 157.113 311.932 156.938 310.749 156.938H306.601V181H300.45ZM316.161 167.761L323.391 181H316.601L309.527 167.761H316.161ZM336.093 181.426C333.887 181.426 331.978 180.957 330.369 180.02C328.768 179.073 327.532 177.757 326.661 176.071C325.79 174.376 325.354 172.411 325.354 170.176C325.354 167.922 325.79 165.953 326.661 164.267C327.532 162.572 328.768 161.256 330.369 160.318C331.978 159.371 333.887 158.898 336.093 158.898C338.299 158.898 340.203 159.371 341.803 160.318C343.413 161.256 344.654 162.572 345.525 164.267C346.396 165.953 346.832 167.922 346.832 170.176C346.832 172.411 346.396 174.376 345.525 176.071C344.654 177.757 343.413 179.073 341.803 180.02C340.203 180.957 338.299 181.426 336.093 181.426ZM336.121 176.739C337.125 176.739 337.963 176.455 338.636 175.886C339.308 175.309 339.815 174.523 340.156 173.528C340.506 172.534 340.681 171.402 340.681 170.134C340.681 168.865 340.506 167.733 340.156 166.739C339.815 165.744 339.308 164.958 338.636 164.381C337.963 163.803 337.125 163.514 336.121 163.514C335.108 163.514 334.256 163.803 333.565 164.381C332.883 164.958 332.367 165.744 332.016 166.739C331.675 167.733 331.505 168.865 331.505 170.134C331.505 171.402 331.675 172.534 332.016 173.528C332.367 174.523 332.883 175.309 333.565 175.886C334.256 176.455 335.108 176.739 336.121 176.739ZM364.758 171.71V159.182H370.809V181H364.999V177.037H364.772C364.28 178.315 363.46 179.343 362.315 180.119C361.178 180.896 359.791 181.284 358.153 181.284C356.694 181.284 355.411 180.953 354.303 180.29C353.195 179.627 352.329 178.685 351.704 177.463C351.088 176.241 350.776 174.778 350.766 173.074V159.182H356.817V171.994C356.827 173.282 357.173 174.3 357.854 175.048C358.536 175.796 359.45 176.17 360.596 176.17C361.325 176.17 362.007 176.005 362.641 175.673C363.276 175.332 363.787 174.83 364.175 174.168C364.573 173.505 364.767 172.686 364.758 171.71ZM387.254 159.182V163.727H374.115V159.182H387.254ZM377.098 153.955H383.149V174.295C383.149 174.854 383.234 175.29 383.405 175.602C383.575 175.905 383.812 176.118 384.115 176.241C384.428 176.365 384.787 176.426 385.195 176.426C385.479 176.426 385.763 176.402 386.047 176.355C386.331 176.298 386.549 176.256 386.7 176.227L387.652 180.73C387.349 180.825 386.923 180.934 386.374 181.057C385.824 181.189 385.157 181.27 384.371 181.298C382.912 181.355 381.634 181.161 380.536 180.716C379.446 180.271 378.599 179.58 377.993 178.642C377.387 177.705 377.089 176.521 377.098 175.091V153.955ZM400.905 181.426C398.661 181.426 396.729 180.972 395.109 180.062C393.5 179.144 392.259 177.847 391.388 176.17C390.517 174.485 390.081 172.491 390.081 170.19C390.081 167.946 390.517 165.976 391.388 164.281C392.259 162.586 393.485 161.265 395.067 160.318C396.658 159.371 398.523 158.898 400.663 158.898C402.103 158.898 403.443 159.13 404.683 159.594C405.933 160.048 407.022 160.735 407.95 161.653C408.888 162.572 409.617 163.727 410.138 165.119C410.659 166.502 410.919 168.121 410.919 169.977V171.639H392.496V167.889H405.223C405.223 167.018 405.034 166.246 404.655 165.574C404.276 164.902 403.75 164.376 403.078 163.997C402.415 163.609 401.643 163.415 400.763 163.415C399.844 163.415 399.03 163.628 398.32 164.054C397.619 164.471 397.07 165.034 396.672 165.744C396.274 166.445 396.071 167.226 396.061 168.088V171.653C396.061 172.733 396.26 173.666 396.658 174.452C397.065 175.238 397.638 175.844 398.376 176.27C399.115 176.696 399.991 176.909 401.004 176.909C401.677 176.909 402.292 176.814 402.851 176.625C403.41 176.436 403.888 176.152 404.286 175.773C404.683 175.394 404.986 174.93 405.195 174.381L410.791 174.75C410.507 176.095 409.925 177.269 409.044 178.273C408.173 179.267 407.046 180.044 405.663 180.602C404.29 181.152 402.704 181.426 400.905 181.426Z" fill="white"/>
</g>
<g filter="url(#filter2_d_34_508)">
<path d="M98.4545 225H89.5824V198.818H98.6335C101.233 198.818 103.466 199.342 105.332 200.391C107.207 201.43 108.648 202.926 109.653 204.878C110.659 206.83 111.162 209.165 111.162 211.884C111.162 214.611 110.655 216.955 109.641 218.915C108.635 220.875 107.182 222.379 105.281 223.428C103.389 224.476 101.114 225 98.4545 225ZM94.3253 220.896H98.2244C100.048 220.896 101.57 220.564 102.788 219.899C104.007 219.226 104.923 218.224 105.537 216.895C106.151 215.557 106.457 213.886 106.457 211.884C106.457 209.881 106.151 208.219 105.537 206.898C104.923 205.568 104.016 204.575 102.814 203.919C101.621 203.254 100.138 202.922 98.3651 202.922H94.3253V220.896ZM121.114 225.396C119.87 225.396 118.749 225.175 117.752 224.732C116.763 224.28 115.979 223.615 115.4 222.737C114.829 221.859 114.543 220.777 114.543 219.49C114.543 218.382 114.748 217.466 115.157 216.741C115.566 216.017 116.124 215.438 116.832 215.003C117.539 214.568 118.336 214.24 119.222 214.018C120.117 213.788 121.042 213.622 121.996 213.52C123.147 213.401 124.08 213.294 124.796 213.2C125.512 213.098 126.032 212.945 126.356 212.74C126.688 212.527 126.854 212.199 126.854 211.756V211.679C126.854 210.716 126.569 209.97 125.998 209.442C125.427 208.913 124.604 208.649 123.531 208.649C122.397 208.649 121.498 208.896 120.833 209.391C120.177 209.885 119.734 210.469 119.504 211.142L115.183 210.528C115.523 209.335 116.086 208.338 116.87 207.537C117.654 206.727 118.613 206.122 119.746 205.722C120.88 205.312 122.133 205.108 123.505 205.108C124.451 205.108 125.393 205.219 126.33 205.44C127.268 205.662 128.124 206.028 128.9 206.54C129.675 207.043 130.298 207.729 130.766 208.598C131.244 209.467 131.482 210.554 131.482 211.858V225H127.033V222.303H126.88C126.599 222.848 126.202 223.359 125.691 223.837C125.188 224.305 124.553 224.685 123.786 224.974C123.028 225.256 122.137 225.396 121.114 225.396ZM122.316 221.996C123.245 221.996 124.05 221.812 124.732 221.446C125.414 221.071 125.938 220.577 126.305 219.963C126.68 219.349 126.867 218.68 126.867 217.956V215.642C126.722 215.761 126.475 215.872 126.126 215.974C125.785 216.077 125.401 216.166 124.975 216.243C124.549 216.32 124.127 216.388 123.71 216.447C123.292 216.507 122.93 216.558 122.623 216.601C121.933 216.695 121.315 216.848 120.769 217.061C120.224 217.274 119.793 217.572 119.478 217.956C119.163 218.331 119.005 218.817 119.005 219.413C119.005 220.266 119.316 220.909 119.938 221.344C120.56 221.778 121.353 221.996 122.316 221.996ZM145.941 205.364V208.943H134.653V205.364H145.941ZM137.44 200.659H142.067V219.094C142.067 219.716 142.161 220.193 142.349 220.526C142.545 220.849 142.8 221.071 143.116 221.19C143.431 221.31 143.781 221.369 144.164 221.369C144.454 221.369 144.718 221.348 144.957 221.305C145.204 221.263 145.391 221.224 145.519 221.19L146.299 224.808C146.052 224.893 145.698 224.987 145.238 225.089C144.786 225.192 144.232 225.251 143.576 225.268C142.417 225.303 141.373 225.128 140.444 224.744C139.515 224.352 138.778 223.747 138.232 222.929C137.695 222.111 137.431 221.088 137.44 219.861V200.659ZM155.462 225.396C154.218 225.396 153.097 225.175 152.1 224.732C151.111 224.28 150.327 223.615 149.748 222.737C149.176 221.859 148.891 220.777 148.891 219.49C148.891 218.382 149.096 217.466 149.505 216.741C149.914 216.017 150.472 215.438 151.179 215.003C151.887 214.568 152.684 214.24 153.57 214.018C154.465 213.788 155.39 213.622 156.344 213.52C157.495 213.401 158.428 213.294 159.144 213.2C159.86 213.098 160.38 212.945 160.703 212.74C161.036 212.527 161.202 212.199 161.202 211.756V211.679C161.202 210.716 160.917 209.97 160.346 209.442C159.775 208.913 158.952 208.649 157.878 208.649C156.745 208.649 155.846 208.896 155.181 209.391C154.525 209.885 154.081 210.469 153.851 211.142L149.53 210.528C149.871 209.335 150.434 208.338 151.218 207.537C152.002 206.727 152.961 206.122 154.094 205.722C155.228 205.312 156.48 205.108 157.853 205.108C158.799 205.108 159.74 205.219 160.678 205.44C161.615 205.662 162.472 206.028 163.248 206.54C164.023 207.043 164.645 207.729 165.114 208.598C165.591 209.467 165.83 210.554 165.83 211.858V225H161.381V222.303H161.228C160.946 222.848 160.55 223.359 160.039 223.837C159.536 224.305 158.901 224.685 158.134 224.974C157.375 225.256 156.485 225.396 155.462 225.396ZM156.664 221.996C157.593 221.996 158.398 221.812 159.08 221.446C159.762 221.071 160.286 220.577 160.652 219.963C161.027 219.349 161.215 218.68 161.215 217.956V215.642C161.07 215.761 160.823 215.872 160.473 215.974C160.132 216.077 159.749 216.166 159.323 216.243C158.897 216.32 158.475 216.388 158.057 216.447C157.64 216.507 157.277 216.558 156.971 216.601C156.28 216.695 155.662 216.848 155.117 217.061C154.571 217.274 154.141 217.572 153.826 217.956C153.51 218.331 153.353 218.817 153.353 219.413C153.353 220.266 153.664 220.909 154.286 221.344C154.908 221.778 155.701 221.996 156.664 221.996ZM170.688 225V198.818H175.316V208.611H175.507C175.746 208.134 176.083 207.626 176.517 207.089C176.952 206.544 177.54 206.08 178.282 205.696C179.023 205.304 179.969 205.108 181.12 205.108C182.637 205.108 184.005 205.496 185.223 206.271C186.451 207.038 187.422 208.176 188.138 209.685C188.863 211.185 189.225 213.026 189.225 215.207C189.225 217.364 188.871 219.196 188.164 220.705C187.456 222.213 186.493 223.364 185.275 224.156C184.056 224.949 182.675 225.345 181.132 225.345C180.007 225.345 179.074 225.158 178.333 224.783C177.591 224.408 176.995 223.956 176.543 223.428C176.1 222.891 175.755 222.384 175.507 221.906H175.239V225H170.688ZM175.226 215.182C175.226 216.452 175.405 217.564 175.763 218.518C176.13 219.473 176.654 220.219 177.336 220.756C178.026 221.284 178.861 221.548 179.841 221.548C180.864 221.548 181.721 221.276 182.411 220.73C183.101 220.176 183.621 219.422 183.971 218.467C184.328 217.504 184.507 216.409 184.507 215.182C184.507 213.963 184.333 212.881 183.983 211.935C183.634 210.989 183.114 210.247 182.424 209.71C181.733 209.173 180.873 208.905 179.841 208.905C178.853 208.905 178.013 209.165 177.323 209.685C176.632 210.205 176.108 210.933 175.75 211.871C175.401 212.808 175.226 213.912 175.226 215.182ZM198.81 225.396C197.565 225.396 196.445 225.175 195.447 224.732C194.459 224.28 193.675 223.615 193.095 222.737C192.524 221.859 192.239 220.777 192.239 219.49C192.239 218.382 192.443 217.466 192.852 216.741C193.261 216.017 193.82 215.438 194.527 215.003C195.234 214.568 196.031 214.24 196.918 214.018C197.813 213.788 198.737 213.622 199.692 213.52C200.842 213.401 201.776 213.294 202.491 213.2C203.207 213.098 203.727 212.945 204.051 212.74C204.384 212.527 204.55 212.199 204.55 211.756V211.679C204.55 210.716 204.264 209.97 203.693 209.442C203.122 208.913 202.3 208.649 201.226 208.649C200.092 208.649 199.193 208.896 198.528 209.391C197.872 209.885 197.429 210.469 197.199 211.142L192.878 210.528C193.219 209.335 193.781 208.338 194.565 207.537C195.349 206.727 196.308 206.122 197.442 205.722C198.575 205.312 199.828 205.108 201.2 205.108C202.146 205.108 203.088 205.219 204.026 205.44C204.963 205.662 205.82 206.028 206.595 206.54C207.371 207.043 207.993 207.729 208.462 208.598C208.939 209.467 209.178 210.554 209.178 211.858V225H204.729V222.303H204.575C204.294 222.848 203.898 223.359 203.386 223.837C202.884 224.305 202.249 224.685 201.482 224.974C200.723 225.256 199.832 225.396 198.81 225.396ZM200.011 221.996C200.94 221.996 201.746 221.812 202.428 221.446C203.109 221.071 203.634 220.577 204 219.963C204.375 219.349 204.562 218.68 204.562 217.956V215.642C204.418 215.761 204.17 215.872 203.821 215.974C203.48 216.077 203.097 216.166 202.67 216.243C202.244 216.32 201.822 216.388 201.405 216.447C200.987 216.507 200.625 216.558 200.318 216.601C199.628 216.695 199.01 216.848 198.464 217.061C197.919 217.274 197.489 217.572 197.173 217.956C196.858 218.331 196.7 218.817 196.7 219.413C196.7 220.266 197.011 220.909 197.634 221.344C198.256 221.778 199.048 221.996 200.011 221.996ZM229.351 210.554L225.132 211.014C225.013 210.588 224.804 210.188 224.506 209.812C224.216 209.438 223.824 209.135 223.33 208.905C222.835 208.675 222.23 208.56 221.514 208.56C220.551 208.56 219.741 208.768 219.085 209.186C218.438 209.604 218.118 210.145 218.126 210.81C218.118 211.381 218.327 211.845 218.753 212.203C219.188 212.561 219.903 212.855 220.901 213.085L224.25 213.801C226.108 214.202 227.489 214.837 228.392 215.706C229.304 216.575 229.764 217.713 229.773 219.119C229.764 220.355 229.402 221.446 228.686 222.392C227.979 223.33 226.994 224.062 225.733 224.591C224.472 225.119 223.023 225.384 221.386 225.384C218.983 225.384 217.048 224.881 215.582 223.875C214.116 222.861 213.243 221.45 212.962 219.643L217.474 219.209C217.679 220.095 218.114 220.764 218.778 221.216C219.443 221.668 220.308 221.893 221.374 221.893C222.473 221.893 223.355 221.668 224.02 221.216C224.693 220.764 225.03 220.206 225.03 219.541C225.03 218.979 224.813 218.514 224.378 218.148C223.952 217.781 223.287 217.5 222.384 217.304L219.034 216.601C217.151 216.209 215.757 215.548 214.854 214.619C213.95 213.682 213.503 212.497 213.511 211.065C213.503 209.855 213.831 208.807 214.496 207.92C215.169 207.026 216.102 206.335 217.295 205.849C218.497 205.355 219.882 205.108 221.45 205.108C223.751 205.108 225.563 205.598 226.884 206.578C228.213 207.558 229.036 208.884 229.351 210.554ZM242.282 225.384C240.313 225.384 238.613 224.974 237.181 224.156C235.758 223.33 234.663 222.162 233.896 220.653C233.129 219.136 232.745 217.351 232.745 215.297C232.745 213.277 233.129 211.504 233.896 209.979C234.671 208.445 235.754 207.251 237.143 206.399C238.532 205.538 240.164 205.108 242.039 205.108C243.249 205.108 244.391 205.304 245.465 205.696C246.548 206.08 247.502 206.676 248.329 207.486C249.164 208.295 249.82 209.327 250.298 210.58C250.775 211.824 251.013 213.307 251.013 215.028V216.447H234.918V213.328H246.577C246.569 212.442 246.377 211.653 246.002 210.963C245.627 210.264 245.103 209.714 244.43 209.314C243.765 208.913 242.989 208.713 242.103 208.713C241.157 208.713 240.326 208.943 239.61 209.403C238.894 209.855 238.336 210.452 237.935 211.193C237.543 211.926 237.343 212.732 237.335 213.609V216.332C237.335 217.474 237.543 218.455 237.961 219.273C238.379 220.082 238.962 220.705 239.712 221.139C240.462 221.565 241.34 221.778 242.346 221.778C243.019 221.778 243.629 221.685 244.174 221.497C244.719 221.301 245.192 221.016 245.593 220.641C245.994 220.266 246.296 219.801 246.501 219.247L250.822 219.733C250.549 220.875 250.029 221.872 249.262 222.724C248.504 223.568 247.532 224.224 246.347 224.693C245.163 225.153 243.808 225.384 242.282 225.384ZM268.806 198.818V225H264.063V198.818H268.806ZM273.737 225V205.364H278.161V208.7H278.391C278.8 207.575 279.477 206.697 280.423 206.067C281.369 205.428 282.499 205.108 283.811 205.108C285.141 205.108 286.261 205.432 287.173 206.08C288.094 206.719 288.741 207.592 289.116 208.7H289.321C289.756 207.609 290.489 206.74 291.52 206.092C292.56 205.436 293.791 205.108 295.214 205.108C297.021 205.108 298.496 205.679 299.638 206.821C300.78 207.963 301.351 209.629 301.351 211.82V225H296.71V212.536C296.71 211.317 296.386 210.426 295.739 209.864C295.091 209.293 294.298 209.007 293.361 209.007C292.244 209.007 291.371 209.357 290.74 210.055C290.118 210.746 289.807 211.645 289.807 212.753V225H285.268V212.344C285.268 211.33 284.962 210.52 284.348 209.915C283.743 209.31 282.95 209.007 281.97 209.007C281.305 209.007 280.7 209.178 280.155 209.518C279.609 209.851 279.175 210.324 278.851 210.938C278.527 211.543 278.365 212.25 278.365 213.06V225H273.737ZM306.046 232.364V205.364H310.597V208.611H310.865C311.104 208.134 311.441 207.626 311.875 207.089C312.31 206.544 312.898 206.08 313.64 205.696C314.381 205.304 315.327 205.108 316.478 205.108C317.995 205.108 319.363 205.496 320.581 206.271C321.809 207.038 322.78 208.176 323.496 209.685C324.221 211.185 324.583 213.026 324.583 215.207C324.583 217.364 324.229 219.196 323.522 220.705C322.814 222.213 321.851 223.364 320.632 224.156C319.414 224.949 318.033 225.345 316.49 225.345C315.365 225.345 314.432 225.158 313.691 224.783C312.949 224.408 312.353 223.956 311.901 223.428C311.458 222.891 311.113 222.384 310.865 221.906H310.674V232.364H306.046ZM310.584 215.182C310.584 216.452 310.763 217.564 311.121 218.518C311.488 219.473 312.012 220.219 312.694 220.756C313.384 221.284 314.219 221.548 315.199 221.548C316.222 221.548 317.078 221.276 317.769 220.73C318.459 220.176 318.979 219.422 319.328 218.467C319.686 217.504 319.865 216.409 319.865 215.182C319.865 213.963 319.691 212.881 319.341 211.935C318.992 210.989 318.472 210.247 317.782 209.71C317.091 209.173 316.23 208.905 315.199 208.905C314.211 208.905 313.371 209.165 312.681 209.685C311.99 210.205 311.466 210.933 311.108 211.871C310.759 212.808 310.584 213.912 310.584 215.182ZM337.111 225.384C335.194 225.384 333.532 224.962 332.125 224.118C330.719 223.274 329.628 222.094 328.853 220.577C328.086 219.06 327.702 217.287 327.702 215.259C327.702 213.23 328.086 211.453 328.853 209.928C329.628 208.402 330.719 207.217 332.125 206.374C333.532 205.53 335.194 205.108 337.111 205.108C339.029 205.108 340.691 205.53 342.097 206.374C343.503 207.217 344.59 208.402 345.357 209.928C346.132 211.453 346.52 213.23 346.52 215.259C346.52 217.287 346.132 219.06 345.357 220.577C344.59 222.094 343.503 223.274 342.097 224.118C340.691 224.962 339.029 225.384 337.111 225.384ZM337.137 221.676C338.176 221.676 339.046 221.391 339.745 220.82C340.444 220.24 340.963 219.464 341.304 218.493C341.654 217.521 341.828 216.439 341.828 215.246C341.828 214.044 341.654 212.957 341.304 211.986C340.963 211.006 340.444 210.226 339.745 209.646C339.046 209.067 338.176 208.777 337.137 208.777C336.071 208.777 335.185 209.067 334.478 209.646C333.779 210.226 333.255 211.006 332.905 211.986C332.564 212.957 332.394 214.044 332.394 215.246C332.394 216.439 332.564 217.521 332.905 218.493C333.255 219.464 333.779 220.24 334.478 220.82C335.185 221.391 336.071 221.676 337.137 221.676ZM350.448 225V205.364H354.935V208.636H355.14C355.498 207.503 356.112 206.629 356.981 206.016C357.859 205.393 358.86 205.082 359.985 205.082C360.241 205.082 360.526 205.095 360.842 205.121C361.165 205.138 361.434 205.168 361.647 205.21V209.467C361.451 209.399 361.14 209.339 360.714 209.288C360.296 209.229 359.891 209.199 359.499 209.199C358.656 209.199 357.897 209.382 357.224 209.749C356.559 210.107 356.035 210.605 355.651 211.244C355.268 211.884 355.076 212.621 355.076 213.456V225H350.448ZM375.582 205.364V208.943H364.293V205.364H375.582ZM367.08 200.659H371.708V219.094C371.708 219.716 371.802 220.193 371.989 220.526C372.185 220.849 372.441 221.071 372.756 221.19C373.072 221.31 373.421 221.369 373.805 221.369C374.094 221.369 374.359 221.348 374.597 221.305C374.844 221.263 375.032 221.224 375.16 221.19L375.94 224.808C375.692 224.893 375.339 224.987 374.879 225.089C374.427 225.192 373.873 225.251 373.217 225.268C372.058 225.303 371.013 225.128 370.085 224.744C369.156 224.352 368.418 223.747 367.873 222.929C367.336 222.111 367.072 221.088 367.08 219.861V200.659ZM387.934 225.384C385.966 225.384 384.265 224.974 382.833 224.156C381.41 223.33 380.315 222.162 379.548 220.653C378.781 219.136 378.397 217.351 378.397 215.297C378.397 213.277 378.781 211.504 379.548 209.979C380.324 208.445 381.406 207.251 382.795 206.399C384.184 205.538 385.816 205.108 387.691 205.108C388.902 205.108 390.044 205.304 391.118 205.696C392.2 206.08 393.154 206.676 393.981 207.486C394.816 208.295 395.473 209.327 395.95 210.58C396.427 211.824 396.666 213.307 396.666 215.028V216.447H380.571V213.328H392.23C392.221 212.442 392.029 211.653 391.654 210.963C391.279 210.264 390.755 209.714 390.082 209.314C389.417 208.913 388.642 208.713 387.755 208.713C386.809 208.713 385.978 208.943 385.262 209.403C384.547 209.855 383.988 210.452 383.588 211.193C383.196 211.926 382.995 212.732 382.987 213.609V216.332C382.987 217.474 383.196 218.455 383.613 219.273C384.031 220.082 384.615 220.705 385.365 221.139C386.115 221.565 386.993 221.778 387.998 221.778C388.672 221.778 389.281 221.685 389.826 221.497C390.372 221.301 390.845 221.016 391.245 220.641C391.646 220.266 391.949 219.801 392.153 219.247L396.474 219.733C396.201 220.875 395.681 221.872 394.914 222.724C394.156 223.568 393.184 224.224 392 224.693C390.815 225.153 389.46 225.384 387.934 225.384ZM400.581 225V205.364H405.068V208.636H405.273C405.631 207.503 406.244 206.629 407.114 206.016C407.991 205.393 408.993 205.082 410.118 205.082C410.374 205.082 410.659 205.095 410.974 205.121C411.298 205.138 411.567 205.168 411.78 205.21V209.467C411.584 209.399 411.273 209.339 410.847 209.288C410.429 209.229 410.024 209.199 409.632 209.199C408.788 209.199 408.03 209.382 407.357 209.749C406.692 210.107 406.168 210.605 405.784 211.244C405.401 211.884 405.209 212.621 405.209 213.456V225H400.581Z" fill="white"/>
</g>
<g filter="url(#filter3_d_34_508)">
<rect x="233.064" y="67.3779" width="60.7527" height="21.5054" rx="5.37634" transform="rotate(-45 233.064 67.3779)" fill="#FFCB47"/>
<mask id="mask0_34_508" style="mask-type:alpha" maskUnits="userSpaceOnUse" x="230" y="67" width="72" height="55">
<rect x="230.914" y="67.4301" width="70.9677" height="53.7634" fill="#FFA500"/>
</mask>
<g mask="url(#mask0_34_508)">
<rect x="233.064" y="67.3779" width="21.5054" height="75.8064" rx="5.37634" transform="rotate(-45 233.064 67.3779)" fill="#46DB5B"/>
</g>
<mask id="mask1_34_508" style="mask-type:alpha" maskUnits="userSpaceOnUse" x="194" y="21" width="68" height="83">
<path d="M243.28 46.4624H235.753H234.409L224.462 49.957V103.72H194.624V22H261.022V29.7957C261.022 31.3448 260.406 32.8304 259.311 33.9258L248.979 44.2578C247.567 45.6694 245.653 46.4624 243.656 46.4624H243.28Z" fill="#D9D9D9" stroke="black" stroke-width="0.537634"/>
</mask>
<g mask="url(#mask1_34_508)">
<rect x="200.269" y="24.9569" width="60.7527" height="21.5054" rx="5.37634" fill="#F15152"/>
<mask id="mask2_34_508" style="mask-type:alpha" maskUnits="userSpaceOnUse" x="162" y="23" width="86" height="87">
<rect x="199.249" y="23.8817" width="68.2654" height="52.6443" transform="rotate(45 199.249 23.8817)" fill="#FFA500"/>
</mask>
<g mask="url(#mask2_34_508)">
<rect x="200.269" y="24.9569" width="21.5054" height="75.8064" rx="5.37634" fill="#416788"/>
</g>
</g>
</g>
</g>
<defs>
<filter id="filter0_f_34_508" x="-74.3821" y="-18.1208" width="615.922" height="392.742" filterUnits="userSpaceOnUse" color-interpolation-filters="sRGB">
<feFlood flood-opacity="0" result="BackgroundImageFix"/>
<feBlend mode="normal" in="SourceGraphic" in2="BackgroundImageFix" result="shape"/>
<feGaussianBlur stdDeviation="2" result="effect1_foregroundBlur_34_508"/>
</filter>
<filter id="filter1_d_34_508" x="85.5284" y="145.247" width="332.391" height="50.9347" filterUnits="userSpaceOnUse" color-interpolation-filters="sRGB">
<feFlood flood-opacity="0" result="BackgroundImageFix"/>
<feColorMatrix in="SourceAlpha" type="matrix" values="0 0 0 0 0 0 0 0 0 0 0 0 0 0 0 0 0 0 127 0" result="hardAlpha"/>
<feOffset dx="1" dy="1"/>
<feGaussianBlur stdDeviation="3"/>
<feComposite in2="hardAlpha" operator="out"/>
<feColorMatrix type="matrix" values="0 0 0 0 0 0 0 0 0 0 0 0 0 0 0 0 0 0 0.25 0"/>
<feBlend mode="normal" in2="BackgroundImageFix" result="effect1_dropShadow_34_508"/>
<feBlend mode="normal" in="SourceGraphic" in2="effect1_dropShadow_34_508" result="shape"/>
</filter>
<filter id="filter2_d_34_508" x="84.5824" y="193.818" width="334.197" height="45.5455" filterUnits="userSpaceOnUse" color-interpolation-filters="sRGB">
<feFlood flood-opacity="0" result="BackgroundImageFix"/>
<feColorMatrix in="SourceAlpha" type="matrix" values="0 0 0 0 0 0 0 0 0 0 0 0 0 0 0 0 0 0 127 0" result="hardAlpha"/>
<feOffset dx="1" dy="1"/>
<feGaussianBlur stdDeviation="3"/>
<feComposite in2="hardAlpha" operator="out"/>
<feColorMatrix type="matrix" values="0 0 0 0 0 0 0 0 0 0 0 0 0 0 0 0 0 0 0.25 0"/>
<feBlend mode="normal" in2="BackgroundImageFix" result="effect1_dropShadow_34_508"/>
<feBlend mode="normal" in="SourceGraphic" in2="effect1_dropShadow_34_508" result="shape"/>
</filter>
<filter id="filter3_d_34_508" x="190.355" y="22" width="115.527" height="108" filterUnits="userSpaceOnUse" color-interpolation-filters="sRGB">
<feFlood flood-opacity="0" result="BackgroundImageFix"/>
<feColorMatrix in="SourceAlpha" type="matrix" values="0 0 0 0 0 0 0 0 0 0 0 0 0 0 0 0 0 0 127 0" result="hardAlpha"/>
<feOffset dy="4"/>
<feGaussianBlur stdDeviation="2"/>
<feComposite in2="hardAlpha" operator="out"/>
<feColorMatrix type="matrix" values="0 0 0 0 0 0 0 0 0 0 0 0 0 0 0 0 0 0 0.25 0"/>
<feBlend mode="normal" in2="BackgroundImageFix" result="effect1_dropShadow_34_508"/>
<feBlend mode="normal" in="SourceGraphic" in2="effect1_dropShadow_34_508" result="shape"/>
</filter>
<clipPath id="clip0_34_508">
<rect width="500" height="300" fill="white"/>
</clipPath>
</defs>
</svg>
