<svg viewBox="0 0 216 200" fill="none" xmlns="http://www.w3.org/2000/svg">
<rect x="78.1289" y="90.756" width="121.505" height="43.0108" rx="10.7527" transform="rotate(-45 78.1289 90.756)" fill="#FFCB47"/>
<mask id="mask0_17_842" style="mask-type:alpha" maskUnits="userSpaceOnUse" x="73" y="90" width="143" height="109">
<rect x="73.8286" y="90.8602" width="141.936" height="107.527" fill="#FFA500"/>
</mask>
<g mask="url(#mask0_17_842)">
<rect x="78.1289" y="90.756" width="43.0108" height="151.613" rx="10.7527" transform="rotate(-45 78.1289 90.756)" fill="#46DB5B"/>
</g>
<mask id="mask1_17_842" style="mask-type:alpha" maskUnits="userSpaceOnUse" x="0" y="-1" width="135" height="165">
<path d="M98.5594 48.9247H83.5056H80.8175L60.925 55.914V163.441H1.24756V0H134.043V15.5914C134.043 18.6896 132.813 21.6609 130.622 23.8516L109.958 44.5156C107.135 47.3387 103.306 48.9247 99.3132 48.9247H98.5594Z" fill="#D9D9D9" stroke="black" stroke-width="1.07527"/>
</mask>
<g mask="url(#mask1_17_842)">
<rect x="12.5376" y="5.9137" width="121.505" height="43.0108" rx="10.7527" fill="#F15152"/>
<mask id="mask2_17_842" style="mask-type:alpha" maskUnits="userSpaceOnUse" x="-64" y="3" width="172" height="172">
<rect x="10.4973" y="3.76331" width="136.531" height="105.289" transform="rotate(45 10.4973 3.76331)" fill="#FFA500"/>
</mask>
<g mask="url(#mask2_17_842)">
<rect x="12.5376" y="5.9137" width="43.0108" height="151.613" rx="10.7527" fill="#416788"/>
</g>
</g>
</svg>
