<svg viewBox="0 0 500 300" fill="none" xmlns="http://www.w3.org/2000/svg">
<g clip-path="url(#clip0_34_490)">
<rect width="500" height="300" fill="white"/>
<g opacity="0.7" filter="url(#filter0_f_34_490)">
<path d="M394.5 315C431.658 325.492 512.5 331.5 512.5 331.5L529 -26.5L-22.5 -44L-63.5 199.5C-63.5 199.5 -27.6672 234.755 12 247.5C52.2274 260.425 93.896 252.714 135 262.5C184.874 274.374 202.643 295.878 253 305.5C299.854 314.453 348.593 302.038 394.5 315Z" fill="#416788"/>
<path d="M405.5 247C442.658 257.492 513 305 513 305V-28L-24 -42L-52.5 131.5C-52.5 131.5 -16.6672 166.755 23 179.5C63.2274 192.425 104.896 184.714 146 194.5C195.874 206.374 213.643 227.878 264 237.5C310.854 246.453 359.593 234.038 405.5 247Z" fill="#46DB5B"/>
<path d="M447 184.5C484.158 194.992 513 233 513 233L539 -22H-2.5L-11 69C-11 69 24.8328 104.255 64.5 117C104.727 129.925 146.396 122.214 187.5 132C237.374 143.874 255.143 165.378 305.5 175C352.354 183.953 401.093 171.538 447 184.5Z" fill="#FFCB47"/>
<path d="M456 115.5C493.158 125.992 522 164 522 164L535.5 -18.5L-2 -13.5V0C-2 0 33.8328 35.2545 73.5 48C113.727 60.9254 155.396 53.2137 196.5 63C246.374 74.8743 264.143 96.3781 314.5 106C361.354 114.953 410.093 102.538 456 115.5Z" fill="#F15152"/>
</g>
<g filter="url(#filter1_d_34_490)">
<path d="M90.5284 151.909H98.1136L106.125 171.455H106.466L114.477 151.909H122.062V181H116.097V162.065H115.855L108.327 180.858H104.264L96.7358 161.994H96.4943V181H90.5284V151.909ZM127.13 181V151.909H138.607C140.804 151.909 142.679 152.302 144.232 153.088C145.795 153.865 146.983 154.968 147.798 156.398C148.621 157.818 149.033 159.49 149.033 161.412C149.033 163.344 148.617 165.006 147.783 166.398C146.95 167.78 145.743 168.841 144.161 169.58C142.589 170.318 140.686 170.688 138.451 170.688H130.766V165.744H137.457C138.631 165.744 139.606 165.583 140.383 165.261C141.159 164.939 141.737 164.456 142.116 163.812C142.504 163.169 142.698 162.368 142.698 161.412C142.698 160.446 142.504 159.632 142.116 158.969C141.737 158.306 141.155 157.804 140.369 157.463C139.592 157.113 138.612 156.938 137.428 156.938H133.281V181H127.13ZM142.84 167.761L150.07 181H143.281L136.207 167.761H142.84ZM152.272 156.98V151.909H176.164V156.98H167.258V181H161.178V156.98H152.272ZM189.357 181V151.909H200.834C203.031 151.909 204.906 152.302 206.459 153.088C208.021 153.865 209.21 154.968 210.024 156.398C210.848 157.818 211.26 159.49 211.26 161.412C211.26 163.344 210.843 165.006 210.01 166.398C209.177 167.78 207.969 168.841 206.388 169.58C204.816 170.318 202.912 170.688 200.678 170.688H192.993V165.744H199.683C200.857 165.744 201.833 165.583 202.609 165.261C203.386 164.939 203.964 164.456 204.342 163.812C204.731 163.169 204.925 162.368 204.925 161.412C204.925 160.446 204.731 159.632 204.342 158.969C203.964 158.306 203.381 157.804 202.595 157.463C201.819 157.113 200.839 156.938 199.655 156.938H195.507V181H189.357ZM205.067 167.761L212.297 181H205.507L198.433 167.761H205.067ZM221.714 181.412C220.322 181.412 219.082 181.17 217.993 180.688C216.904 180.195 216.042 179.471 215.408 178.514C214.783 177.548 214.47 176.346 214.47 174.906C214.47 173.694 214.693 172.676 215.138 171.852C215.583 171.028 216.189 170.366 216.956 169.864C217.723 169.362 218.594 168.983 219.57 168.727C220.554 168.472 221.587 168.292 222.666 168.188C223.935 168.055 224.958 167.932 225.734 167.818C226.511 167.695 227.074 167.515 227.425 167.278C227.775 167.042 227.95 166.691 227.95 166.227V166.142C227.95 165.242 227.666 164.546 227.098 164.054C226.539 163.562 225.744 163.315 224.712 163.315C223.623 163.315 222.756 163.557 222.112 164.04C221.468 164.513 221.042 165.11 220.834 165.83L215.237 165.375C215.521 164.049 216.08 162.903 216.913 161.938C217.747 160.962 218.821 160.214 220.138 159.693C221.464 159.163 222.998 158.898 224.74 158.898C225.952 158.898 227.112 159.04 228.22 159.324C229.338 159.608 230.327 160.048 231.189 160.645C232.06 161.241 232.747 162.009 233.249 162.946C233.75 163.874 234.001 164.987 234.001 166.284V181H228.263V177.974H228.092C227.742 178.656 227.273 179.258 226.686 179.778C226.099 180.29 225.393 180.692 224.57 180.986C223.746 181.27 222.794 181.412 221.714 181.412ZM223.447 177.236C224.338 177.236 225.124 177.061 225.805 176.71C226.487 176.35 227.022 175.867 227.411 175.261C227.799 174.655 227.993 173.969 227.993 173.202V170.886C227.804 171.009 227.543 171.123 227.212 171.227C226.89 171.322 226.525 171.412 226.118 171.497C225.711 171.573 225.304 171.644 224.896 171.71C224.489 171.767 224.12 171.819 223.788 171.866C223.078 171.971 222.458 172.136 221.928 172.364C221.397 172.591 220.985 172.899 220.692 173.287C220.398 173.666 220.251 174.139 220.251 174.707C220.251 175.531 220.55 176.161 221.146 176.597C221.752 177.023 222.519 177.236 223.447 177.236ZM238.696 189.182V159.182H244.662V162.847H244.932C245.197 162.259 245.58 161.663 246.082 161.057C246.594 160.441 247.257 159.93 248.071 159.523C248.895 159.106 249.918 158.898 251.139 158.898C252.73 158.898 254.198 159.314 255.543 160.148C256.887 160.972 257.962 162.217 258.767 163.884C259.572 165.541 259.974 167.619 259.974 170.119C259.974 172.553 259.581 174.608 258.795 176.284C258.019 177.951 256.958 179.215 255.614 180.077C254.278 180.929 252.782 181.355 251.125 181.355C249.951 181.355 248.952 181.161 248.128 180.773C247.313 180.384 246.646 179.897 246.125 179.31C245.604 178.713 245.206 178.112 244.932 177.506H244.747V189.182H238.696ZM244.619 170.091C244.619 171.388 244.799 172.52 245.159 173.486C245.519 174.452 246.04 175.205 246.722 175.744C247.403 176.275 248.232 176.54 249.207 176.54C250.192 176.54 251.026 176.27 251.707 175.73C252.389 175.181 252.905 174.423 253.256 173.457C253.616 172.482 253.795 171.36 253.795 170.091C253.795 168.831 253.62 167.723 253.27 166.767C252.92 165.811 252.403 165.062 251.722 164.523C251.04 163.983 250.202 163.713 249.207 163.713C248.223 163.713 247.389 163.973 246.707 164.494C246.035 165.015 245.519 165.754 245.159 166.71C244.799 167.667 244.619 168.794 244.619 170.091ZM264.009 181V159.182H270.06V181H264.009ZM267.048 156.369C266.149 156.369 265.377 156.071 264.733 155.474C264.098 154.868 263.781 154.144 263.781 153.301C263.781 152.468 264.098 151.753 264.733 151.156C265.377 150.55 266.149 150.247 267.048 150.247C267.948 150.247 268.715 150.55 269.349 151.156C269.993 151.753 270.315 152.468 270.315 153.301C270.315 154.144 269.993 154.868 269.349 155.474C268.715 156.071 267.948 156.369 267.048 156.369ZM282.947 181.355C281.29 181.355 279.789 180.929 278.444 180.077C277.109 179.215 276.048 177.951 275.262 176.284C274.486 174.608 274.097 172.553 274.097 170.119C274.097 167.619 274.5 165.541 275.305 163.884C276.11 162.217 277.18 160.972 278.515 160.148C279.86 159.314 281.332 158.898 282.933 158.898C284.154 158.898 285.172 159.106 285.987 159.523C286.81 159.93 287.473 160.441 287.975 161.057C288.487 161.663 288.875 162.259 289.14 162.847H289.325V151.909H295.362V181H289.396V177.506H289.14C288.856 178.112 288.453 178.713 287.933 179.31C287.421 179.897 286.754 180.384 285.93 180.773C285.115 181.161 284.121 181.355 282.947 181.355ZM284.864 176.54C285.84 176.54 286.664 176.275 287.336 175.744C288.018 175.205 288.539 174.452 288.898 173.486C289.268 172.52 289.452 171.388 289.452 170.091C289.452 168.794 289.272 167.667 288.913 166.71C288.553 165.754 288.032 165.015 287.35 164.494C286.668 163.973 285.84 163.713 284.864 163.713C283.87 163.713 283.032 163.983 282.35 164.523C281.668 165.062 281.152 165.811 280.802 166.767C280.451 167.723 280.276 168.831 280.276 170.091C280.276 171.36 280.451 172.482 280.802 173.457C281.162 174.423 281.678 175.181 282.35 175.73C283.032 176.27 283.87 176.54 284.864 176.54ZM300.45 181V151.909H311.928C314.125 151.909 316 152.302 317.553 153.088C319.115 153.865 320.304 154.968 321.118 156.398C321.942 157.818 322.354 159.49 322.354 161.412C322.354 163.344 321.937 165.006 321.104 166.398C320.27 167.78 319.063 168.841 317.482 169.58C315.91 170.318 314.006 170.688 311.771 170.688H304.087V165.744H310.777C311.951 165.744 312.927 165.583 313.703 165.261C314.48 164.939 315.057 164.456 315.436 163.812C315.824 163.169 316.018 162.368 316.018 161.412C316.018 160.446 315.824 159.632 315.436 158.969C315.057 158.306 314.475 157.804 313.689 157.463C312.912 157.113 311.932 156.938 310.749 156.938H306.601V181H300.45ZM316.161 167.761L323.391 181H316.601L309.527 167.761H316.161ZM336.093 181.426C333.887 181.426 331.978 180.957 330.369 180.02C328.768 179.073 327.532 177.757 326.661 176.071C325.79 174.376 325.354 172.411 325.354 170.176C325.354 167.922 325.79 165.953 326.661 164.267C327.532 162.572 328.768 161.256 330.369 160.318C331.978 159.371 333.887 158.898 336.093 158.898C338.299 158.898 340.203 159.371 341.803 160.318C343.413 161.256 344.654 162.572 345.525 164.267C346.396 165.953 346.832 167.922 346.832 170.176C346.832 172.411 346.396 174.376 345.525 176.071C344.654 177.757 343.413 179.073 341.803 180.02C340.203 180.957 338.299 181.426 336.093 181.426ZM336.121 176.739C337.125 176.739 337.963 176.455 338.636 175.886C339.308 175.309 339.815 174.523 340.156 173.528C340.506 172.534 340.681 171.402 340.681 170.134C340.681 168.865 340.506 167.733 340.156 166.739C339.815 165.744 339.308 164.958 338.636 164.381C337.963 163.803 337.125 163.514 336.121 163.514C335.108 163.514 334.256 163.803 333.565 164.381C332.883 164.958 332.367 165.744 332.016 166.739C331.675 167.733 331.505 168.865 331.505 170.134C331.505 171.402 331.675 172.534 332.016 173.528C332.367 174.523 332.883 175.309 333.565 175.886C334.256 176.455 335.108 176.739 336.121 176.739ZM364.758 171.71V159.182H370.809V181H364.999V177.037H364.772C364.28 178.315 363.46 179.343 362.315 180.119C361.178 180.896 359.791 181.284 358.153 181.284C356.694 181.284 355.411 180.953 354.303 180.29C353.195 179.627 352.329 178.685 351.704 177.463C351.088 176.241 350.776 174.778 350.766 173.074V159.182H356.817V171.994C356.827 173.282 357.173 174.3 357.854 175.048C358.536 175.796 359.45 176.17 360.596 176.17C361.325 176.17 362.007 176.005 362.641 175.673C363.276 175.332 363.787 174.83 364.175 174.168C364.573 173.505 364.767 172.686 364.758 171.71ZM387.254 159.182V163.727H374.115V159.182H387.254ZM377.098 153.955H383.149V174.295C383.149 174.854 383.234 175.29 383.405 175.602C383.575 175.905 383.812 176.118 384.115 176.241C384.428 176.365 384.787 176.426 385.195 176.426C385.479 176.426 385.763 176.402 386.047 176.355C386.331 176.298 386.549 176.256 386.7 176.227L387.652 180.73C387.349 180.825 386.923 180.934 386.374 181.057C385.824 181.189 385.157 181.27 384.371 181.298C382.912 181.355 381.634 181.161 380.536 180.716C379.446 180.271 378.599 179.58 377.993 178.642C377.387 177.705 377.089 176.521 377.098 175.091V153.955ZM400.905 181.426C398.661 181.426 396.729 180.972 395.109 180.062C393.5 179.144 392.259 177.847 391.388 176.17C390.517 174.485 390.081 172.491 390.081 170.19C390.081 167.946 390.517 165.976 391.388 164.281C392.259 162.586 393.485 161.265 395.067 160.318C396.658 159.371 398.523 158.898 400.663 158.898C402.103 158.898 403.443 159.13 404.683 159.594C405.933 160.048 407.022 160.735 407.95 161.653C408.888 162.572 409.617 163.727 410.138 165.119C410.659 166.502 410.919 168.121 410.919 169.977V171.639H392.496V167.889H405.223C405.223 167.018 405.034 166.246 404.655 165.574C404.276 164.902 403.75 164.376 403.078 163.997C402.415 163.609 401.643 163.415 400.763 163.415C399.844 163.415 399.03 163.628 398.32 164.054C397.619 164.471 397.07 165.034 396.672 165.744C396.274 166.445 396.071 167.226 396.061 168.088V171.653C396.061 172.733 396.26 173.666 396.658 174.452C397.065 175.238 397.638 175.844 398.376 176.27C399.115 176.696 399.991 176.909 401.004 176.909C401.677 176.909 402.292 176.814 402.851 176.625C403.41 176.436 403.888 176.152 404.286 175.773C404.683 175.394 404.986 174.93 405.195 174.381L410.791 174.75C410.507 176.095 409.925 177.269 409.044 178.273C408.173 179.267 407.046 180.044 405.663 180.602C404.29 181.152 402.704 181.426 400.905 181.426Z" fill="white"/>
</g>
<g filter="url(#filter2_d_34_490)">
<path d="M136.092 225L128.703 198.818H133.804L138.521 218.058H138.764L143.801 198.818H148.442L153.491 218.071H153.722L158.439 198.818H163.54L156.151 225H151.472L146.23 206.629H146.026L140.771 225H136.092ZM173.313 225.384C171.344 225.384 169.644 224.974 168.212 224.156C166.789 223.33 165.694 222.162 164.927 220.653C164.16 219.136 163.776 217.351 163.776 215.297C163.776 213.277 164.16 211.504 164.927 209.979C165.702 208.445 166.785 207.251 168.174 206.399C169.563 205.538 171.195 205.108 173.07 205.108C174.281 205.108 175.423 205.304 176.496 205.696C177.579 206.08 178.533 206.676 179.36 207.486C180.195 208.295 180.852 209.327 181.329 210.58C181.806 211.824 182.045 213.307 182.045 215.028V216.447H165.95V213.328H177.609C177.6 212.442 177.408 211.653 177.033 210.963C176.658 210.264 176.134 209.714 175.461 209.314C174.796 208.913 174.021 208.713 173.134 208.713C172.188 208.713 171.357 208.943 170.641 209.403C169.925 209.855 169.367 210.452 168.967 211.193C168.575 211.926 168.374 212.732 168.366 213.609V216.332C168.366 217.474 168.575 218.455 168.992 219.273C169.41 220.082 169.994 220.705 170.744 221.139C171.494 221.565 172.371 221.778 173.377 221.778C174.05 221.778 174.66 221.685 175.205 221.497C175.751 221.301 176.224 221.016 176.624 220.641C177.025 220.266 177.327 219.801 177.532 219.247L181.853 219.733C181.58 220.875 181.06 221.872 180.293 222.724C179.535 223.568 178.563 224.224 177.379 224.693C176.194 225.153 174.839 225.384 173.313 225.384ZM186.164 225V198.818H190.792V208.611H190.984C191.223 208.134 191.559 207.626 191.994 207.089C192.429 206.544 193.017 206.08 193.758 205.696C194.5 205.304 195.446 205.108 196.596 205.108C198.113 205.108 199.481 205.496 200.7 206.271C201.927 207.038 202.899 208.176 203.615 209.685C204.339 211.185 204.701 213.026 204.701 215.207C204.701 217.364 204.348 219.196 203.64 220.705C202.933 222.213 201.97 223.364 200.751 224.156C199.532 224.949 198.152 225.345 196.609 225.345C195.484 225.345 194.551 225.158 193.809 224.783C193.068 224.408 192.471 223.956 192.02 223.428C191.576 222.891 191.231 222.384 190.984 221.906H190.716V225H186.164ZM190.703 215.182C190.703 216.452 190.882 217.564 191.24 218.518C191.606 219.473 192.13 220.219 192.812 220.756C193.502 221.284 194.338 221.548 195.318 221.548C196.341 221.548 197.197 221.276 197.887 220.73C198.578 220.176 199.098 219.422 199.447 218.467C199.805 217.504 199.984 216.409 199.984 215.182C199.984 213.963 199.809 212.881 199.46 211.935C199.11 210.989 198.591 210.247 197.9 209.71C197.21 209.173 196.349 208.905 195.318 208.905C194.329 208.905 193.49 209.165 192.799 209.685C192.109 210.205 191.585 210.933 191.227 211.871C190.877 212.808 190.703 213.912 190.703 215.182ZM224.156 210.554L219.937 211.014C219.817 210.588 219.609 210.188 219.31 209.812C219.021 209.438 218.629 209.135 218.134 208.905C217.64 208.675 217.035 208.56 216.319 208.56C215.356 208.56 214.546 208.768 213.89 209.186C213.242 209.604 212.923 210.145 212.931 210.81C212.923 211.381 213.131 211.845 213.558 212.203C213.992 212.561 214.708 212.855 215.705 213.085L219.055 213.801C220.913 214.202 222.293 214.837 223.197 215.706C224.109 216.575 224.569 217.713 224.577 219.119C224.569 220.355 224.207 221.446 223.491 222.392C222.783 223.33 221.799 224.062 220.538 224.591C219.276 225.119 217.827 225.384 216.191 225.384C213.788 225.384 211.853 224.881 210.387 223.875C208.921 222.861 208.048 221.45 207.766 219.643L212.279 219.209C212.484 220.095 212.918 220.764 213.583 221.216C214.248 221.668 215.113 221.893 216.178 221.893C217.278 221.893 218.16 221.668 218.825 221.216C219.498 220.764 219.835 220.206 219.835 219.541C219.835 218.979 219.617 218.514 219.183 218.148C218.756 217.781 218.092 217.5 217.188 217.304L213.839 216.601C211.955 216.209 210.562 215.548 209.658 214.619C208.755 213.682 208.308 212.497 208.316 211.065C208.308 209.855 208.636 208.807 209.3 207.92C209.974 207.026 210.907 206.335 212.1 205.849C213.302 205.355 214.687 205.108 216.255 205.108C218.556 205.108 220.367 205.598 221.688 206.578C223.018 207.558 223.84 208.884 224.156 210.554ZM228.393 225V205.364H233.021V225H228.393ZM230.72 202.577C229.987 202.577 229.357 202.334 228.828 201.848C228.3 201.354 228.036 200.761 228.036 200.071C228.036 199.372 228.3 198.78 228.828 198.294C229.357 197.8 229.987 197.553 230.72 197.553C231.462 197.553 232.092 197.8 232.612 198.294C233.141 198.78 233.405 199.372 233.405 200.071C233.405 200.761 233.141 201.354 232.612 201.848C232.092 202.334 231.462 202.577 230.72 202.577ZM247.586 205.364V208.943H236.297V205.364H247.586ZM239.084 200.659H243.712V219.094C243.712 219.716 243.806 220.193 243.993 220.526C244.189 220.849 244.445 221.071 244.76 221.19C245.076 221.31 245.425 221.369 245.809 221.369C246.098 221.369 246.363 221.348 246.601 221.305C246.848 221.263 247.036 221.224 247.164 221.19L247.944 224.808C247.696 224.893 247.343 224.987 246.882 225.089C246.431 225.192 245.877 225.251 245.221 225.268C244.061 225.303 243.017 225.128 242.088 224.744C241.159 224.352 240.422 223.747 239.877 222.929C239.34 222.111 239.076 221.088 239.084 219.861V200.659ZM259.938 225.384C257.969 225.384 256.269 224.974 254.837 224.156C253.414 223.33 252.319 222.162 251.552 220.653C250.785 219.136 250.401 217.351 250.401 215.297C250.401 213.277 250.785 211.504 251.552 209.979C252.327 208.445 253.41 207.251 254.799 206.399C256.188 205.538 257.82 205.108 259.695 205.108C260.906 205.108 262.048 205.304 263.121 205.696C264.204 206.08 265.158 206.676 265.985 207.486C266.82 208.295 267.477 209.327 267.954 210.58C268.431 211.824 268.67 213.307 268.67 215.028V216.447H252.575V213.328H264.234C264.225 212.442 264.033 211.653 263.658 210.963C263.283 210.264 262.759 209.714 262.086 209.314C261.421 208.913 260.646 208.713 259.759 208.713C258.813 208.713 257.982 208.943 257.266 209.403C256.55 209.855 255.992 210.452 255.592 211.193C255.2 211.926 254.999 212.732 254.991 213.609V216.332C254.991 217.474 255.2 218.455 255.617 219.273C256.035 220.082 256.619 220.705 257.369 221.139C258.119 221.565 258.996 221.778 260.002 221.778C260.675 221.778 261.285 221.685 261.83 221.497C262.376 221.301 262.849 221.016 263.249 220.641C263.65 220.266 263.952 219.801 264.157 219.247L268.478 219.733C268.205 220.875 267.685 221.872 266.918 222.724C266.16 223.568 265.188 224.224 264.004 224.693C262.819 225.153 261.464 225.384 259.938 225.384ZM304.13 207.652H299.348C299.212 206.868 298.961 206.173 298.594 205.568C298.228 204.955 297.772 204.435 297.226 204.009C296.681 203.582 296.059 203.263 295.36 203.05C294.669 202.828 293.924 202.717 293.123 202.717C291.699 202.717 290.438 203.075 289.338 203.791C288.239 204.499 287.378 205.538 286.756 206.911C286.134 208.274 285.823 209.94 285.823 211.909C285.823 213.912 286.134 215.599 286.756 216.972C287.387 218.335 288.248 219.366 289.338 220.065C290.438 220.756 291.695 221.101 293.11 221.101C293.894 221.101 294.627 220.999 295.309 220.794C295.999 220.581 296.617 220.27 297.162 219.861C297.716 219.452 298.181 218.949 298.556 218.352C298.939 217.756 299.203 217.074 299.348 216.307L304.13 216.332C303.951 217.577 303.563 218.744 302.966 219.835C302.378 220.926 301.607 221.889 300.652 222.724C299.698 223.551 298.581 224.199 297.303 224.668C296.025 225.128 294.605 225.358 293.046 225.358C290.745 225.358 288.691 224.825 286.884 223.76C285.077 222.695 283.654 221.156 282.614 219.145C281.574 217.134 281.054 214.722 281.054 211.909C281.054 209.088 281.578 206.676 282.627 204.673C283.675 202.662 285.103 201.124 286.909 200.058C288.716 198.993 290.762 198.46 293.046 198.46C294.503 198.46 295.858 198.665 297.111 199.074C298.364 199.483 299.48 200.084 300.461 200.876C301.441 201.661 302.246 202.624 302.877 203.766C303.516 204.899 303.934 206.195 304.13 207.652ZM316.834 225.384C314.916 225.384 313.254 224.962 311.848 224.118C310.442 223.274 309.351 222.094 308.575 220.577C307.808 219.06 307.425 217.287 307.425 215.259C307.425 213.23 307.808 211.453 308.575 209.928C309.351 208.402 310.442 207.217 311.848 206.374C313.254 205.53 314.916 205.108 316.834 205.108C318.751 205.108 320.413 205.53 321.82 206.374C323.226 207.217 324.313 208.402 325.08 209.928C325.855 211.453 326.243 213.23 326.243 215.259C326.243 217.287 325.855 219.06 325.08 220.577C324.313 222.094 323.226 223.274 321.82 224.118C320.413 224.962 318.751 225.384 316.834 225.384ZM316.859 221.676C317.899 221.676 318.768 221.391 319.467 220.82C320.166 220.24 320.686 219.464 321.027 218.493C321.376 217.521 321.551 216.439 321.551 215.246C321.551 214.044 321.376 212.957 321.027 211.986C320.686 211.006 320.166 210.226 319.467 209.646C318.768 209.067 317.899 208.777 316.859 208.777C315.794 208.777 314.908 209.067 314.2 209.646C313.501 210.226 312.977 211.006 312.628 211.986C312.287 212.957 312.116 214.044 312.116 215.246C312.116 216.439 312.287 217.521 312.628 218.493C312.977 219.464 313.501 220.24 314.2 220.82C314.908 221.391 315.794 221.676 316.859 221.676ZM337.458 225.345C335.915 225.345 334.534 224.949 333.316 224.156C332.097 223.364 331.134 222.213 330.426 220.705C329.719 219.196 329.365 217.364 329.365 215.207C329.365 213.026 329.723 211.185 330.439 209.685C331.164 208.176 332.14 207.038 333.367 206.271C334.594 205.496 335.962 205.108 337.471 205.108C338.621 205.108 339.567 205.304 340.309 205.696C341.05 206.08 341.638 206.544 342.073 207.089C342.507 207.626 342.844 208.134 343.083 208.611H343.275V198.818H347.915V225H343.364V221.906H343.083C342.844 222.384 342.499 222.891 342.047 223.428C341.596 223.956 340.999 224.408 340.257 224.783C339.516 225.158 338.583 225.345 337.458 225.345ZM338.749 221.548C339.729 221.548 340.564 221.284 341.255 220.756C341.945 220.219 342.469 219.473 342.827 218.518C343.185 217.564 343.364 216.452 343.364 215.182C343.364 213.912 343.185 212.808 342.827 211.871C342.478 210.933 341.958 210.205 341.267 209.685C340.586 209.165 339.746 208.905 338.749 208.905C337.718 208.905 336.857 209.173 336.167 209.71C335.476 210.247 334.956 210.989 334.607 211.935C334.257 212.881 334.083 213.963 334.083 215.182C334.083 216.409 334.257 217.504 334.607 218.467C334.965 219.422 335.489 220.176 336.179 220.73C336.878 221.276 337.735 221.548 338.749 221.548ZM361.54 225.384C359.571 225.384 357.871 224.974 356.439 224.156C355.016 223.33 353.92 222.162 353.153 220.653C352.386 219.136 352.003 217.351 352.003 215.297C352.003 213.277 352.386 211.504 353.153 209.979C353.929 208.445 355.011 207.251 356.401 206.399C357.79 205.538 359.422 205.108 361.297 205.108C362.507 205.108 363.649 205.304 364.723 205.696C365.805 206.08 366.76 206.676 367.587 207.486C368.422 208.295 369.078 209.327 369.555 210.58C370.033 211.824 370.271 213.307 370.271 215.028V216.447H354.176V213.328H365.835C365.827 212.442 365.635 211.653 365.26 210.963C364.885 210.264 364.361 209.714 363.688 209.314C363.023 208.913 362.247 208.713 361.361 208.713C360.415 208.713 359.584 208.943 358.868 209.403C358.152 209.855 357.594 210.452 357.193 211.193C356.801 211.926 356.601 212.732 356.592 213.609V216.332C356.592 217.474 356.801 218.455 357.219 219.273C357.636 220.082 358.22 220.705 358.97 221.139C359.72 221.565 360.598 221.778 361.604 221.778C362.277 221.778 362.886 221.685 363.432 221.497C363.977 221.301 364.45 221.016 364.851 220.641C365.251 220.266 365.554 219.801 365.759 219.247L370.08 219.733C369.807 220.875 369.287 221.872 368.52 222.724C367.761 223.568 366.79 224.224 365.605 224.693C364.42 225.153 363.065 225.384 361.54 225.384Z" fill="white"/>
</g>
<g filter="url(#filter3_d_34_490)">
<rect x="233.064" y="67.3779" width="60.7527" height="21.5054" rx="5.37634" transform="rotate(-45 233.064 67.3779)" fill="#FFCB47"/>
<mask id="mask0_34_490" style="mask-type:alpha" maskUnits="userSpaceOnUse" x="230" y="67" width="72" height="55">
<rect x="230.914" y="67.4301" width="70.9677" height="53.7634" fill="#FFA500"/>
</mask>
<g mask="url(#mask0_34_490)">
<rect x="233.064" y="67.3779" width="21.5054" height="75.8064" rx="5.37634" transform="rotate(-45 233.064 67.3779)" fill="#46DB5B"/>
</g>
<mask id="mask1_34_490" style="mask-type:alpha" maskUnits="userSpaceOnUse" x="194" y="21" width="68" height="83">
<path d="M243.28 46.4624H235.753H234.409L224.462 49.957V103.72H194.624V22H261.022V29.7957C261.022 31.3448 260.406 32.8304 259.311 33.9258L248.979 44.2578C247.567 45.6694 245.653 46.4624 243.656 46.4624H243.28Z" fill="#D9D9D9" stroke="black" stroke-width="0.537634"/>
</mask>
<g mask="url(#mask1_34_490)">
<rect x="200.269" y="24.9569" width="60.7527" height="21.5054" rx="5.37634" fill="#F15152"/>
<mask id="mask2_34_490" style="mask-type:alpha" maskUnits="userSpaceOnUse" x="162" y="23" width="86" height="87">
<rect x="199.249" y="23.8817" width="68.2654" height="52.6443" transform="rotate(45 199.249 23.8817)" fill="#FFA500"/>
</mask>
<g mask="url(#mask2_34_490)">
<rect x="200.269" y="24.9569" width="21.5054" height="75.8064" rx="5.37634" fill="#416788"/>
</g>
</g>
</g>
</g>
<defs>
<filter id="filter0_f_34_490" x="-67.5" y="-48" width="610.5" height="384" filterUnits="userSpaceOnUse" color-interpolation-filters="sRGB">
<feFlood flood-opacity="0" result="BackgroundImageFix"/>
<feBlend mode="normal" in="SourceGraphic" in2="BackgroundImageFix" result="shape"/>
<feGaussianBlur stdDeviation="2" result="effect1_foregroundBlur_34_490"/>
</filter>
<filter id="filter1_d_34_490" x="85.5284" y="145.247" width="332.391" height="50.9347" filterUnits="userSpaceOnUse" color-interpolation-filters="sRGB">
<feFlood flood-opacity="0" result="BackgroundImageFix"/>
<feColorMatrix in="SourceAlpha" type="matrix" values="0 0 0 0 0 0 0 0 0 0 0 0 0 0 0 0 0 0 127 0" result="hardAlpha"/>
<feOffset dx="1" dy="1"/>
<feGaussianBlur stdDeviation="3"/>
<feComposite in2="hardAlpha" operator="out"/>
<feColorMatrix type="matrix" values="0 0 0 0 0 0 0 0 0 0 0 0 0 0 0 0 0 0 0.25 0"/>
<feBlend mode="normal" in2="BackgroundImageFix" result="effect1_dropShadow_34_490"/>
<feBlend mode="normal" in="SourceGraphic" in2="effect1_dropShadow_34_490" result="shape"/>
</filter>
<filter id="filter2_d_34_490" x="123.703" y="192.553" width="253.568" height="39.831" filterUnits="userSpaceOnUse" color-interpolation-filters="sRGB">
<feFlood flood-opacity="0" result="BackgroundImageFix"/>
<feColorMatrix in="SourceAlpha" type="matrix" values="0 0 0 0 0 0 0 0 0 0 0 0 0 0 0 0 0 0 127 0" result="hardAlpha"/>
<feOffset dx="1" dy="1"/>
<feGaussianBlur stdDeviation="3"/>
<feComposite in2="hardAlpha" operator="out"/>
<feColorMatrix type="matrix" values="0 0 0 0 0 0 0 0 0 0 0 0 0 0 0 0 0 0 0.25 0"/>
<feBlend mode="normal" in2="BackgroundImageFix" result="effect1_dropShadow_34_490"/>
<feBlend mode="normal" in="SourceGraphic" in2="effect1_dropShadow_34_490" result="shape"/>
</filter>
<filter id="filter3_d_34_490" x="190.355" y="22" width="115.527" height="108" filterUnits="userSpaceOnUse" color-interpolation-filters="sRGB">
<feFlood flood-opacity="0" result="BackgroundImageFix"/>
<feColorMatrix in="SourceAlpha" type="matrix" values="0 0 0 0 0 0 0 0 0 0 0 0 0 0 0 0 0 0 127 0" result="hardAlpha"/>
<feOffset dy="4"/>
<feGaussianBlur stdDeviation="2"/>
<feComposite in2="hardAlpha" operator="out"/>
<feColorMatrix type="matrix" values="0 0 0 0 0 0 0 0 0 0 0 0 0 0 0 0 0 0 0.25 0"/>
<feBlend mode="normal" in2="BackgroundImageFix" result="effect1_dropShadow_34_490"/>
<feBlend mode="normal" in="SourceGraphic" in2="effect1_dropShadow_34_490" result="shape"/>
</filter>
<clipPath id="clip0_34_490">
<rect width="500" height="300" fill="white"/>
</clipPath>
</defs>
</svg>
